SplineFontDB: 3.2
FontName: EvergrowSans-Regular
FullName: Evergrow Sans Regular
FamilyName: Evergrow Sans 
Weight: Regular
Copyright: Copyright 2020 The Plus Jakarta Sans Project Authors (https://github.com/tokotype/PlusJakartaSans)\n\nModification Stijn de Vries (https://github.com/stijndevries/Eudoxus-Sans?tab=OFL-1.1-1-ov-file)\n\nModification TenWeb Inc. 2024\n\nThis Font Software is licensed under the SIL Open Font License, Version 1.1. (https://openfontlicense.org/open-font-license-official-text/)
Version: 1.000
ItalicAngle: 0
UnderlinePosition: -175
UnderlineWidth: 40
Ascent: 800
Descent: 200
InvalidEm: 0
sfntRevision: 0x00020147
LayerCount: 2
Layer: 0 1 "Back" 1
Layer: 1 1 "Fore" 0
XUID: [1021 212 447365028 8169446]
StyleMap: 0x0040
FSType: 0
OS2Version: 4
OS2_WeightWidthSlopeOnly: 0
OS2_UseTypoMetrics: 1
CreationTime: 1610050419
ModificationTime: 1723620562
PfmFamily: 81
TTFWeight: 400
TTFWidth: 5
LineGap: 0
VLineGap: 0
Panose: 0 0 0 0 0 0 0 0 0 0
OS2TypoAscent: 1038
OS2TypoAOffset: 0
OS2TypoDescent: -222
OS2TypoDOffset: 0
OS2TypoLinegap: 0
OS2WinAscent: 1214
OS2WinAOffset: 0
OS2WinDescent: 395
OS2WinDOffset: 0
HheadAscent: 1038
HheadAOffset: 0
HheadDescent: -222
HheadDOffset: 0
OS2SubXSize: 650
OS2SubYSize: 600
OS2SubXOff: 0
OS2SubYOff: 75
OS2SupXSize: 650
OS2SupYSize: 600
OS2SupXOff: 0
OS2SupYOff: 350
OS2StrikeYSize: 50
OS2StrikeYPos: 270
OS2CapHeight: 745
OS2XHeight: 536
OS2Vendor: 'UKWN'
OS2CodePages: 20000193.00000000
OS2UnicodeRanges: a10000ff.4000607b.00000000.00000000
Lookup: 1 0 0 "'aalt' Access All Alternates in Latin lookup 0" { "'aalt' Access All Alternates in Latin lookup 0 subtable"  } ['aalt' ('DFLT' <'dflt' > 'latn' <'AZE ' 'CAT ' 'CRT ' 'KAZ ' 'MOL ' 'ROM ' 'TAT ' 'TRK ' 'dflt' > ) ]
Lookup: 3 0 0 "'aalt' Access All Alternates in Latin lookup 1" { "'aalt' Access All Alternates in Latin lookup 1 subtable"  } ['aalt' ('DFLT' <'dflt' > 'latn' <'AZE ' 'CAT ' 'CRT ' 'KAZ ' 'MOL ' 'ROM ' 'TAT ' 'TRK ' 'dflt' > ) ]

StartChar: .notdef
Encoding: 65536 -1 0
Width: 600
GlyphClass: 1
Flags: W
LayerCount: 2
Fore
SplineSet
492 -240 m 1,0,-1
 112 -240 l 1,1,-1
 112 960 l 1,2,-1
 492 960 l 1,3,-1
 492 -240 l 1,0,-1
400 -157 m 1,4,-1
 400 -118 l 1,5,-1
 277 -118 l 1,6,-1
 361 -61 l 1,7,-1
 400 -61 l 1,8,-1
 400 -22 l 1,9,-1
 200 -22 l 1,10,-1
 200 -61 l 1,11,-1
 284 -61 l 1,12,-1
 200 -118 l 1,13,-1
 200 -157 l 1,14,-1
 400 -157 l 1,4,-1
400 6 m 1,15,-1
 400 142 l 1,16,-1
 200 142 l 1,17,-1
 200 6 l 1,18,-1
 400 6 l 1,15,-1
400 214 m 1,19,-1
 400 349 l 1,20,-1
 280 349 l 1,21,-1
 280 282 l 1,22,-1
 320 282 l 1,23,-1
 320 310 l 1,24,-1
 360 310 l 1,25,-1
 360 253 l 1,26,-1
 240 253 l 1,27,-1
 240 349 l 1,28,-1
 200 349 l 1,29,-1
 200 214 l 1,30,-1
 400 214 l 1,19,-1
400 376 m 1,31,-1
 400 496 l 1,32,-1
 360 496 l 1,33,-1
 360 416 l 1,34,-1
 200 416 l 1,35,-1
 200 376 l 1,36,-1
 400 376 l 1,31,-1
320 444 m 1,37,-1
 320 528 l 1,38,-1
 400 528 l 1,39,-1
 400 568 l 1,40,-1
 200 568 l 1,41,-1
 200 528 l 1,42,-1
 280 528 l 1,43,-1
 280 484 l 1,44,-1
 200 484 l 1,45,-1
 200 444 l 1,46,-1
 320 444 l 1,37,-1
400 600 m 1,47,-1
 400 641 l 1,48,-1
 320 641 l 1,49,-1
 320 725 l 1,50,-1
 200 725 l 1,51,-1
 200 600 l 1,52,-1
 400 600 l 1,47,-1
400 756 m 1,53,-1
 400 796 l 1,54,-1
 320 796 l 1,55,-1
 320 840 l 1,56,-1
 400 840 l 1,57,-1
 400 880 l 1,58,-1
 202 880 l 1,59,-1
 202 840 l 1,60,-1
 280 840 l 1,61,-1
 280 796 l 1,62,-1
 200 796 l 1,63,-1
 200 756 l 1,64,-1
 400 756 l 1,53,-1
240 102 m 1,65,-1
 360 102 l 1,66,-1
 360 46 l 1,67,-1
 240 46 l 1,68,-1
 240 102 l 1,65,-1
240 684 m 1,69,-1
 280 684 l 1,70,-1
 280 641 l 1,71,-1
 240 641 l 1,72,-1
 240 684 l 1,69,-1
EndSplineSet
Validated: 1
EndChar

StartChar: A
Encoding: 65 65 3
Width: 652
GlyphClass: 2
Flags: W
AnchorPoint: "Anchor-6" 326 745 basechar 0
AnchorPoint: "Anchor-5" 599 30 basechar 0
AnchorPoint: "Anchor-4" 326 0 basechar 0
LayerCount: 2
Fore
SplineSet
283 745 m 1,0,-1
 369 745 l 1,1,-1
 641 0 l 1,2,-1
 557 0 l 1,3,-1
 493 182 l 1,4,-1
 160 182 l 1,5,-1
 95 0 l 1,6,-1
 11 0 l 1,7,-1
 283 745 l 1,0,-1
465 257 m 1,8,-1
 326 651 l 1,9,-1
 186 257 l 1,10,-1
 465 257 l 1,8,-1
EndSplineSet
Validated: 1
Substitution2: "Single Substitution lookup 28 subtable" ordfeminine
Substitution2: "'aalt' Access All Alternates in Latin lookup 0 subtable" ordfeminine
Position2: "'cpsp' Capital Spacing in Latin lookup 0 subtable" dx=5 dy=0 dh=10 dv=0
EndChar

StartChar: Aogonek
Encoding: 260 260 24
Width: 652
GlyphClass: 2
Flags: W
AnchorPoint: "Anchor-6" 326 745 basechar 0
AnchorPoint: "Anchor-5" 599 30 basechar 0
AnchorPoint: "Anchor-4" 326 0 basechar 0
LayerCount: 2
Fore
SplineSet
283 745 m 1,0,-1
 369 745 l 1,1,-1
 641 0 l 1,2,-1
 584 0 l 1,3,4
 531 -31 531 -31 531 -75 c 0,5,6
 531 -97 531 -97 544.5 -109.5 c 128,-1,7
 558 -122 558 -122 582 -122 c 0,8,9
 615 -122 615 -122 652 -95 c 1,10,-1
 677 -132 l 1,11,12
 633 -170 633 -170 578 -170 c 0,13,14
 535 -170 535 -170 507 -147 c 128,-1,15
 479 -124 479 -124 479 -86 c 0,16,17
 479 -55 479 -55 497.5 -29 c 128,-1,18
 516 -3 516 -3 551 16 c 1,19,-1
 493 182 l 1,20,-1
 160 182 l 1,21,-1
 95 0 l 1,22,-1
 11 0 l 1,23,-1
 283 745 l 1,0,-1
465 257 m 1,24,-1
 326 651 l 1,25,-1
 186 257 l 1,26,-1
 465 257 l 1,24,-1
EndSplineSet
Validated: 1
Position2: "'cpsp' Capital Spacing in Latin lookup 0 subtable" dx=5 dy=0 dh=10 dv=0
EndChar

StartChar: AE
Encoding: 198 198 28
Width: 985
GlyphClass: 2
Flags: W
AnchorPoint: "Anchor-6" 493 745 basechar 0
AnchorPoint: "Anchor-4" 493 0 basechar 0
LayerCount: 2
Fore
SplineSet
283 745 m 1,0,-1
 941 745 l 1,1,-1
 941 670 l 1,2,-1
 541 670 l 1,3,-1
 541 411 l 1,4,-1
 921 411 l 1,5,-1
 921 336 l 1,6,-1
 541 336 l 1,7,-1
 541 75 l 1,8,-1
 941 75 l 1,9,-1
 941 0 l 1,10,-1
 461 0 l 1,11,-1
 461 182 l 1,12,-1
 160 182 l 1,13,-1
 95 0 l 1,14,-1
 11 0 l 1,15,-1
 283 745 l 1,0,-1
461 257 m 1,16,-1
 461 670 l 1,17,-1
 333 670 l 1,18,-1
 186 257 l 1,19,-1
 461 257 l 1,16,-1
EndSplineSet
Validated: 1
Position2: "'cpsp' Capital Spacing in Latin lookup 0 subtable" dx=5 dy=0 dh=10 dv=0
EndChar

StartChar: B
Encoding: 66 66 30
Width: 693
GlyphClass: 2
Flags: W
AnchorPoint: "Anchor-6" 347 745 basechar 0
AnchorPoint: "Anchor-4" 347 0 basechar 0
LayerCount: 2
Fore
SplineSet
88 745 m 1,0,-1
 401 745 l 2,1,2
 495 745 495 745 551.5 693.5 c 128,-1,3
 608 642 608 642 608 558 c 0,4,5
 608 507 608 507 586 466.5 c 128,-1,6
 564 426 564 426 523 401 c 1,7,8
 577 373 577 373 607.5 324.5 c 128,-1,9
 638 276 638 276 638 217 c 0,10,11
 638 117 638 117 574.5 58.5 c 128,-1,12
 511 0 511 0 402 0 c 2,13,-1
 88 0 l 1,14,-1
 88 745 l 1,0,-1
402 75 m 2,15,16
 473 75 473 75 515.5 113 c 128,-1,17
 558 151 558 151 558 216 c 0,18,19
 558 280 558 280 515.5 319 c 128,-1,20
 473 358 473 358 402 358 c 2,21,-1
 168 358 l 1,22,-1
 168 75 l 1,23,-1
 402 75 l 2,15,16
395 430 m 2,24,25
 455 430 455 430 491.5 465 c 128,-1,26
 528 500 528 500 528 555 c 256,27,28
 528 610 528 610 492 640 c 128,-1,29
 456 670 456 670 395 670 c 2,30,-1
 168 670 l 1,31,-1
 168 430 l 1,32,-1
 395 430 l 2,24,25
EndSplineSet
Validated: 1
Position2: "'cpsp' Capital Spacing in Latin lookup 0 subtable" dx=5 dy=0 dh=10 dv=0
EndChar

StartChar: C
Encoding: 67 67 31
Width: 781
GlyphClass: 2
Flags: W
AnchorPoint: "Anchor-6" 391 745 basechar 0
AnchorPoint: "Anchor-4" 391 0 basechar 0
LayerCount: 2
Fore
SplineSet
241.5 37.5 m 128,-1,1
 159 87 159 87 112.5 174.5 c 128,-1,2
 66 262 66 262 66 372 c 256,3,4
 66 482 66 482 112.5 570 c 128,-1,5
 159 658 159 658 241.5 707.5 c 128,-1,6
 324 757 324 757 428 757 c 0,7,8
 500 757 500 757 561 730.5 c 128,-1,9
 622 704 622 704 664.5 661.5 c 128,-1,10
 707 619 707 619 726 571 c 1,11,-1
 651 538 l 1,12,13
 622 605 622 605 564 643.5 c 128,-1,14
 506 682 506 682 428 682 c 0,15,16
 346 682 346 682 282 643 c 128,-1,17
 218 604 218 604 182 533.5 c 128,-1,18
 146 463 146 463 146 372 c 256,19,20
 146 281 146 281 182 210.5 c 128,-1,21
 218 140 218 140 282 101.5 c 128,-1,22
 346 63 346 63 428 63 c 0,23,24
 506 63 506 63 564 101 c 128,-1,25
 622 139 622 139 651 206 c 1,26,-1
 726 173 l 1,27,28
 707 125 707 125 664.5 82.5 c 128,-1,29
 622 40 622 40 561 14 c 128,-1,30
 500 -12 500 -12 428 -12 c 0,31,0
 324 -12 324 -12 241.5 37.5 c 128,-1,1
EndSplineSet
Validated: 1
Position2: "'cpsp' Capital Spacing in Latin lookup 0 subtable" dx=5 dy=0 dh=10 dv=0
EndChar

StartChar: Ccedilla
Encoding: 199 199 34
Width: 781
GlyphClass: 2
Flags: W
AnchorPoint: "Anchor-4" 391 0 basechar 0
LayerCount: 2
Fore
SplineSet
415 -12 m 1,0,-1
 410 -62 l 1,1,2
 422 -60 422 -60 431 -60 c 0,3,4
 465 -60 465 -60 487.5 -80 c 128,-1,5
 510 -100 510 -100 510 -132 c 0,6,7
 510 -170 510 -170 481.5 -195 c 128,-1,8
 453 -220 453 -220 405 -220 c 0,9,10
 386 -220 386 -220 365 -216 c 128,-1,11
 344 -212 344 -212 330 -205 c 1,12,-1
 342 -163 l 1,13,14
 370 -174 370 -174 401 -174 c 0,15,16
 424 -174 424 -174 437 -163.5 c 128,-1,17
 450 -153 450 -153 450 -135 c 0,18,19
 450 -120 450 -120 440.5 -111 c 128,-1,20
 431 -102 431 -102 414 -102 c 0,21,22
 393 -102 393 -102 373 -112 c 1,23,-1
 353 -104 l 1,24,-1
 364 -7 l 1,25,26
 277 7 277 7 209 59 c 128,-1,27
 141 111 141 111 103.5 192 c 128,-1,28
 66 273 66 273 66 372 c 0,29,30
 66 482 66 482 112.5 570 c 128,-1,31
 159 658 159 658 241.5 707.5 c 128,-1,32
 324 757 324 757 428 757 c 0,33,34
 500 757 500 757 561 730.5 c 128,-1,35
 622 704 622 704 664.5 661.5 c 128,-1,36
 707 619 707 619 726 571 c 1,37,-1
 651 538 l 1,38,39
 622 605 622 605 564 643.5 c 128,-1,40
 506 682 506 682 428 682 c 0,41,42
 346 682 346 682 282 643 c 128,-1,43
 218 604 218 604 182 533.5 c 128,-1,44
 146 463 146 463 146 372 c 256,45,46
 146 281 146 281 182 210.5 c 128,-1,47
 218 140 218 140 282 101.5 c 128,-1,48
 346 63 346 63 428 63 c 0,49,50
 506 63 506 63 564 101 c 128,-1,51
 622 139 622 139 651 206 c 1,52,-1
 726 173 l 1,53,54
 707 125 707 125 664.5 82.5 c 128,-1,55
 622 40 622 40 561 14 c 128,-1,56
 500 -12 500 -12 428 -12 c 2,57,-1
 415 -12 l 1,0,-1
EndSplineSet
Validated: 1
Position2: "'cpsp' Capital Spacing in Latin lookup 0 subtable" dx=5 dy=0 dh=10 dv=0
EndChar

StartChar: uni1E08
Encoding: 7688 7688 35
Width: 781
GlyphClass: 2
Flags: W
AnchorPoint: "Anchor-4" 391 0 basechar 0
LayerCount: 2
Fore
SplineSet
415 -12 m 1,0,-1
 410 -62 l 1,1,2
 422 -60 422 -60 431 -60 c 0,3,4
 465 -60 465 -60 487.5 -80 c 128,-1,5
 510 -100 510 -100 510 -132 c 0,6,7
 510 -170 510 -170 481.5 -195 c 128,-1,8
 453 -220 453 -220 405 -220 c 0,9,10
 386 -220 386 -220 365 -216 c 128,-1,11
 344 -212 344 -212 330 -205 c 1,12,-1
 342 -163 l 1,13,14
 370 -174 370 -174 401 -174 c 0,15,16
 424 -174 424 -174 437 -163.5 c 128,-1,17
 450 -153 450 -153 450 -135 c 0,18,19
 450 -120 450 -120 440.5 -111 c 128,-1,20
 431 -102 431 -102 414 -102 c 0,21,22
 393 -102 393 -102 373 -112 c 1,23,-1
 353 -104 l 1,24,-1
 364 -7 l 1,25,26
 277 7 277 7 209 59 c 128,-1,27
 141 111 141 111 103.5 192 c 128,-1,28
 66 273 66 273 66 372 c 0,29,30
 66 482 66 482 112.5 570 c 128,-1,31
 159 658 159 658 241.5 707.5 c 128,-1,32
 324 757 324 757 428 757 c 0,33,34
 500 757 500 757 561 730.5 c 128,-1,35
 622 704 622 704 664.5 661.5 c 128,-1,36
 707 619 707 619 726 571 c 1,37,-1
 651 538 l 1,38,39
 622 605 622 605 564 643.5 c 128,-1,40
 506 682 506 682 428 682 c 0,41,42
 346 682 346 682 282 643 c 128,-1,43
 218 604 218 604 182 533.5 c 128,-1,44
 146 463 146 463 146 372 c 256,45,46
 146 281 146 281 182 210.5 c 128,-1,47
 218 140 218 140 282 101.5 c 128,-1,48
 346 63 346 63 428 63 c 0,49,50
 506 63 506 63 564 101 c 128,-1,51
 622 139 622 139 651 206 c 1,52,-1
 726 173 l 1,53,54
 707 125 707 125 664.5 82.5 c 128,-1,55
 622 40 622 40 561 14 c 128,-1,56
 500 -12 500 -12 428 -12 c 2,57,-1
 415 -12 l 1,0,-1
437 993 m 1,58,-1
 513 993 l 1,59,-1
 422 849 l 1,60,-1
 359 849 l 1,61,-1
 437 993 l 1,58,-1
EndSplineSet
Validated: 1
Position2: "'cpsp' Capital Spacing in Latin lookup 0 subtable" dx=5 dy=0 dh=10 dv=0
EndChar

StartChar: D
Encoding: 68 68 38
Width: 742
GlyphClass: 2
Flags: W
AnchorPoint: "Anchor-6" 382 745 basechar 0
AnchorPoint: "Anchor-4" 382 0 basechar 0
LayerCount: 2
Fore
SplineSet
88 745 m 1,0,-1
 333 745 l 2,1,2
 443 745 443 745 525.5 699.5 c 128,-1,3
 608 654 608 654 653 569.5 c 128,-1,4
 698 485 698 485 698 373 c 256,5,6
 698 261 698 261 653 176.5 c 128,-1,7
 608 92 608 92 525 46 c 128,-1,8
 442 0 442 0 333 0 c 2,9,-1
 88 0 l 1,10,-1
 88 745 l 1,0,-1
333 75 m 2,11,12
 418 75 418 75 481.5 111.5 c 128,-1,13
 545 148 545 148 579.5 215 c 128,-1,14
 614 282 614 282 614 373 c 0,15,16
 614 463 614 463 579.5 530 c 128,-1,17
 545 597 545 597 481 633.5 c 128,-1,18
 417 670 417 670 333 670 c 2,19,-1
 168 670 l 1,20,-1
 168 75 l 1,21,-1
 333 75 l 2,11,12
EndSplineSet
Validated: 1
Position2: "'cpsp' Capital Spacing in Latin lookup 0 subtable" dx=5 dy=0 dh=10 dv=0
EndChar

StartChar: uni01C4
Encoding: 452 452 39
Width: 1326
GlyphClass: 1
Flags: W
LayerCount: 2
Fore
SplineSet
88 745 m 1,0,-1
 333 745 l 2,1,2
 443 745 443 745 525.5 699.5 c 128,-1,3
 608 654 608 654 653 569.5 c 128,-1,4
 698 485 698 485 698 373 c 256,5,6
 698 261 698 261 653 176.5 c 128,-1,7
 608 92 608 92 525 46 c 128,-1,8
 442 0 442 0 333 0 c 2,9,-1
 88 0 l 1,10,-1
 88 745 l 1,0,-1
333 75 m 2,11,12
 418 75 418 75 481.5 111.5 c 128,-1,13
 545 148 545 148 579.5 215 c 128,-1,14
 614 282 614 282 614 373 c 0,15,16
 614 463 614 463 579.5 530 c 128,-1,17
 545 597 545 597 481 633.5 c 128,-1,18
 417 670 417 670 333 670 c 2,19,-1
 168 670 l 1,20,-1
 168 75 l 1,21,-1
 333 75 l 2,11,12
764 54 m 1,22,-1
 1190 670 l 1,23,-1
 789 670 l 1,24,-1
 789 745 l 1,25,-1
 1295 745 l 1,26,-1
 1295 691 l 1,27,-1
 870 75 l 1,28,-1
 1304 75 l 1,29,-1
 1304 0 l 1,30,-1
 764 0 l 1,31,-1
 764 54 l 1,22,-1
952 993 m 1,32,-1
 1033 890 l 1,33,-1
 1116 993 l 1,34,-1
 1184 993 l 1,35,-1
 1070 849 l 1,36,-1
 996 849 l 1,37,-1
 884 993 l 1,38,-1
 952 993 l 1,32,-1
EndSplineSet
Validated: 1
Position2: "'cpsp' Capital Spacing in Latin lookup 0 subtable" dx=5 dy=0 dh=10 dv=0
EndChar

StartChar: Eth
Encoding: 208 208 40
Width: 742
GlyphClass: 2
Flags: W
AnchorPoint: "Anchor-6" 382 745 basechar 0
AnchorPoint: "Anchor-4" 382 0 basechar 0
LayerCount: 2
Fore
SplineSet
88 340 m 1,0,-1
 3 340 l 1,1,-1
 3 405 l 1,2,-1
 88 405 l 1,3,-1
 88 745 l 1,4,-1
 333 745 l 2,5,6
 443 745 443 745 525.5 699.5 c 128,-1,7
 608 654 608 654 653 569.5 c 128,-1,8
 698 485 698 485 698 373 c 256,9,10
 698 261 698 261 653 176.5 c 128,-1,11
 608 92 608 92 525 46 c 128,-1,12
 442 0 442 0 333 0 c 2,13,-1
 88 0 l 1,14,-1
 88 340 l 1,0,-1
333 75 m 2,15,16
 418 75 418 75 481.5 111.5 c 128,-1,17
 545 148 545 148 579.5 215 c 128,-1,18
 614 282 614 282 614 373 c 0,19,20
 614 463 614 463 579.5 530 c 128,-1,21
 545 597 545 597 481 633.5 c 128,-1,22
 417 670 417 670 333 670 c 2,23,-1
 168 670 l 1,24,-1
 168 405 l 1,25,-1
 353 405 l 1,26,-1
 353 340 l 1,27,-1
 168 340 l 1,28,-1
 168 75 l 1,29,-1
 333 75 l 2,15,16
EndSplineSet
Validated: 1
Position2: "'cpsp' Capital Spacing in Latin lookup 0 subtable" dx=5 dy=0 dh=10 dv=0
EndChar

StartChar: uni01C5
Encoding: 453 453 45
Width: 1191
GlyphClass: 1
Flags: W
LayerCount: 2
Fore
SplineSet
88 745 m 1,0,-1
 333 745 l 2,1,2
 443 745 443 745 525.5 699.5 c 128,-1,3
 608 654 608 654 653 569.5 c 128,-1,4
 698 485 698 485 698 373 c 256,5,6
 698 261 698 261 653 176.5 c 128,-1,7
 608 92 608 92 525 46 c 128,-1,8
 442 0 442 0 333 0 c 2,9,-1
 88 0 l 1,10,-1
 88 745 l 1,0,-1
333 75 m 2,11,12
 418 75 418 75 481.5 111.5 c 128,-1,13
 545 148 545 148 579.5 215 c 128,-1,14
 614 282 614 282 614 373 c 0,15,16
 614 463 614 463 579.5 530 c 128,-1,17
 545 597 545 597 481 633.5 c 128,-1,18
 417 670 417 670 333 670 c 2,19,-1
 168 670 l 1,20,-1
 168 75 l 1,21,-1
 333 75 l 2,11,12
764 65 m 1,22,-1
 1065 461 l 1,23,-1
 781 461 l 1,24,-1
 781 536 l 1,25,-1
 1167 536 l 1,26,-1
 1167 471 l 1,27,-1
 867 75 l 1,28,-1
 1169 75 l 1,29,-1
 1169 0 l 1,30,-1
 764 0 l 1,31,-1
 764 65 l 1,22,-1
879 784 m 1,32,-1
 960 681 l 1,33,-1
 1043 784 l 1,34,-1
 1111 784 l 1,35,-1
 997 640 l 1,36,-1
 923 640 l 1,37,-1
 811 784 l 1,38,-1
 879 784 l 1,32,-1
EndSplineSet
Validated: 1
Position2: "'cpsp' Capital Spacing in Latin lookup 0 subtable" dx=5 dy=0 dh=10 dv=0
EndChar

StartChar: E
Encoding: 69 69 46
Width: 612
GlyphClass: 2
Flags: W
AnchorPoint: "Anchor-6" 328 745 basechar 0
AnchorPoint: "Anchor-5" 528 30 basechar 0
AnchorPoint: "Anchor-4" 328 0 basechar 0
LayerCount: 2
Fore
SplineSet
88 745 m 1,0,-1
 568 745 l 1,1,-1
 568 670 l 1,2,-1
 168 670 l 1,3,-1
 168 411 l 1,4,-1
 548 411 l 1,5,-1
 548 336 l 1,6,-1
 168 336 l 1,7,-1
 168 75 l 1,8,-1
 568 75 l 1,9,-1
 568 0 l 1,10,-1
 88 0 l 1,11,-1
 88 745 l 1,0,-1
EndSplineSet
Validated: 1
Position2: "'cpsp' Capital Spacing in Latin lookup 0 subtable" dx=5 dy=0 dh=10 dv=0
EndChar

StartChar: Eogonek
Encoding: 280 280 67
Width: 612
GlyphClass: 2
Flags: W
AnchorPoint: "Anchor-6" 328 745 basechar 0
AnchorPoint: "Anchor-5" 528 30 basechar 0
AnchorPoint: "Anchor-4" 328 0 basechar 0
LayerCount: 2
Fore
SplineSet
88 745 m 1,0,-1
 568 745 l 1,1,-1
 568 670 l 1,2,-1
 168 670 l 1,3,-1
 168 411 l 1,4,-1
 548 411 l 1,5,-1
 548 336 l 1,6,-1
 168 336 l 1,7,-1
 168 75 l 1,8,-1
 568 75 l 1,9,-1
 568 0 l 1,10,-1
 513 0 l 1,11,12
 460 -31 460 -31 460 -75 c 0,13,14
 460 -97 460 -97 473.5 -109.5 c 128,-1,15
 487 -122 487 -122 511 -122 c 0,16,17
 544 -122 544 -122 581 -95 c 1,18,-1
 606 -132 l 1,19,20
 562 -170 562 -170 507 -170 c 0,21,22
 464 -170 464 -170 436 -147 c 128,-1,23
 408 -124 408 -124 408 -86 c 0,24,25
 408 -35 408 -35 455 0 c 1,26,-1
 88 0 l 1,27,-1
 88 745 l 1,0,-1
EndSplineSet
Validated: 1
Position2: "'cpsp' Capital Spacing in Latin lookup 0 subtable" dx=5 dy=0 dh=10 dv=0
EndChar

StartChar: F
Encoding: 70 70 69
Width: 581
GlyphClass: 2
Flags: W
AnchorPoint: "Anchor-6" 291 745 basechar 0
AnchorPoint: "Anchor-4" 291 0 basechar 0
LayerCount: 2
Fore
SplineSet
88 745 m 1,0,-1
 548 745 l 1,1,-1
 548 670 l 1,2,-1
 168 670 l 1,3,-1
 168 411 l 1,4,-1
 518 411 l 1,5,-1
 518 336 l 1,6,-1
 168 336 l 1,7,-1
 168 0 l 1,8,-1
 88 0 l 1,9,-1
 88 745 l 1,0,-1
EndSplineSet
Validated: 1
Position2: "'cpsp' Capital Spacing in Latin lookup 0 subtable" dx=5 dy=0 dh=10 dv=0
EndChar

StartChar: G
Encoding: 71 71 70
Width: 821
GlyphClass: 2
Flags: W
AnchorPoint: "Anchor-6" 411 745 basechar 0
AnchorPoint: "Anchor-4" 411 0 basechar 0
LayerCount: 2
Fore
SplineSet
241.5 37.5 m 128,-1,1
 159 87 159 87 112.5 174.5 c 128,-1,2
 66 262 66 262 66 372 c 256,3,4
 66 482 66 482 112.5 570 c 128,-1,5
 159 658 159 658 241.5 707.5 c 128,-1,6
 324 757 324 757 428 757 c 0,7,8
 500 757 500 757 561 730.5 c 128,-1,9
 622 704 622 704 664.5 661.5 c 128,-1,10
 707 619 707 619 726 571 c 1,11,-1
 654 536 l 1,12,13
 626 605 626 605 567.5 643.5 c 128,-1,14
 509 682 509 682 428 682 c 0,15,16
 346 682 346 682 282 643 c 128,-1,17
 218 604 218 604 182 533.5 c 128,-1,18
 146 463 146 463 146 372 c 256,19,20
 146 281 146 281 182 210.5 c 128,-1,21
 218 140 218 140 282 101.5 c 128,-1,22
 346 63 346 63 428 63 c 0,23,24
 500 63 500 63 559 95 c 128,-1,25
 618 127 618 127 652 183 c 128,-1,26
 686 239 686 239 686 310 c 2,27,-1
 686 315 l 1,28,-1
 428 315 l 1,29,-1
 428 385 l 1,30,-1
 766 385 l 1,31,-1
 766 323 l 2,32,33
 766 227 766 227 721 150.5 c 128,-1,34
 676 74 676 74 599 31 c 128,-1,35
 522 -12 522 -12 428 -12 c 0,36,0
 324 -12 324 -12 241.5 37.5 c 128,-1,1
EndSplineSet
Validated: 1
Substitution2: "'ss03' Style Set 3 in Latin lookup 22 subtable" G.ss03
Substitution2: "'ss01' Style Set 1 in Latin lookup 20 subtable" G.ss01
Substitution2: "'salt' Stylistic Alternatives in Latin lookup 19 subtable" G.ss01
AlternateSubs2: "'aalt' Access All Alternates in Latin lookup 1 subtable" G.ss01 G.ss03
Position2: "'cpsp' Capital Spacing in Latin lookup 0 subtable" dx=5 dy=0 dh=10 dv=0
EndChar

StartChar: G.ss01
Encoding: 65537 -1 71
Width: 796
GlyphClass: 2
Flags: W
AnchorPoint: "Anchor-6" 418 745 basechar 0
AnchorPoint: "Anchor-4" 398 0 basechar 0
LayerCount: 2
Fore
SplineSet
231.5 37.5 m 128,-1,1
 149 87 149 87 102.5 174.5 c 128,-1,2
 56 262 56 262 56 372 c 256,3,4
 56 482 56 482 102.5 570 c 128,-1,5
 149 658 149 658 231.5 707.5 c 128,-1,6
 314 757 314 757 418 757 c 0,7,8
 490 757 490 757 551 730.5 c 128,-1,9
 612 704 612 704 654.5 661.5 c 128,-1,10
 697 619 697 619 716 571 c 1,11,-1
 644 536 l 1,12,13
 616 605 616 605 557.5 643.5 c 128,-1,14
 499 682 499 682 418 682 c 0,15,16
 336 682 336 682 272 643 c 128,-1,17
 208 604 208 604 172 533.5 c 128,-1,18
 136 463 136 463 136 372 c 256,19,20
 136 281 136 281 172 210.5 c 128,-1,21
 208 140 208 140 272 101.5 c 128,-1,22
 336 63 336 63 418 63 c 0,23,24
 490 63 490 63 549 95 c 128,-1,25
 608 127 608 127 642 183 c 128,-1,26
 676 239 676 239 676 310 c 2,27,-1
 676 315 l 1,28,-1
 418 315 l 1,29,-1
 418 385 l 1,30,-1
 746 385 l 1,31,-1
 746 0 l 1,32,-1
 676 0 l 1,33,-1
 676 114 l 1,34,35
 633 55 633 55 565 21.5 c 128,-1,36
 497 -12 497 -12 418 -12 c 0,37,0
 314 -12 314 -12 231.5 37.5 c 128,-1,1
EndSplineSet
Validated: 1
Position2: "'cpsp' Capital Spacing in Latin lookup 0 subtable" dx=5 dy=0 dh=10 dv=0
EndChar

StartChar: G.ss03
Encoding: 65538 -1 72
Width: 797
GlyphClass: 2
Flags: W
AnchorPoint: "Anchor-6" 425 745 basechar 0
AnchorPoint: "Anchor-4" 399 0 basechar 0
LayerCount: 2
Fore
SplineSet
247 36.5 m 128,-1,1
 163 85 163 85 114.5 172.5 c 128,-1,2
 66 260 66 260 66 373 c 0,3,4
 66 484 66 484 113.5 571.5 c 128,-1,5
 161 659 161 659 243 708 c 128,-1,6
 325 757 325 757 425 757 c 0,7,8
 499 757 499 757 560.5 731 c 128,-1,9
 622 705 622 705 664.5 662.5 c 128,-1,10
 707 620 707 620 726 571 c 1,11,-1
 654 536 l 1,12,13
 626 605 626 605 567.5 643.5 c 128,-1,14
 509 682 509 682 428 682 c 0,15,16
 346 682 346 682 282 643 c 128,-1,17
 218 604 218 604 182 533.5 c 128,-1,18
 146 463 146 463 146 372 c 0,19,20
 146 278 146 278 184.5 208 c 128,-1,21
 223 138 223 138 288.5 100.5 c 128,-1,22
 354 63 354 63 434 63 c 0,23,24
 515 63 515 63 579.5 97 c 128,-1,25
 644 131 644 131 681 190 c 1,26,-1
 681 315 l 1,27,-1
 428 315 l 1,28,-1
 428 385 l 1,29,-1
 756 385 l 1,30,-1
 756 167 l 1,31,32
 711 84 711 84 625.5 36 c 128,-1,33
 540 -12 540 -12 434 -12 c 0,34,0
 331 -12 331 -12 247 36.5 c 128,-1,1
EndSplineSet
Validated: 1
Position2: "'cpsp' Capital Spacing in Latin lookup 0 subtable" dx=5 dy=0 dh=10 dv=0
EndChar

StartChar: H
Encoding: 72 72 91
Width: 736
GlyphClass: 2
Flags: W
AnchorPoint: "Anchor-6" 368 745 basechar 0
AnchorPoint: "Anchor-4" 368 0 basechar 0
LayerCount: 2
Fore
SplineSet
88 745 m 1,0,-1
 168 745 l 1,1,-1
 168 410 l 1,2,-1
 568 410 l 1,3,-1
 568 745 l 1,4,-1
 648 745 l 1,5,-1
 648 0 l 1,6,-1
 568 0 l 1,7,-1
 568 335 l 1,8,-1
 168 335 l 1,9,-1
 168 0 l 1,10,-1
 88 0 l 1,11,-1
 88 745 l 1,0,-1
EndSplineSet
Validated: 1
Position2: "'cpsp' Capital Spacing in Latin lookup 0 subtable" dx=5 dy=0 dh=10 dv=0
EndChar

StartChar: Hbar
Encoding: 294 294 92
Width: 736
GlyphClass: 2
Flags: W
AnchorPoint: "Anchor-6" 368 745 basechar 0
AnchorPoint: "Anchor-4" 368 0 basechar 0
LayerCount: 2
Fore
SplineSet
88 563 m 1,0,-1
 18 563 l 1,1,-1
 18 628 l 1,2,-1
 88 628 l 1,3,-1
 88 745 l 1,4,-1
 168 745 l 1,5,-1
 168 628 l 1,6,-1
 568 628 l 1,7,-1
 568 745 l 1,8,-1
 648 745 l 1,9,-1
 648 628 l 1,10,-1
 718 628 l 1,11,-1
 718 563 l 1,12,-1
 648 563 l 1,13,-1
 648 0 l 1,14,-1
 568 0 l 1,15,-1
 568 335 l 1,16,-1
 168 335 l 1,17,-1
 168 0 l 1,18,-1
 88 0 l 1,19,-1
 88 563 l 1,0,-1
568 410 m 1,20,-1
 568 563 l 1,21,-1
 168 563 l 1,22,-1
 168 410 l 1,23,-1
 568 410 l 1,20,-1
EndSplineSet
Validated: 1
Position2: "'cpsp' Capital Spacing in Latin lookup 0 subtable" dx=5 dy=0 dh=10 dv=0
EndChar

StartChar: I
Encoding: 73 73 96
Width: 256
GlyphClass: 2
Flags: W
AnchorPoint: "Anchor-6" 128 745 basechar 0
AnchorPoint: "Anchor-5" 128 30 basechar 0
AnchorPoint: "Anchor-4" 128 0 basechar 0
LayerCount: 2
Fore
SplineSet
88 745 m 1,0,-1
 168 745 l 1,1,-1
 168 0 l 1,2,-1
 88 0 l 1,3,-1
 88 745 l 1,0,-1
EndSplineSet
Validated: 1
Substitution2: "'ss01' Style Set 1 in Latin lookup 20 subtable" I.ss01
Substitution2: "'salt' Stylistic Alternatives in Latin lookup 19 subtable" I.ss01
Substitution2: "'aalt' Access All Alternates in Latin lookup 0 subtable" I.ss01
Position2: "'cpsp' Capital Spacing in Latin lookup 0 subtable" dx=5 dy=0 dh=10 dv=0
EndChar

StartChar: I.ss01
Encoding: 65551 -1 97
Width: 364
GlyphClass: 2
Flags: W
AnchorPoint: "Anchor-6" 182 745 basechar 0
AnchorPoint: "Anchor-5" 182 30 basechar 0
AnchorPoint: "Anchor-4" 182 0 basechar 0
LayerCount: 2
Fore
SplineSet
42 70 m 1,0,-1
 142 70 l 1,1,-1
 142 675 l 1,2,-1
 42 675 l 1,3,-1
 42 745 l 1,4,-1
 322 745 l 1,5,-1
 322 675 l 1,6,-1
 222 675 l 1,7,-1
 222 70 l 1,8,-1
 322 70 l 1,9,-1
 322 0 l 1,10,-1
 42 0 l 1,11,-1
 42 70 l 1,0,-1
EndSplineSet
Validated: 1
Position2: "'cpsp' Capital Spacing in Latin lookup 0 subtable" dx=5 dy=0 dh=10 dv=0
EndChar

StartChar: Iogonek
Encoding: 302 302 122
Width: 256
GlyphClass: 2
Flags: W
AnchorPoint: "Anchor-6" 128 745 basechar 0
AnchorPoint: "Anchor-5" 128 30 basechar 0
AnchorPoint: "Anchor-4" 128 0 basechar 0
LayerCount: 2
Fore
SplineSet
36 -147 m 128,-1,1
 8 -124 8 -124 8 -86 c 0,2,3
 8 -54 8 -54 28.5 -26.5 c 128,-1,4
 49 1 49 1 88 20 c 1,5,-1
 88 745 l 1,6,-1
 168 745 l 1,7,-1
 168 0 l 1,8,-1
 113 0 l 1,9,10
 60 -31 60 -31 60 -75 c 0,11,12
 60 -97 60 -97 73.5 -109.5 c 128,-1,13
 87 -122 87 -122 111 -122 c 0,14,15
 144 -122 144 -122 181 -95 c 1,16,-1
 206 -132 l 1,17,18
 162 -170 162 -170 107 -170 c 0,19,0
 64 -170 64 -170 36 -147 c 128,-1,1
EndSplineSet
Validated: 1
Substitution2: "'ss01' Style Set 1 in Latin lookup 20 subtable" Iogonek.ss01
Substitution2: "'salt' Stylistic Alternatives in Latin lookup 19 subtable" Iogonek.ss01
Substitution2: "'aalt' Access All Alternates in Latin lookup 0 subtable" Iogonek.ss01
Position2: "'cpsp' Capital Spacing in Latin lookup 0 subtable" dx=5 dy=0 dh=10 dv=0
EndChar

StartChar: Iogonek.ss01
Encoding: 65564 -1 123
Width: 364
GlyphClass: 2
Flags: W
AnchorPoint: "Anchor-6" 182 745 basechar 0
AnchorPoint: "Anchor-5" 182 30 basechar 0
AnchorPoint: "Anchor-4" 182 0 basechar 0
LayerCount: 2
Fore
SplineSet
42 70 m 1,0,-1
 142 70 l 1,1,-1
 142 675 l 1,2,-1
 42 675 l 1,3,-1
 42 745 l 1,4,-1
 322 745 l 1,5,-1
 322 675 l 1,6,-1
 222 675 l 1,7,-1
 222 70 l 1,8,-1
 322 70 l 1,9,-1
 322 0 l 1,10,-1
 167 0 l 1,11,12
 114 -31 114 -31 114 -75 c 0,13,14
 114 -97 114 -97 127.5 -109.5 c 128,-1,15
 141 -122 141 -122 165 -122 c 0,16,17
 198 -122 198 -122 235 -95 c 1,18,-1
 260 -132 l 1,19,20
 216 -170 216 -170 161 -170 c 0,21,22
 118 -170 118 -170 90 -147 c 128,-1,23
 62 -124 62 -124 62 -86 c 0,24,25
 62 -35 62 -35 109 0 c 1,26,-1
 42 0 l 1,27,-1
 42 70 l 1,0,-1
EndSplineSet
Validated: 1
Position2: "'cpsp' Capital Spacing in Latin lookup 0 subtable" dx=5 dy=0 dh=10 dv=0
EndChar

StartChar: J
Encoding: 74 74 126
Width: 383
GlyphClass: 2
Flags: W
AnchorPoint: "Anchor-6" 255 745 basechar 0
AnchorPoint: "Anchor-4" 203 0 basechar 0
LayerCount: 2
Fore
SplineSet
55 80 m 1,0,-1
 95 80 l 2,1,2
 150 80 150 80 182.5 113.5 c 128,-1,3
 215 147 215 147 215 205 c 2,4,-1
 215 745 l 1,5,-1
 295 745 l 1,6,-1
 295 205 l 2,7,8
 295 111 295 111 241 55.5 c 128,-1,9
 187 0 187 0 95 0 c 2,10,-1
 55 0 l 1,11,-1
 55 80 l 1,0,-1
EndSplineSet
Validated: 1
Substitution2: "'ss03' Style Set 3 in Latin lookup 22 subtable" J.ss03
Substitution2: "'aalt' Access All Alternates in Latin lookup 0 subtable" J.ss03
Position2: "'cpsp' Capital Spacing in Latin lookup 0 subtable" dx=5 dy=0 dh=10 dv=0
EndChar

StartChar: J.ss03
Encoding: 65566 -1 127
Width: 578
GlyphClass: 2
Flags: W
AnchorPoint: "Anchor-6" 450 745 basechar 0
AnchorPoint: "Anchor-4" 295 0 basechar 0
LayerCount: 2
Fore
SplineSet
127.5 36 m 128,-1,1
 65 84 65 84 45 163 c 1,2,-1
 119 185 l 1,3,4
 136 128 136 128 178.5 95.5 c 128,-1,5
 221 63 221 63 277 63 c 0,6,7
 338 63 338 63 374 99.5 c 128,-1,8
 410 136 410 136 410 195 c 2,9,-1
 410 745 l 1,10,-1
 490 745 l 1,11,-1
 490 195 l 2,12,13
 490 136 490 136 464 89 c 128,-1,14
 438 42 438 42 390 15 c 128,-1,15
 342 -12 342 -12 277 -12 c 0,16,0
 190 -12 190 -12 127.5 36 c 128,-1,1
EndSplineSet
Validated: 1
Position2: "'cpsp' Capital Spacing in Latin lookup 0 subtable" dx=5 dy=0 dh=10 dv=0
EndChar

StartChar: K
Encoding: 75 75 130
Width: 654
GlyphClass: 2
Flags: W
AnchorPoint: "Anchor-6" 327 745 basechar 0
AnchorPoint: "Anchor-4" 327 0 basechar 0
LayerCount: 2
Fore
SplineSet
88 745 m 1,0,-1
 168 745 l 1,1,-1
 168 339 l 1,2,-1
 525 745 l 1,3,-1
 625 745 l 1,4,-1
 348 430 l 1,5,-1
 643 0 l 1,6,-1
 547 0 l 1,7,-1
 293 367 l 1,8,-1
 168 225 l 1,9,-1
 168 0 l 1,10,-1
 88 0 l 1,11,-1
 88 745 l 1,0,-1
EndSplineSet
Validated: 1
Substitution2: "'ss03' Style Set 3 in Latin lookup 22 subtable" K.ss03
Substitution2: "'ss01' Style Set 1 in Latin lookup 20 subtable" K.ss01
Substitution2: "'salt' Stylistic Alternatives in Latin lookup 19 subtable" K.ss01
AlternateSubs2: "'aalt' Access All Alternates in Latin lookup 1 subtable" K.ss01 K.ss03
Position2: "'cpsp' Capital Spacing in Latin lookup 0 subtable" dx=5 dy=0 dh=10 dv=0
EndChar

StartChar: K.ss01
Encoding: 65568 -1 131
Width: 651
GlyphClass: 2
Flags: W
AnchorPoint: "Anchor-6" 326 745 basechar 0
AnchorPoint: "Anchor-4" 326 0 basechar 0
LayerCount: 2
Fore
SplineSet
291 335 m 1,0,-1
 160 335 l 1,1,-1
 160 0 l 1,2,-1
 80 0 l 1,3,-1
 80 745 l 1,4,-1
 160 745 l 1,5,-1
 160 410 l 1,6,-1
 292 410 l 1,7,-1
 507 745 l 1,8,-1
 603 745 l 1,9,-1
 364 374 l 1,10,-1
 640 0 l 1,11,-1
 543 0 l 1,12,-1
 291 335 l 1,0,-1
EndSplineSet
Validated: 1
Position2: "'cpsp' Capital Spacing in Latin lookup 0 subtable" dx=5 dy=0 dh=10 dv=0
EndChar

StartChar: K.ss03
Encoding: 65569 -1 132
Width: 684
GlyphClass: 2
Flags: W
AnchorPoint: "Anchor-6" 342 745 basechar 0
AnchorPoint: "Anchor-4" 342 0 basechar 0
LayerCount: 2
Fore
SplineSet
587.5 3.5 m 128,-1,1
 559 13 559 13 527.5 44 c 128,-1,2
 496 75 496 75 450 142 c 2,3,-1
 294 368 l 1,4,-1
 168 225 l 1,5,-1
 168 0 l 1,6,-1
 88 0 l 1,7,-1
 88 745 l 1,8,-1
 168 745 l 1,9,-1
 168 339 l 1,10,-1
 525 745 l 1,11,-1
 625 745 l 1,12,-1
 348 431 l 1,13,-1
 543 147 l 2,14,15
 575 100 575 100 598 82 c 128,-1,16
 621 64 621 64 660 64 c 2,17,-1
 673 64 l 1,18,-1
 673 -6 l 1,19,-1
 660 -6 l 2,20,0
 616 -6 616 -6 587.5 3.5 c 128,-1,1
EndSplineSet
Validated: 1
Position2: "'cpsp' Capital Spacing in Latin lookup 0 subtable" dx=5 dy=0 dh=10 dv=0
EndChar

StartChar: L
Encoding: 76 76 136
Width: 531
GlyphClass: 2
Flags: W
AnchorPoint: "Anchor-7" 383 497 basechar 0
AnchorPoint: "Anchor-6" 128 745 basechar 0
AnchorPoint: "Anchor-4" 293 0 basechar 0
LayerCount: 2
Fore
SplineSet
88 745 m 1,0,-1
 168 745 l 1,1,-1
 168 75 l 1,2,-1
 498 75 l 1,3,-1
 498 0 l 1,4,-1
 88 0 l 1,5,-1
 88 745 l 1,0,-1
EndSplineSet
Validated: 1
Position2: "'cpsp' Capital Spacing in Latin lookup 0 subtable" dx=5 dy=0 dh=10 dv=0
EndChar

StartChar: Ldot
Encoding: 319 319 141
Width: 531
GlyphClass: 2
Flags: W
AnchorPoint: "Anchor-7" 383 497 basechar 0
AnchorPoint: "Anchor-6" 128 745 basechar 0
AnchorPoint: "Anchor-4" 293 0 basechar 0
LayerCount: 2
Fore
SplineSet
88 745 m 1,0,-1
 168 745 l 1,1,-1
 168 75 l 1,2,-1
 498 75 l 1,3,-1
 498 0 l 1,4,-1
 88 0 l 1,5,-1
 88 745 l 1,0,-1
292.5 413.5 m 128,-1,7
 309 430 309 430 334 430 c 0,8,9
 358 430 358 430 374.5 413.5 c 128,-1,10
 391 397 391 397 391 373 c 0,11,12
 391 348 391 348 374.5 331.5 c 128,-1,13
 358 315 358 315 334 315 c 0,14,15
 309 315 309 315 292.5 331.5 c 128,-1,16
 276 348 276 348 276 373 c 0,17,6
 276 397 276 397 292.5 413.5 c 128,-1,7
EndSplineSet
Validated: 1
Position2: "'cpsp' Capital Spacing in Latin lookup 0 subtable" dx=5 dy=0 dh=10 dv=0
EndChar

StartChar: Lslash
Encoding: 321 321 145
Width: 531
GlyphClass: 2
Flags: W
AnchorPoint: "Anchor-7" 383 497 basechar 0
AnchorPoint: "Anchor-6" 128 745 basechar 0
AnchorPoint: "Anchor-4" 293 0 basechar 0
LayerCount: 2
Fore
SplineSet
88 325 m 1,0,-1
 -22 288 l 1,1,-1
 -22 358 l 1,2,-1
 88 395 l 1,3,-1
 88 745 l 1,4,-1
 168 745 l 1,5,-1
 168 421 l 1,6,-1
 278 458 l 1,7,-1
 278 388 l 1,8,-1
 168 351 l 1,9,-1
 168 75 l 1,10,-1
 498 75 l 1,11,-1
 498 0 l 1,12,-1
 88 0 l 1,13,-1
 88 325 l 1,0,-1
EndSplineSet
Validated: 1
Position2: "'cpsp' Capital Spacing in Latin lookup 0 subtable" dx=5 dy=0 dh=10 dv=0
EndChar

StartChar: M
Encoding: 77 77 146
Width: 836
GlyphClass: 2
Flags: W
AnchorPoint: "Anchor-6" 418 745 basechar 0
AnchorPoint: "Anchor-4" 418 0 basechar 0
LayerCount: 2
Fore
SplineSet
88 745 m 1,0,-1
 158 745 l 1,1,-1
 418 367 l 1,2,-1
 678 745 l 1,3,-1
 748 745 l 1,4,-1
 748 0 l 1,5,-1
 668 0 l 1,6,-1
 668 589 l 1,7,-1
 420 230 l 1,8,-1
 416 230 l 1,9,-1
 168 591 l 1,10,-1
 168 0 l 1,11,-1
 88 0 l 1,12,-1
 88 745 l 1,0,-1
EndSplineSet
Validated: 1
Position2: "'cpsp' Capital Spacing in Latin lookup 0 subtable" dx=5 dy=0 dh=10 dv=0
EndChar

StartChar: N
Encoding: 78 78 148
Width: 736
GlyphClass: 2
Flags: W
AnchorPoint: "Anchor-6" 368 745 basechar 0
AnchorPoint: "Anchor-4" 368 0 basechar 0
LayerCount: 2
Fore
SplineSet
88 745 m 1,0,-1
 158 745 l 1,1,-1
 568 157 l 1,2,-1
 568 745 l 1,3,-1
 648 745 l 1,4,-1
 648 0 l 1,5,-1
 578 0 l 1,6,-1
 168 592 l 1,7,-1
 168 0 l 1,8,-1
 88 0 l 1,9,-1
 88 745 l 1,0,-1
EndSplineSet
Validated: 1
Position2: "'cpsp' Capital Spacing in Latin lookup 0 subtable" dx=5 dy=0 dh=10 dv=0
EndChar

StartChar: Eng
Encoding: 330 330 158
Width: 736
GlyphClass: 1
Flags: W
LayerCount: 2
Fore
SplineSet
433 -216 m 1,1,-1
 433 -142 l 1,2,3
 454 -145 454 -145 475 -145 c 0,4,5
 518 -145 518 -145 543 -121.5 c 128,-1,6
 568 -98 568 -98 568 -50 c 2,7,-1
 568 12 l 1,8,-1
 168 593 l 1,9,-1
 168 0 l 1,10,-1
 88 0 l 1,11,-1
 88 745 l 1,12,-1
 158 745 l 1,13,-1
 568 157 l 1,14,-1
 568 745 l 1,15,-1
 648 745 l 1,16,-1
 648 -50 l 2,17,18
 648 -130 648 -130 598 -175 c 128,-1,19
 548 -220 548 -220 473 -220 c 0,20,0
 446 -220 446 -220 433 -216 c 1,1,-1
EndSplineSet
Validated: 1
Position2: "'cpsp' Capital Spacing in Latin lookup 0 subtable" dx=5 dy=0 dh=10 dv=0
EndChar

StartChar: O
Encoding: 79 79 159
Width: 878
GlyphClass: 2
Flags: W
AnchorPoint: "Anchor-7" 858 745 basechar 0
AnchorPoint: "Anchor-6" 439 745 basechar 0
AnchorPoint: "Anchor-5" 489 30 basechar 0
AnchorPoint: "Anchor-4" 439 0 basechar 0
LayerCount: 2
Fore
SplineSet
250.5 37.5 m 128,-1,1
 165 87 165 87 115.5 175 c 128,-1,2
 66 263 66 263 66 373 c 256,3,4
 66 483 66 483 115.5 570.5 c 128,-1,5
 165 658 165 658 250.5 707.5 c 128,-1,6
 336 757 336 757 439 757 c 256,7,8
 542 757 542 757 627 707.5 c 128,-1,9
 712 658 712 658 762 570 c 128,-1,10
 812 482 812 482 812 373 c 0,11,12
 812 263 812 263 762.5 175 c 128,-1,13
 713 87 713 87 627.5 37.5 c 128,-1,14
 542 -12 542 -12 439 -12 c 256,15,0
 336 -12 336 -12 250.5 37.5 c 128,-1,1
183.5 217 m 128,-1,17
 221 146 221 146 288 104.5 c 128,-1,18
 355 63 355 63 439 63 c 256,19,20
 523 63 523 63 590 104.5 c 128,-1,21
 657 146 657 146 694.5 217 c 128,-1,22
 732 288 732 288 732 373 c 0,23,24
 732 457 732 457 694.5 528 c 128,-1,25
 657 599 657 599 590 640.5 c 128,-1,26
 523 682 523 682 439 682 c 256,27,28
 355 682 355 682 288 640.5 c 128,-1,29
 221 599 221 599 183.5 528 c 128,-1,30
 146 457 146 457 146 373 c 0,31,16
 146 288 146 288 183.5 217 c 128,-1,17
EndSplineSet
Validated: 1
Substitution2: "Single Substitution lookup 28 subtable" ordmasculine
Substitution2: "'aalt' Access All Alternates in Latin lookup 0 subtable" ordmasculine
Position2: "'cpsp' Capital Spacing in Latin lookup 0 subtable" dx=5 dy=0 dh=10 dv=0
EndChar

StartChar: Ohorn
Encoding: 416 416 175
Width: 878
GlyphClass: 2
Flags: W
AnchorPoint: "Anchor-6" 439 745 basechar 0
AnchorPoint: "Anchor-4" 439 0 basechar 0
LayerCount: 2
Fore
SplineSet
250.5 37.5 m 128,-1,1
 165 87 165 87 115.5 175 c 128,-1,2
 66 263 66 263 66 373 c 256,3,4
 66 483 66 483 115.5 570.5 c 128,-1,5
 165 658 165 658 250.5 707.5 c 128,-1,6
 336 757 336 757 439 757 c 2,7,-1
 652 757 l 2,8,9
 702 757 702 757 702 809 c 0,10,11
 702 828 702 828 696 847 c 128,-1,12
 690 866 690 866 679 889 c 1,13,-1
 771 889 l 1,14,15
 796 843 796 843 796 801 c 0,16,17
 796 741 796 741 761.5 712 c 128,-1,18
 727 683 727 683 666 683 c 2,19,-1
 664 683 l 1,20,21
 733 631 733 631 772.5 550.5 c 128,-1,22
 812 470 812 470 812 373 c 0,23,24
 812 263 812 263 762.5 175 c 128,-1,25
 713 87 713 87 627.5 37.5 c 128,-1,26
 542 -12 542 -12 439 -12 c 256,27,0
 336 -12 336 -12 250.5 37.5 c 128,-1,1
183.5 217 m 128,-1,29
 221 146 221 146 288 104.5 c 128,-1,30
 355 63 355 63 439 63 c 256,31,32
 523 63 523 63 590 104.5 c 128,-1,33
 657 146 657 146 694.5 217 c 128,-1,34
 732 288 732 288 732 373 c 0,35,36
 732 457 732 457 694.5 528 c 128,-1,37
 657 599 657 599 590 640.5 c 128,-1,38
 523 682 523 682 439 682 c 256,39,40
 355 682 355 682 288 640.5 c 128,-1,41
 221 599 221 599 183.5 528 c 128,-1,42
 146 457 146 457 146 373 c 0,43,28
 146 288 146 288 183.5 217 c 128,-1,29
EndSplineSet
Validated: 1
Position2: "'cpsp' Capital Spacing in Latin lookup 0 subtable" dx=5 dy=0 dh=10 dv=0
EndChar

StartChar: uni01EA
Encoding: 490 490 186
Width: 878
GlyphClass: 2
Flags: W
AnchorPoint: "Anchor-7" 858 745 basechar 0
AnchorPoint: "Anchor-6" 439 745 basechar 0
AnchorPoint: "Anchor-5" 489 30 basechar 0
AnchorPoint: "Anchor-4" 439 0 basechar 0
LayerCount: 2
Fore
SplineSet
590 104.5 m 128,-1,1
 657 146 657 146 694.5 217 c 128,-1,2
 732 288 732 288 732 373 c 0,3,4
 732 457 732 457 694.5 528 c 128,-1,5
 657 599 657 599 590 640.5 c 128,-1,6
 523 682 523 682 439 682 c 256,7,8
 355 682 355 682 288 640.5 c 128,-1,9
 221 599 221 599 183.5 528 c 128,-1,10
 146 457 146 457 146 373 c 0,11,12
 146 288 146 288 183.5 217 c 128,-1,13
 221 146 221 146 288 104.5 c 128,-1,14
 355 63 355 63 439 63 c 256,15,0
 523 63 523 63 590 104.5 c 128,-1,1
115.5 570.5 m 128,-1,17
 165 658 165 658 250.5 707.5 c 128,-1,18
 336 757 336 757 439 757 c 256,19,20
 542 757 542 757 627 707.5 c 128,-1,21
 712 658 712 658 762 570 c 128,-1,22
 812 482 812 482 812 373 c 0,23,24
 812 267 812 267 765 181 c 128,-1,25
 718 95 718 95 637 44 c 128,-1,26
 556 -7 556 -7 457 -12 c 1,27,28
 421 -39 421 -39 421 -75 c 0,29,30
 421 -97 421 -97 434.5 -109.5 c 128,-1,31
 448 -122 448 -122 472 -122 c 0,32,33
 505 -122 505 -122 542 -95 c 1,34,-1
 567 -132 l 1,35,36
 523 -170 523 -170 468 -170 c 0,37,38
 425 -170 425 -170 397 -147 c 128,-1,39
 369 -124 369 -124 369 -86 c 0,40,41
 369 -44 369 -44 403 -10 c 1,42,43
 308 -2 308 -2 231.5 49.5 c 128,-1,44
 155 101 155 101 110.5 185 c 128,-1,45
 66 269 66 269 66 373 c 0,46,16
 66 483 66 483 115.5 570.5 c 128,-1,17
EndSplineSet
Validated: 1
Position2: "'cpsp' Capital Spacing in Latin lookup 0 subtable" dx=5 dy=0 dh=10 dv=0
EndChar

StartChar: Oslash
Encoding: 216 216 187
Width: 878
GlyphClass: 2
Flags: W
AnchorPoint: "Anchor-7" 858 745 basechar 0
AnchorPoint: "Anchor-6" 439 745 basechar 0
AnchorPoint: "Anchor-5" 489 30 basechar 0
AnchorPoint: "Anchor-4" 439 0 basechar 0
LayerCount: 2
Fore
SplineSet
221 57 m 1,1,-1
 174 0 l 1,2,-1
 83 0 l 1,3,-1
 168 103 l 1,4,5
 120 154 120 154 93 223.5 c 128,-1,6
 66 293 66 293 66 373 c 0,7,8
 66 483 66 483 115.5 570.5 c 128,-1,9
 165 658 165 658 250.5 707.5 c 128,-1,10
 336 757 336 757 439 757 c 0,11,12
 499 757 499 757 554.5 739.5 c 128,-1,13
 610 722 610 722 656 689 c 1,14,-1
 703 745 l 1,15,-1
 794 745 l 1,16,-1
 709 643 l 1,17,18
 758 591 758 591 785 522 c 128,-1,19
 812 453 812 453 812 373 c 0,20,21
 812 263 812 263 762.5 175 c 128,-1,22
 713 87 713 87 627.5 37.5 c 128,-1,23
 542 -12 542 -12 439 -12 c 0,24,0
 317 -12 317 -12 221 57 c 1,1,-1
165 259.5 m 128,-1,26
 184 206 184 206 219 164 c 1,27,-1
 607 629 l 1,28,29
 535 682 535 682 439 682 c 0,30,31
 355 682 355 682 288 640.5 c 128,-1,32
 221 599 221 599 183.5 528 c 128,-1,33
 146 457 146 457 146 373 c 0,34,25
 146 313 146 313 165 259.5 c 128,-1,26
439 63 m 0,36,37
 523 63 523 63 590 104.5 c 128,-1,38
 657 146 657 146 694.5 217 c 128,-1,39
 732 288 732 288 732 373 c 0,40,41
 732 433 732 433 713 486.5 c 128,-1,42
 694 540 694 540 658 582 c 1,43,-1
 271 116 l 1,44,35
 345 63 345 63 439 63 c 0,36,37
EndSplineSet
Validated: 1
Position2: "'cpsp' Capital Spacing in Latin lookup 0 subtable" dx=5 dy=0 dh=10 dv=0
EndChar

StartChar: OE
Encoding: 338 338 193
Width: 1261
GlyphClass: 1
Flags: W
LayerCount: 2
Fore
SplineSet
250.5 37.5 m 128,-1,1
 165 87 165 87 115.5 175 c 128,-1,2
 66 263 66 263 66 373 c 256,3,4
 66 483 66 483 115.5 570.5 c 128,-1,5
 165 658 165 658 250.5 707.5 c 128,-1,6
 336 757 336 757 439 757 c 0,7,8
 529 757 529 757 607.5 718 c 128,-1,9
 686 679 686 679 737 609 c 1,10,-1
 737 745 l 1,11,-1
 1217 745 l 1,12,-1
 1217 670 l 1,13,-1
 817 670 l 1,14,-1
 817 411 l 1,15,-1
 1197 411 l 1,16,-1
 1197 336 l 1,17,-1
 817 336 l 1,18,-1
 817 75 l 1,19,-1
 1217 75 l 1,20,-1
 1217 0 l 1,21,-1
 737 0 l 1,22,-1
 737 136 l 1,23,24
 686 66 686 66 607.5 27 c 128,-1,25
 529 -12 529 -12 439 -12 c 0,26,0
 336 -12 336 -12 250.5 37.5 c 128,-1,1
183.5 217 m 128,-1,28
 221 146 221 146 288 104.5 c 128,-1,29
 355 63 355 63 439 63 c 256,30,31
 523 63 523 63 590 104.5 c 128,-1,32
 657 146 657 146 694.5 217 c 128,-1,33
 732 288 732 288 732 373 c 0,34,35
 732 457 732 457 694.5 528 c 128,-1,36
 657 599 657 599 590 640.5 c 128,-1,37
 523 682 523 682 439 682 c 256,38,39
 355 682 355 682 288 640.5 c 128,-1,40
 221 599 221 599 183.5 528 c 128,-1,41
 146 457 146 457 146 373 c 0,42,27
 146 288 146 288 183.5 217 c 128,-1,28
EndSplineSet
Validated: 1
Position2: "'cpsp' Capital Spacing in Latin lookup 0 subtable" dx=5 dy=0 dh=10 dv=0
EndChar

StartChar: P
Encoding: 80 80 194
Width: 643
GlyphClass: 2
Flags: W
AnchorPoint: "Anchor-6" 322 745 basechar 0
AnchorPoint: "Anchor-4" 322 0 basechar 0
LayerCount: 2
Fore
SplineSet
88 745 m 1,0,-1
 344 745 l 2,1,2
 416 745 416 745 471.5 716.5 c 128,-1,3
 527 688 527 688 557.5 636 c 128,-1,4
 588 584 588 584 588 517 c 256,5,6
 588 450 588 450 557.5 398.5 c 128,-1,7
 527 347 527 347 472 318.5 c 128,-1,8
 417 290 417 290 344 290 c 2,9,-1
 168 290 l 1,10,-1
 168 0 l 1,11,-1
 88 0 l 1,12,-1
 88 745 l 1,0,-1
348 365 m 2,13,14
 421 365 421 365 464.5 406 c 128,-1,15
 508 447 508 447 508 518 c 0,16,17
 508 588 508 588 464.5 629 c 128,-1,18
 421 670 421 670 348 670 c 2,19,-1
 168 670 l 1,20,-1
 168 365 l 1,21,-1
 348 365 l 2,13,14
EndSplineSet
Validated: 1
Position2: "'cpsp' Capital Spacing in Latin lookup 0 subtable" dx=5 dy=0 dh=10 dv=0
EndChar

StartChar: Thorn
Encoding: 222 222 195
Width: 635
GlyphClass: 1
Flags: W
LayerCount: 2
Fore
SplineSet
80 745 m 1,0,-1
 160 745 l 1,1,-1
 160 600 l 1,2,-1
 336 600 l 2,3,4
 408 600 408 600 463.5 571.5 c 128,-1,5
 519 543 519 543 549.5 491 c 128,-1,6
 580 439 580 439 580 372 c 256,7,8
 580 305 580 305 549.5 253.5 c 128,-1,9
 519 202 519 202 464 173.5 c 128,-1,10
 409 145 409 145 336 145 c 2,11,-1
 160 145 l 1,12,-1
 160 0 l 1,13,-1
 80 0 l 1,14,-1
 80 745 l 1,0,-1
340 220 m 2,15,16
 413 220 413 220 456.5 261 c 128,-1,17
 500 302 500 302 500 373 c 0,18,19
 500 443 500 443 456.5 484 c 128,-1,20
 413 525 413 525 340 525 c 2,21,-1
 160 525 l 1,22,-1
 160 220 l 1,23,-1
 340 220 l 2,15,16
EndSplineSet
Validated: 1
Position2: "'cpsp' Capital Spacing in Latin lookup 0 subtable" dx=5 dy=0 dh=10 dv=0
EndChar

StartChar: Q
Encoding: 81 81 196
Width: 878
GlyphClass: 2
Flags: W
AnchorPoint: "Anchor-6" 439 745 basechar 0
AnchorPoint: "Anchor-4" 439 0 basechar 0
LayerCount: 2
Fore
SplineSet
250.5 37.5 m 128,-1,1
 165 87 165 87 115.5 175 c 128,-1,2
 66 263 66 263 66 373 c 256,3,4
 66 483 66 483 115.5 570.5 c 128,-1,5
 165 658 165 658 250.5 707.5 c 128,-1,6
 336 757 336 757 439 757 c 256,7,8
 542 757 542 757 627 707.5 c 128,-1,9
 712 658 712 658 762 570 c 128,-1,10
 812 482 812 482 812 373 c 0,11,12
 812 297 812 297 787 229.5 c 128,-1,13
 762 162 762 162 717 111 c 1,14,-1
 811 7 l 1,15,-1
 741 -47 l 1,16,-1
 651 53 l 1,17,18
 558 -12 558 -12 439 -12 c 0,19,0
 336 -12 336 -12 250.5 37.5 c 128,-1,1
183.5 217 m 128,-1,21
 221 146 221 146 288 104.5 c 128,-1,22
 355 63 355 63 439 63 c 0,23,24
 529 63 529 63 599 110 c 1,25,-1
 426 301 l 1,26,-1
 497 354 l 1,27,-1
 664 170 l 1,28,29
 697 211 697 211 714.5 263 c 128,-1,30
 732 315 732 315 732 373 c 0,31,32
 732 457 732 457 694.5 528 c 128,-1,33
 657 599 657 599 590 640.5 c 128,-1,34
 523 682 523 682 439 682 c 256,35,36
 355 682 355 682 288 640.5 c 128,-1,37
 221 599 221 599 183.5 528 c 128,-1,38
 146 457 146 457 146 373 c 0,39,20
 146 288 146 288 183.5 217 c 128,-1,21
EndSplineSet
Validated: 1
Substitution2: "'ss03' Style Set 3 in Latin lookup 22 subtable" Q.ss03
Substitution2: "'aalt' Access All Alternates in Latin lookup 0 subtable" Q.ss03
Position2: "'cpsp' Capital Spacing in Latin lookup 0 subtable" dx=5 dy=0 dh=10 dv=0
EndChar

StartChar: Q.ss03
Encoding: 65572 -1 197
Width: 878
GlyphClass: 1
Flags: W
LayerCount: 2
Fore
SplineSet
590 104.5 m 128,-1,1
 657 146 657 146 694.5 217 c 128,-1,2
 732 288 732 288 732 373 c 0,3,4
 732 457 732 457 694.5 528 c 128,-1,5
 657 599 657 599 590 640.5 c 128,-1,6
 523 682 523 682 439 682 c 256,7,8
 355 682 355 682 288 640.5 c 128,-1,9
 221 599 221 599 183.5 528 c 128,-1,10
 146 457 146 457 146 373 c 0,11,12
 146 288 146 288 183.5 217 c 128,-1,13
 221 146 221 146 288 104.5 c 128,-1,14
 355 63 355 63 439 63 c 256,15,0
 523 63 523 63 590 104.5 c 128,-1,1
115.5 570.5 m 128,-1,17
 165 658 165 658 250.5 707.5 c 128,-1,18
 336 757 336 757 439 757 c 256,19,20
 542 757 542 757 627 707.5 c 128,-1,21
 712 658 712 658 762 570 c 128,-1,22
 812 482 812 482 812 373 c 0,23,24
 812 270 812 270 768 186 c 128,-1,25
 724 102 724 102 647 50.5 c 128,-1,26
 570 -1 570 -1 476 -10 c 1,27,-1
 476 -20 l 2,28,29
 476 -70 476 -70 505.5 -92.5 c 128,-1,30
 535 -115 535 -115 592 -115 c 2,31,-1
 762 -115 l 1,32,-1
 762 -180 l 1,33,-1
 584 -180 l 2,34,35
 496 -180 496 -180 448.5 -139 c 128,-1,36
 401 -98 401 -98 401 -20 c 2,37,-1
 401 -10 l 1,38,39
 307 -1 307 -1 230.5 50.5 c 128,-1,40
 154 102 154 102 110 186 c 128,-1,41
 66 270 66 270 66 373 c 0,42,16
 66 483 66 483 115.5 570.5 c 128,-1,17
EndSplineSet
Validated: 1
Position2: "'cpsp' Capital Spacing in Latin lookup 0 subtable" dx=5 dy=0 dh=10 dv=0
EndChar

StartChar: R
Encoding: 82 82 198
Width: 641
GlyphClass: 2
Flags: W
AnchorPoint: "Anchor-6" 315 745 basechar 0
AnchorPoint: "Anchor-4" 315 0 basechar 0
LayerCount: 2
Fore
SplineSet
88 745 m 1,0,-1
 344 745 l 2,1,2
 416 745 416 745 471.5 716.5 c 128,-1,3
 527 688 527 688 557.5 636 c 128,-1,4
 588 584 588 584 588 517 c 0,5,6
 588 438 588 438 547 382 c 128,-1,7
 506 326 506 326 434 303 c 1,8,-1
 608 0 l 1,9,-1
 514 0 l 1,10,-1
 350 290 l 1,11,-1
 168 290 l 1,12,-1
 168 0 l 1,13,-1
 88 0 l 1,14,-1
 88 745 l 1,0,-1
348 365 m 2,15,16
 421 365 421 365 464.5 406 c 128,-1,17
 508 447 508 447 508 518 c 0,18,19
 508 588 508 588 464.5 629 c 128,-1,20
 421 670 421 670 348 670 c 2,21,-1
 168 670 l 1,22,-1
 168 365 l 1,23,-1
 348 365 l 2,15,16
EndSplineSet
Validated: 1
Substitution2: "'ss03' Style Set 3 in Latin lookup 22 subtable" R.ss03
Substitution2: "'aalt' Access All Alternates in Latin lookup 0 subtable" R.ss03
Position2: "'cpsp' Capital Spacing in Latin lookup 0 subtable" dx=5 dy=0 dh=10 dv=0
EndChar

StartChar: R.ss03
Encoding: 65573 -1 199
Width: 643
GlyphClass: 2
Flags: W
AnchorPoint: "Anchor-6" 316 745 basechar 0
AnchorPoint: "Anchor-4" 316 0 basechar 0
LayerCount: 2
Fore
SplineSet
88 745 m 1,0,-1
 344 745 l 2,1,2
 416 745 416 745 471.5 716.5 c 128,-1,3
 527 688 527 688 557.5 636 c 128,-1,4
 588 584 588 584 588 517 c 0,5,6
 588 463 588 463 568 418.5 c 128,-1,7
 548 374 548 374 512 344 c 1,8,9
 577 318 577 318 577 236 c 0,10,11
 577 157 577 157 578.5 105 c 128,-1,12
 580 53 580 53 587 0 c 1,13,-1
 507 0 l 1,14,15
 500 51 500 51 498.5 102 c 128,-1,16
 497 153 497 153 497 230 c 0,17,18
 497 290 497 290 431 290 c 2,19,-1
 168 290 l 1,20,-1
 168 0 l 1,21,-1
 88 0 l 1,22,-1
 88 745 l 1,0,-1
348 365 m 2,23,24
 421 365 421 365 464.5 406 c 128,-1,25
 508 447 508 447 508 518 c 0,26,27
 508 588 508 588 464.5 629 c 128,-1,28
 421 670 421 670 348 670 c 2,29,-1
 168 670 l 1,30,-1
 168 365 l 1,31,-1
 348 365 l 2,23,24
EndSplineSet
Validated: 1
Position2: "'cpsp' Capital Spacing in Latin lookup 0 subtable" dx=5 dy=0 dh=10 dv=0
EndChar

StartChar: S
Encoding: 83 83 214
Width: 646
GlyphClass: 2
Flags: W
AnchorPoint: "Anchor-6" 323 745 basechar 0
AnchorPoint: "Anchor-4" 323 0 basechar 0
LayerCount: 2
Fore
SplineSet
211.5 14.5 m 128,-1,1
 153 41 153 41 112.5 86.5 c 128,-1,2
 72 132 72 132 55 188 c 1,3,-1
 127 213 l 1,4,5
 143 165 143 165 178.5 130.5 c 128,-1,6
 214 96 214 96 257.5 78 c 128,-1,7
 301 60 301 60 339 60 c 0,8,9
 384 60 384 60 421 79.5 c 128,-1,10
 458 99 458 99 479 128 c 128,-1,11
 500 157 500 157 500 184 c 0,12,13
 500 229 500 229 469 266 c 128,-1,14
 438 303 438 303 384 315 c 2,15,-1
 250 346 l 2,16,17
 174 363 174 363 130 423 c 128,-1,18
 86 483 86 483 86 555 c 0,19,20
 86 613 86 613 115 659 c 128,-1,21
 144 705 144 705 194.5 731 c 128,-1,22
 245 757 245 757 309 757 c 256,23,24
 373 757 373 757 427.5 733 c 128,-1,25
 482 709 482 709 519.5 668.5 c 128,-1,26
 557 628 557 628 573 579 c 1,27,-1
 503 551 l 1,28,29
 488 593 488 593 455.5 623.5 c 128,-1,30
 423 654 423 654 384 669.5 c 128,-1,31
 345 685 345 685 310 685 c 0,32,33
 269 685 269 685 236 667 c 128,-1,34
 203 649 203 649 184.5 620 c 128,-1,35
 166 591 166 591 166 561 c 0,36,37
 166 515 166 515 200 475 c 128,-1,38
 234 435 234 435 284 424 c 2,39,-1
 402 397 l 2,40,41
 488 377 488 377 534 322 c 128,-1,42
 580 267 580 267 580 191 c 0,43,44
 580 132 580 132 549.5 85.5 c 128,-1,45
 519 39 519 39 464 13.5 c 128,-1,46
 409 -12 409 -12 339 -12 c 0,47,0
 270 -12 270 -12 211.5 14.5 c 128,-1,1
EndSplineSet
Validated: 1
Position2: "'cpsp' Capital Spacing in Latin lookup 0 subtable" dx=5 dy=0 dh=10 dv=0
EndChar

StartChar: Scedilla
Encoding: 350 350 219
Width: 646
GlyphClass: 2
Flags: W
AnchorPoint: "Anchor-4" 323 0 basechar 0
LayerCount: 2
Fore
SplineSet
297 -216 m 128,-1,1
 276 -212 276 -212 262 -205 c 1,2,-1
 274 -163 l 1,3,4
 302 -174 302 -174 333 -174 c 0,5,6
 356 -174 356 -174 369 -163.5 c 128,-1,7
 382 -153 382 -153 382 -135 c 0,8,9
 382 -120 382 -120 372.5 -111 c 128,-1,10
 363 -102 363 -102 346 -102 c 0,11,12
 325 -102 325 -102 305 -112 c 1,13,-1
 285 -104 l 1,14,-1
 296 -9 l 1,15,16
 207 3 207 3 142.5 57.5 c 128,-1,17
 78 112 78 112 55 188 c 1,18,-1
 127 213 l 1,19,20
 143 165 143 165 178.5 130.5 c 128,-1,21
 214 96 214 96 257.5 78 c 128,-1,22
 301 60 301 60 339 60 c 0,23,24
 384 60 384 60 421 79.5 c 128,-1,25
 458 99 458 99 479 128 c 128,-1,26
 500 157 500 157 500 184 c 0,27,28
 500 229 500 229 469 266 c 128,-1,29
 438 303 438 303 384 315 c 2,30,-1
 250 346 l 2,31,32
 174 363 174 363 130 423 c 128,-1,33
 86 483 86 483 86 555 c 0,34,35
 86 613 86 613 115 659 c 128,-1,36
 144 705 144 705 194.5 731 c 128,-1,37
 245 757 245 757 309 757 c 256,38,39
 373 757 373 757 427.5 733 c 128,-1,40
 482 709 482 709 519.5 668.5 c 128,-1,41
 557 628 557 628 573 579 c 1,42,-1
 503 551 l 1,43,44
 488 593 488 593 455.5 623.5 c 128,-1,45
 423 654 423 654 384 669.5 c 128,-1,46
 345 685 345 685 310 685 c 0,47,48
 269 685 269 685 236 667 c 128,-1,49
 203 649 203 649 184.5 620 c 128,-1,50
 166 591 166 591 166 561 c 0,51,52
 166 515 166 515 200 475 c 128,-1,53
 234 435 234 435 284 424 c 2,54,-1
 402 397 l 2,55,56
 488 377 488 377 534 322 c 128,-1,57
 580 267 580 267 580 191 c 0,58,59
 580 133 580 133 550.5 87.5 c 128,-1,60
 521 42 521 42 468 15.5 c 128,-1,61
 415 -11 415 -11 347 -12 c 1,62,-1
 342 -62 l 1,63,64
 354 -60 354 -60 363 -60 c 0,65,66
 397 -60 397 -60 419.5 -80 c 128,-1,67
 442 -100 442 -100 442 -132 c 0,68,69
 442 -170 442 -170 413.5 -195 c 128,-1,70
 385 -220 385 -220 337 -220 c 0,71,0
 318 -220 318 -220 297 -216 c 128,-1,1
EndSplineSet
Validated: 1
Substitution2: "'locl' Localized Forms in Latin lookup 6 subtable" uni0218
Substitution2: "'aalt' Access All Alternates in Latin lookup 0 subtable" uni0218
Position2: "'cpsp' Capital Spacing in Latin lookup 0 subtable" dx=5 dy=0 dh=10 dv=0
EndChar

StartChar: uni018F
Encoding: 399 399 226
Width: 832
GlyphClass: 1
Flags: W
LayerCount: 2
Fore
SplineSet
234 34 m 128,-1,1
 155 80 155 80 110.5 160 c 128,-1,2
 66 240 66 240 66 339 c 0,3,4
 66 369 66 369 72 400 c 1,5,-1
 685 400 l 1,6,7
 681 479 681 479 642 543.5 c 128,-1,8
 603 608 603 608 538 645 c 128,-1,9
 473 682 473 682 394 682 c 256,10,11
 315 682 315 682 251.5 645.5 c 128,-1,12
 188 609 188 609 154 545 c 1,13,-1
 83 581 l 1,14,15
 121 660 121 660 206 708.5 c 128,-1,16
 291 757 291 757 394 757 c 0,17,18
 498 757 498 757 583 706.5 c 128,-1,19
 668 656 668 656 717 567.5 c 128,-1,20
 766 479 766 479 766 369 c 0,21,22
 766 266 766 266 722.5 178.5 c 128,-1,23
 679 91 679 91 598.5 39.5 c 128,-1,24
 518 -12 518 -12 412 -12 c 0,25,0
 313 -12 313 -12 234 34 c 128,-1,1
188.5 185.5 m 128,-1,27
 222 128 222 128 281.5 95.5 c 128,-1,28
 341 63 341 63 416 63 c 0,29,30
 488 63 488 63 546 95 c 128,-1,31
 604 127 604 127 640.5 186 c 128,-1,32
 677 245 677 245 684 325 c 1,33,-1
 155 325 l 1,34,-1
 155 315 l 2,35,26
 155 243 155 243 188.5 185.5 c 128,-1,27
EndSplineSet
Validated: 1
Position2: "'cpsp' Capital Spacing in Latin lookup 0 subtable" dx=5 dy=0 dh=10 dv=0
EndChar

StartChar: T
Encoding: 84 84 227
Width: 512
GlyphClass: 2
Flags: W
AnchorPoint: "Anchor-6" 256 745 basechar 0
AnchorPoint: "Anchor-4" 256 0 basechar 0
LayerCount: 2
Fore
SplineSet
217 670 m 1,0,-1
 11 670 l 1,1,-1
 11 745 l 1,2,-1
 501 745 l 1,3,-1
 501 670 l 1,4,-1
 297 670 l 1,5,-1
 297 0 l 1,6,-1
 217 0 l 1,7,-1
 217 670 l 1,0,-1
EndSplineSet
Validated: 1
Position2: "'cpsp' Capital Spacing in Latin lookup 0 subtable" dx=5 dy=0 dh=10 dv=0
EndChar

StartChar: Tbar
Encoding: 358 358 228
Width: 512
GlyphClass: 2
Flags: W
AnchorPoint: "Anchor-6" 256 745 basechar 0
AnchorPoint: "Anchor-4" 256 0 basechar 0
LayerCount: 2
Fore
SplineSet
217 340 m 1,0,-1
 81 340 l 1,1,-1
 81 405 l 1,2,-1
 217 405 l 1,3,-1
 217 670 l 1,4,-1
 11 670 l 1,5,-1
 11 745 l 1,6,-1
 501 745 l 1,7,-1
 501 670 l 1,8,-1
 297 670 l 1,9,-1
 297 405 l 1,10,-1
 431 405 l 1,11,-1
 431 340 l 1,12,-1
 297 340 l 1,13,-1
 297 0 l 1,14,-1
 217 0 l 1,15,-1
 217 340 l 1,0,-1
EndSplineSet
Validated: 1
Position2: "'cpsp' Capital Spacing in Latin lookup 0 subtable" dx=5 dy=0 dh=10 dv=0
EndChar

StartChar: U
Encoding: 85 85 234
Width: 700
GlyphClass: 2
Flags: W
AnchorPoint: "Anchor-6" 350 745 basechar 0
AnchorPoint: "Anchor-5" 400 30 basechar 0
AnchorPoint: "Anchor-4" 350 0 basechar 0
LayerCount: 2
Fore
SplineSet
211.5 20.5 m 128,-1,1
 151 53 151 53 118 111 c 128,-1,2
 85 169 85 169 85 243 c 2,3,-1
 85 745 l 1,4,-1
 165 745 l 1,5,-1
 165 243 l 2,6,7
 165 162 165 162 216 112.5 c 128,-1,8
 267 63 267 63 350 63 c 256,9,10
 433 63 433 63 484 112.5 c 128,-1,11
 535 162 535 162 535 243 c 2,12,-1
 535 745 l 1,13,-1
 615 745 l 1,14,-1
 615 243 l 2,15,16
 615 169 615 169 582 111 c 128,-1,17
 549 53 549 53 488.5 20.5 c 128,-1,18
 428 -12 428 -12 350 -12 c 256,19,0
 272 -12 272 -12 211.5 20.5 c 128,-1,1
EndSplineSet
Validated: 1
Substitution2: "'ss01' Style Set 1 in Latin lookup 20 subtable" U.ss01
Substitution2: "'salt' Stylistic Alternatives in Latin lookup 19 subtable" U.ss01
Substitution2: "'aalt' Access All Alternates in Latin lookup 0 subtable" U.ss01
Position2: "'cpsp' Capital Spacing in Latin lookup 0 subtable" dx=5 dy=0 dh=10 dv=0
EndChar

StartChar: U.ss01
Encoding: 65581 -1 235
Width: 706
GlyphClass: 2
Flags: W
AnchorPoint: "Anchor-6" 353 745 basechar 0
AnchorPoint: "Anchor-5" 403 30 basechar 0
AnchorPoint: "Anchor-4" 353 0 basechar 0
LayerCount: 2
Fore
SplineSet
88 745 m 1,0,-1
 168 745 l 1,1,-1
 168 75 l 1,2,-1
 538 75 l 1,3,-1
 538 745 l 1,4,-1
 618 745 l 1,5,-1
 618 0 l 1,6,-1
 88 0 l 1,7,-1
 88 745 l 1,0,-1
EndSplineSet
Validated: 1
Position2: "'cpsp' Capital Spacing in Latin lookup 0 subtable" dx=5 dy=0 dh=10 dv=0
EndChar

StartChar: Uhorn
Encoding: 431 431 252
Width: 700
GlyphClass: 2
Flags: W
AnchorPoint: "Anchor-6" 350 745 basechar 0
AnchorPoint: "Anchor-5" 630 10 basechar 0
AnchorPoint: "Anchor-4" 350 0 basechar 0
LayerCount: 2
Fore
SplineSet
211.5 20.5 m 128,-1,1
 151 53 151 53 118 111 c 128,-1,2
 85 169 85 169 85 243 c 2,3,-1
 85 745 l 1,4,-1
 165 745 l 1,5,-1
 165 243 l 2,6,7
 165 162 165 162 216 112.5 c 128,-1,8
 267 63 267 63 350 63 c 256,9,10
 433 63 433 63 484 112.5 c 128,-1,11
 535 162 535 162 535 243 c 2,12,-1
 535 745 l 1,13,-1
 608 745 l 2,14,15
 658 745 658 745 658 797 c 0,16,17
 658 816 658 816 652 835 c 128,-1,18
 646 854 646 854 635 877 c 1,19,-1
 727 877 l 1,20,21
 752 831 752 831 752 789 c 0,22,23
 752 729 752 729 717.5 700 c 128,-1,24
 683 671 683 671 622 671 c 2,25,-1
 615 671 l 1,26,-1
 615 243 l 2,27,28
 615 169 615 169 582 111 c 128,-1,29
 549 53 549 53 488.5 20.5 c 128,-1,30
 428 -12 428 -12 350 -12 c 256,31,0
 272 -12 272 -12 211.5 20.5 c 128,-1,1
EndSplineSet
Validated: 1
Substitution2: "'ss01' Style Set 1 in Latin lookup 20 subtable" Uhorn.ss01
Substitution2: "'salt' Stylistic Alternatives in Latin lookup 19 subtable" Uhorn.ss01
Substitution2: "'aalt' Access All Alternates in Latin lookup 0 subtable" Uhorn.ss01
Position2: "'cpsp' Capital Spacing in Latin lookup 0 subtable" dx=5 dy=0 dh=10 dv=0
EndChar

StartChar: Uhorn.ss01
Encoding: 65590 -1 253
Width: 700
GlyphClass: 2
Flags: W
AnchorPoint: "Anchor-6" 353 745 basechar 0
AnchorPoint: "Anchor-4" 353 0 basechar 0
LayerCount: 2
Fore
SplineSet
88 745 m 1,0,-1
 168 745 l 1,1,-1
 168 75 l 1,2,-1
 538 75 l 1,3,-1
 538 745 l 1,4,-1
 608 745 l 2,5,6
 658 745 658 745 658 797 c 0,7,8
 658 816 658 816 652 835 c 128,-1,9
 646 854 646 854 635 877 c 1,10,-1
 727 877 l 1,11,12
 752 831 752 831 752 789 c 0,13,14
 752 729 752 729 717.5 700 c 128,-1,15
 683 671 683 671 622 671 c 2,16,-1
 618 671 l 1,17,-1
 618 0 l 1,18,-1
 88 0 l 1,19,-1
 88 745 l 1,0,-1
EndSplineSet
Validated: 1
Position2: "'cpsp' Capital Spacing in Latin lookup 0 subtable" dx=5 dy=0 dh=10 dv=0
EndChar

StartChar: Uogonek
Encoding: 370 370 272
Width: 700
GlyphClass: 2
Flags: W
AnchorPoint: "Anchor-6" 350 745 basechar 0
AnchorPoint: "Anchor-5" 400 30 basechar 0
AnchorPoint: "Anchor-4" 350 0 basechar 0
LayerCount: 2
Fore
SplineSet
308 -147 m 128,-1,1
 280 -124 280 -124 280 -86 c 0,2,3
 280 -43 280 -43 315 -10 c 1,4,5
 246 -3 246 -3 194 31 c 128,-1,6
 142 65 142 65 113.5 120 c 128,-1,7
 85 175 85 175 85 243 c 2,8,-1
 85 745 l 1,9,-1
 165 745 l 1,10,-1
 165 243 l 2,11,12
 165 162 165 162 216 112.5 c 128,-1,13
 267 63 267 63 350 63 c 256,14,15
 433 63 433 63 484 112.5 c 128,-1,16
 535 162 535 162 535 243 c 2,17,-1
 535 745 l 1,18,-1
 615 745 l 1,19,-1
 615 243 l 2,20,21
 615 172 615 172 584.5 115.5 c 128,-1,22
 554 59 554 59 497.5 25.5 c 128,-1,23
 441 -8 441 -8 368 -12 c 1,24,25
 332 -39 332 -39 332 -75 c 0,26,27
 332 -97 332 -97 345.5 -109.5 c 128,-1,28
 359 -122 359 -122 383 -122 c 0,29,30
 416 -122 416 -122 453 -95 c 1,31,-1
 478 -132 l 1,32,33
 434 -170 434 -170 379 -170 c 0,34,0
 336 -170 336 -170 308 -147 c 128,-1,1
EndSplineSet
Validated: 1
Substitution2: "'ss01' Style Set 1 in Latin lookup 20 subtable" Uogonek.ss01
Substitution2: "'salt' Stylistic Alternatives in Latin lookup 19 subtable" Uogonek.ss01
Substitution2: "'aalt' Access All Alternates in Latin lookup 0 subtable" Uogonek.ss01
Position2: "'cpsp' Capital Spacing in Latin lookup 0 subtable" dx=5 dy=0 dh=10 dv=0
EndChar

StartChar: Uogonek.ss01
Encoding: 65600 -1 273
Width: 706
GlyphClass: 2
Flags: W
AnchorPoint: "Anchor-6" 353 745 basechar 0
AnchorPoint: "Anchor-5" 403 30 basechar 0
AnchorPoint: "Anchor-4" 353 0 basechar 0
LayerCount: 2
Fore
SplineSet
88 745 m 1,0,-1
 168 745 l 1,1,-1
 168 75 l 1,2,-1
 538 75 l 1,3,-1
 538 745 l 1,4,-1
 618 745 l 1,5,-1
 618 0 l 1,6,-1
 388 0 l 1,7,8
 335 -31 335 -31 335 -75 c 0,9,10
 335 -97 335 -97 348.5 -109.5 c 128,-1,11
 362 -122 362 -122 386 -122 c 0,12,13
 419 -122 419 -122 456 -95 c 1,14,-1
 481 -132 l 1,15,16
 437 -170 437 -170 382 -170 c 0,17,18
 339 -170 339 -170 311 -147 c 128,-1,19
 283 -124 283 -124 283 -86 c 0,20,21
 283 -35 283 -35 330 0 c 1,22,-1
 88 0 l 1,23,-1
 88 745 l 1,0,-1
EndSplineSet
Validated: 1
Position2: "'cpsp' Capital Spacing in Latin lookup 0 subtable" dx=5 dy=0 dh=10 dv=0
EndChar

StartChar: V
Encoding: 86 86 280
Width: 652
GlyphClass: 2
Flags: W
AnchorPoint: "Anchor-6" 326 745 basechar 0
AnchorPoint: "Anchor-4" 326 0 basechar 0
LayerCount: 2
Fore
SplineSet
11 745 m 1,0,-1
 94 745 l 1,1,-1
 326 94 l 1,2,-1
 557 745 l 1,3,-1
 641 745 l 1,4,-1
 368 0 l 1,5,-1
 284 0 l 1,6,-1
 11 745 l 1,0,-1
EndSplineSet
Validated: 1
Position2: "'cpsp' Capital Spacing in Latin lookup 0 subtable" dx=5 dy=0 dh=10 dv=0
EndChar

StartChar: W
Encoding: 87 87 281
Width: 984
GlyphClass: 2
Flags: W
AnchorPoint: "Anchor-6" 492 745 basechar 0
AnchorPoint: "Anchor-4" 492 0 basechar 0
LayerCount: 2
Fore
SplineSet
11 745 m 1,0,-1
 92 745 l 1,1,-1
 269 108 l 1,2,-1
 450 745 l 1,3,-1
 535 745 l 1,4,-1
 715 110 l 1,5,-1
 892 745 l 1,6,-1
 973 745 l 1,7,-1
 759 0 l 1,8,-1
 674 0 l 1,9,-1
 492 638 l 1,10,-1
 310 0 l 1,11,-1
 225 0 l 1,12,-1
 11 745 l 1,0,-1
EndSplineSet
Validated: 1
Position2: "'cpsp' Capital Spacing in Latin lookup 0 subtable" dx=5 dy=0 dh=10 dv=0
EndChar

StartChar: X
Encoding: 88 88 286
Width: 597
GlyphClass: 2
Flags: W
AnchorPoint: "Anchor-6" 299 745 basechar 0
AnchorPoint: "Anchor-4" 299 0 basechar 0
LayerCount: 2
Fore
SplineSet
253 380 m 1,0,-1
 19 745 l 1,1,-1
 109 745 l 1,2,-1
 298 448 l 1,3,-1
 487 745 l 1,4,-1
 577 745 l 1,5,-1
 343 380 l 1,6,-1
 586 0 l 1,7,-1
 496 0 l 1,8,-1
 298 311 l 1,9,-1
 99 0 l 1,10,-1
 11 0 l 1,11,-1
 253 380 l 1,0,-1
EndSplineSet
Validated: 1
Position2: "'cpsp' Capital Spacing in Latin lookup 0 subtable" dx=5 dy=0 dh=10 dv=0
EndChar

StartChar: Y
Encoding: 89 89 287
Width: 623
GlyphClass: 2
Flags: W
AnchorPoint: "Anchor-6" 312 745 basechar 0
AnchorPoint: "Anchor-4" 312 0 basechar 0
LayerCount: 2
Fore
SplineSet
272 346 m 1,0,-1
 11 745 l 1,1,-1
 100 745 l 1,2,-1
 312 422 l 1,3,-1
 523 745 l 1,4,-1
 612 745 l 1,5,-1
 352 346 l 1,6,-1
 352 0 l 1,7,-1
 272 0 l 1,8,-1
 272 346 l 1,0,-1
EndSplineSet
Validated: 1
Position2: "'cpsp' Capital Spacing in Latin lookup 0 subtable" dx=5 dy=0 dh=10 dv=0
EndChar

StartChar: Z
Encoding: 90 90 297
Width: 584
GlyphClass: 2
Flags: W
AnchorPoint: "Anchor-6" 292 745 basechar 0
AnchorPoint: "Anchor-4" 292 0 basechar 0
LayerCount: 2
Fore
SplineSet
22 54 m 1,0,-1
 448 670 l 1,1,-1
 47 670 l 1,2,-1
 47 745 l 1,3,-1
 553 745 l 1,4,-1
 553 691 l 1,5,-1
 128 75 l 1,6,-1
 562 75 l 1,7,-1
 562 0 l 1,8,-1
 22 0 l 1,9,-1
 22 54 l 1,0,-1
EndSplineSet
Validated: 1
Position2: "'cpsp' Capital Spacing in Latin lookup 0 subtable" dx=5 dy=0 dh=10 dv=0
EndChar

StartChar: a
Encoding: 97 97 302
Width: 572
GlyphClass: 2
Flags: W
AnchorPoint: "Anchor-6" 286 536 basechar 0
AnchorPoint: "Anchor-5" 478 40 basechar 0
AnchorPoint: "Anchor-4" 286 0 basechar 0
LayerCount: 2
Fore
SplineSet
141.5 7.5 m 128,-1,1
 101 27 101 27 78 61.5 c 128,-1,2
 55 96 55 96 55 139 c 0,3,4
 55 204 55 204 97.5 249 c 128,-1,5
 140 294 140 294 226 308 c 2,6,-1
 420 340 l 1,7,-1
 420 368 l 2,8,9
 420 416 420 416 385 446 c 128,-1,10
 350 476 350 476 294 476 c 0,11,12
 246 476 246 476 209 452 c 128,-1,13
 172 428 172 428 153 388 c 1,14,-1
 85 425 l 1,15,16
 108 477 108 477 167.5 512.5 c 128,-1,17
 227 548 227 548 294 548 c 0,18,19
 352 548 352 548 398 525 c 128,-1,20
 444 502 444 502 469.5 461 c 128,-1,21
 495 420 495 420 495 368 c 2,22,-1
 495 0 l 1,23,-1
 420 0 l 1,24,-1
 420 77 l 1,25,26
 393 37 393 37 343 12.5 c 128,-1,27
 293 -12 293 -12 232 -12 c 0,28,0
 182 -12 182 -12 141.5 7.5 c 128,-1,1
164 81 m 128,-1,30
 193 56 193 56 237 56 c 0,31,32
 290 56 290 56 332 79 c 128,-1,33
 374 102 374 102 397 142.5 c 128,-1,34
 420 183 420 183 420 232 c 2,35,-1
 420 272 l 1,36,-1
 244 243 l 2,37,38
 188 234 188 234 161.5 207.5 c 128,-1,39
 135 181 135 181 135 142 c 0,40,29
 135 106 135 106 164 81 c 128,-1,30
EndSplineSet
Validated: 1
Substitution2: "Single Substitution lookup 28 subtable" ordfeminine
Substitution2: "'ss03' Style Set 3 in Latin lookup 22 subtable" a.ss03
Substitution2: "'ss02' Style Set 2 in Latin lookup 21 subtable" a.ss02
Substitution2: "'ss01' Style Set 1 in Latin lookup 20 subtable" a.ss01
Substitution2: "'salt' Stylistic Alternatives in Latin lookup 19 subtable" a.ss01
AlternateSubs2: "'aalt' Access All Alternates in Latin lookup 1 subtable" ordfeminine a.ss01 a.ss02 a.ss03
EndChar

StartChar: a.ss01
Encoding: 65604 -1 303
Width: 572
GlyphClass: 2
Flags: W
AnchorPoint: "Anchor-6" 286 536 basechar 0
AnchorPoint: "Anchor-5" 478 40 basechar 0
AnchorPoint: "Anchor-4" 286 0 basechar 0
LayerCount: 2
Fore
SplineSet
141.5 7.5 m 128,-1,1
 101 27 101 27 78 61.5 c 128,-1,2
 55 96 55 96 55 139 c 0,3,4
 55 204 55 204 97.5 249 c 128,-1,5
 140 294 140 294 226 308 c 2,6,-1
 420 340 l 1,7,-1
 420 461 l 1,8,-1
 105 461 l 1,9,-1
 105 536 l 1,10,-1
 495 536 l 1,11,-1
 495 0 l 1,12,-1
 420 0 l 1,13,-1
 420 77 l 1,14,15
 393 37 393 37 343 12.5 c 128,-1,16
 293 -12 293 -12 232 -12 c 0,17,0
 182 -12 182 -12 141.5 7.5 c 128,-1,1
164 81 m 128,-1,19
 193 56 193 56 237 56 c 0,20,21
 290 56 290 56 332 79 c 128,-1,22
 374 102 374 102 397 142.5 c 128,-1,23
 420 183 420 183 420 232 c 2,24,-1
 420 272 l 1,25,-1
 244 243 l 2,26,27
 188 234 188 234 161.5 207.5 c 128,-1,28
 135 181 135 181 135 142 c 0,29,18
 135 106 135 106 164 81 c 128,-1,19
EndSplineSet
Validated: 1
EndChar

StartChar: a.ss02
Encoding: 65605 -1 304
Width: 594
GlyphClass: 2
Flags: W
AnchorPoint: "Anchor-6" 286 536 basechar 0
AnchorPoint: "Anchor-5" 478 40 basechar 0
AnchorPoint: "Anchor-4" 286 0 basechar 0
LayerCount: 2
Fore
SplineSet
141.5 7.5 m 128,-1,1
 101 27 101 27 78 61.5 c 128,-1,2
 55 96 55 96 55 139 c 0,3,4
 55 204 55 204 97.5 249 c 128,-1,5
 140 294 140 294 226 308 c 2,6,-1
 420 340 l 1,7,-1
 420 368 l 2,8,9
 420 416 420 416 385 446 c 128,-1,10
 350 476 350 476 294 476 c 0,11,12
 246 476 246 476 209 452 c 128,-1,13
 172 428 172 428 153 388 c 1,14,-1
 85 425 l 1,15,16
 108 477 108 477 167.5 512.5 c 128,-1,17
 227 548 227 548 294 548 c 0,18,19
 352 548 352 548 398 525 c 128,-1,20
 444 502 444 502 469.5 461 c 128,-1,21
 495 420 495 420 495 368 c 2,22,-1
 495 70 l 1,23,-1
 555 70 l 1,24,-1
 555 0 l 1,25,-1
 420 0 l 1,26,-1
 420 77 l 1,27,28
 393 37 393 37 343 12.5 c 128,-1,29
 293 -12 293 -12 232 -12 c 0,30,0
 182 -12 182 -12 141.5 7.5 c 128,-1,1
164 81 m 128,-1,32
 193 56 193 56 237 56 c 0,33,34
 290 56 290 56 332 79 c 128,-1,35
 374 102 374 102 397 142.5 c 128,-1,36
 420 183 420 183 420 232 c 2,37,-1
 420 272 l 1,38,-1
 244 243 l 2,39,40
 188 234 188 234 161.5 207.5 c 128,-1,41
 135 181 135 181 135 142 c 0,42,31
 135 106 135 106 164 81 c 128,-1,32
EndSplineSet
Validated: 1
EndChar

StartChar: a.ss03
Encoding: 65606 -1 305
Width: 572
GlyphClass: 2
Flags: W
AnchorPoint: "Anchor-6" 286 536 basechar 0
AnchorPoint: "Anchor-5" 478 40 basechar 0
AnchorPoint: "Anchor-4" 286 0 basechar 0
LayerCount: 2
Fore
SplineSet
141.5 7.5 m 128,-1,1
 101 27 101 27 78 61.5 c 128,-1,2
 55 96 55 96 55 139 c 0,3,4
 55 204 55 204 97.5 249 c 128,-1,5
 140 294 140 294 226 308 c 2,6,-1
 420 340 l 1,7,8
 415 397 415 397 379.5 429 c 128,-1,9
 344 461 344 461 283 461 c 2,10,-1
 105 461 l 1,11,-1
 105 536 l 1,12,-1
 283 536 l 2,13,14
 383 536 383 536 439 480.5 c 128,-1,15
 495 425 495 425 495 327 c 2,16,-1
 495 0 l 1,17,-1
 420 0 l 1,18,-1
 420 77 l 1,19,20
 393 37 393 37 343 12.5 c 128,-1,21
 293 -12 293 -12 232 -12 c 0,22,0
 182 -12 182 -12 141.5 7.5 c 128,-1,1
164 81 m 128,-1,24
 193 56 193 56 237 56 c 0,25,26
 290 56 290 56 332 79 c 128,-1,27
 374 102 374 102 397 142.5 c 128,-1,28
 420 183 420 183 420 232 c 2,29,-1
 420 272 l 1,30,-1
 244 243 l 2,31,32
 188 234 188 234 161.5 207.5 c 128,-1,33
 135 181 135 181 135 142 c 0,34,23
 135 106 135 106 164 81 c 128,-1,24
EndSplineSet
Validated: 1
EndChar

StartChar: aogonek
Encoding: 261 261 386
Width: 572
GlyphClass: 2
Flags: W
AnchorPoint: "Anchor-6" 286 536 basechar 0
AnchorPoint: "Anchor-5" 478 40 basechar 0
AnchorPoint: "Anchor-4" 286 0 basechar 0
LayerCount: 2
Fore
SplineSet
141.5 7.5 m 128,-1,1
 101 27 101 27 78 61.5 c 128,-1,2
 55 96 55 96 55 139 c 0,3,4
 55 204 55 204 97.5 249 c 128,-1,5
 140 294 140 294 226 308 c 2,6,-1
 420 340 l 1,7,-1
 420 368 l 2,8,9
 420 416 420 416 385 446 c 128,-1,10
 350 476 350 476 294 476 c 0,11,12
 246 476 246 476 209 452 c 128,-1,13
 172 428 172 428 153 388 c 1,14,-1
 85 425 l 1,15,16
 108 477 108 477 167.5 512.5 c 128,-1,17
 227 548 227 548 294 548 c 0,18,19
 352 548 352 548 398 525 c 128,-1,20
 444 502 444 502 469.5 461 c 128,-1,21
 495 420 495 420 495 368 c 2,22,-1
 495 0 l 1,23,-1
 448 0 l 1,24,25
 410 -29 410 -29 410 -65 c 0,26,27
 410 -87 410 -87 423.5 -99.5 c 128,-1,28
 437 -112 437 -112 461 -112 c 0,29,30
 494 -112 494 -112 531 -85 c 1,31,-1
 556 -122 l 1,32,33
 512 -160 512 -160 457 -160 c 0,34,35
 414 -160 414 -160 386 -137 c 128,-1,36
 358 -114 358 -114 358 -76 c 0,37,38
 358 -47 358 -47 374 -22.5 c 128,-1,39
 390 2 390 2 420 20 c 1,40,-1
 420 77 l 1,41,42
 393 37 393 37 343 12.5 c 128,-1,43
 293 -12 293 -12 232 -12 c 0,44,0
 182 -12 182 -12 141.5 7.5 c 128,-1,1
164 81 m 128,-1,46
 193 56 193 56 237 56 c 0,47,48
 290 56 290 56 332 79 c 128,-1,49
 374 102 374 102 397 142.5 c 128,-1,50
 420 183 420 183 420 232 c 2,51,-1
 420 272 l 1,52,-1
 244 243 l 2,53,54
 188 234 188 234 161.5 207.5 c 128,-1,55
 135 181 135 181 135 142 c 0,56,45
 135 106 135 106 164 81 c 128,-1,46
EndSplineSet
Validated: 1
Substitution2: "'ss03' Style Set 3 in Latin lookup 22 subtable" aogonek.ss03
Substitution2: "'ss02' Style Set 2 in Latin lookup 21 subtable" aogonek.ss02
Substitution2: "'ss01' Style Set 1 in Latin lookup 20 subtable" aogonek.ss01
Substitution2: "'salt' Stylistic Alternatives in Latin lookup 19 subtable" aogonek.ss01
AlternateSubs2: "'aalt' Access All Alternates in Latin lookup 1 subtable" aogonek.ss01 aogonek.ss02 aogonek.ss03
EndChar

StartChar: aogonek.ss01
Encoding: 65667 -1 387
Width: 572
GlyphClass: 2
Flags: W
AnchorPoint: "Anchor-6" 286 536 basechar 0
AnchorPoint: "Anchor-5" 478 40 basechar 0
AnchorPoint: "Anchor-4" 286 0 basechar 0
LayerCount: 2
Fore
SplineSet
141.5 7.5 m 128,-1,1
 101 27 101 27 78 61.5 c 128,-1,2
 55 96 55 96 55 139 c 0,3,4
 55 204 55 204 97.5 249 c 128,-1,5
 140 294 140 294 226 308 c 2,6,-1
 420 340 l 1,7,-1
 420 461 l 1,8,-1
 105 461 l 1,9,-1
 105 536 l 1,10,-1
 495 536 l 1,11,-1
 495 0 l 1,12,-1
 448 0 l 1,13,14
 410 -29 410 -29 410 -65 c 0,15,16
 410 -87 410 -87 423.5 -99.5 c 128,-1,17
 437 -112 437 -112 461 -112 c 0,18,19
 494 -112 494 -112 531 -85 c 1,20,-1
 556 -122 l 1,21,22
 512 -160 512 -160 457 -160 c 0,23,24
 414 -160 414 -160 386 -137 c 128,-1,25
 358 -114 358 -114 358 -76 c 0,26,27
 358 -47 358 -47 374 -22.5 c 128,-1,28
 390 2 390 2 420 20 c 1,29,-1
 420 77 l 1,30,31
 393 37 393 37 343 12.5 c 128,-1,32
 293 -12 293 -12 232 -12 c 0,33,0
 182 -12 182 -12 141.5 7.5 c 128,-1,1
164 81 m 128,-1,35
 193 56 193 56 237 56 c 0,36,37
 290 56 290 56 332 79 c 128,-1,38
 374 102 374 102 397 142.5 c 128,-1,39
 420 183 420 183 420 232 c 2,40,-1
 420 272 l 1,41,-1
 244 243 l 2,42,43
 188 234 188 234 161.5 207.5 c 128,-1,44
 135 181 135 181 135 142 c 0,45,34
 135 106 135 106 164 81 c 128,-1,35
EndSplineSet
Validated: 1
EndChar

StartChar: aogonek.ss02
Encoding: 65668 -1 388
Width: 594
GlyphClass: 2
Flags: W
AnchorPoint: "Anchor-6" 286 536 basechar 0
AnchorPoint: "Anchor-5" 478 40 basechar 0
AnchorPoint: "Anchor-4" 286 0 basechar 0
LayerCount: 2
Fore
SplineSet
141.5 7.5 m 128,-1,1
 101 27 101 27 78 61.5 c 128,-1,2
 55 96 55 96 55 139 c 0,3,4
 55 204 55 204 97.5 249 c 128,-1,5
 140 294 140 294 226 308 c 2,6,-1
 420 340 l 1,7,-1
 420 368 l 2,8,9
 420 416 420 416 385 446 c 128,-1,10
 350 476 350 476 294 476 c 0,11,12
 246 476 246 476 209 452 c 128,-1,13
 172 428 172 428 153 388 c 1,14,-1
 85 425 l 1,15,16
 108 477 108 477 167.5 512.5 c 128,-1,17
 227 548 227 548 294 548 c 0,18,19
 352 548 352 548 398 525 c 128,-1,20
 444 502 444 502 469.5 461 c 128,-1,21
 495 420 495 420 495 368 c 2,22,-1
 495 70 l 1,23,-1
 555 70 l 1,24,-1
 555 0 l 1,25,-1
 448 0 l 1,26,27
 410 -29 410 -29 410 -65 c 0,28,29
 410 -87 410 -87 423.5 -99.5 c 128,-1,30
 437 -112 437 -112 461 -112 c 0,31,32
 494 -112 494 -112 531 -85 c 1,33,-1
 556 -122 l 1,34,35
 512 -160 512 -160 457 -160 c 0,36,37
 414 -160 414 -160 386 -137 c 128,-1,38
 358 -114 358 -114 358 -76 c 0,39,40
 358 -47 358 -47 374 -22.5 c 128,-1,41
 390 2 390 2 420 20 c 1,42,-1
 420 77 l 1,43,44
 393 37 393 37 343 12.5 c 128,-1,45
 293 -12 293 -12 232 -12 c 0,46,0
 182 -12 182 -12 141.5 7.5 c 128,-1,1
164 81 m 128,-1,48
 193 56 193 56 237 56 c 0,49,50
 290 56 290 56 332 79 c 128,-1,51
 374 102 374 102 397 142.5 c 128,-1,52
 420 183 420 183 420 232 c 2,53,-1
 420 272 l 1,54,-1
 244 243 l 2,55,56
 188 234 188 234 161.5 207.5 c 128,-1,57
 135 181 135 181 135 142 c 0,58,47
 135 106 135 106 164 81 c 128,-1,48
EndSplineSet
Validated: 1
EndChar

StartChar: aogonek.ss03
Encoding: 65669 -1 389
Width: 572
GlyphClass: 2
Flags: W
AnchorPoint: "Anchor-6" 286 536 basechar 0
AnchorPoint: "Anchor-5" 478 40 basechar 0
AnchorPoint: "Anchor-4" 286 0 basechar 0
LayerCount: 2
Fore
SplineSet
141.5 7.5 m 128,-1,1
 101 27 101 27 78 61.5 c 128,-1,2
 55 96 55 96 55 139 c 0,3,4
 55 204 55 204 97.5 249 c 128,-1,5
 140 294 140 294 226 308 c 2,6,-1
 420 340 l 1,7,8
 415 397 415 397 379.5 429 c 128,-1,9
 344 461 344 461 283 461 c 2,10,-1
 105 461 l 1,11,-1
 105 536 l 1,12,-1
 283 536 l 2,13,14
 383 536 383 536 439 480.5 c 128,-1,15
 495 425 495 425 495 327 c 2,16,-1
 495 0 l 1,17,-1
 448 0 l 1,18,19
 410 -29 410 -29 410 -65 c 0,20,21
 410 -87 410 -87 423.5 -99.5 c 128,-1,22
 437 -112 437 -112 461 -112 c 0,23,24
 494 -112 494 -112 531 -85 c 1,25,-1
 556 -122 l 1,26,27
 512 -160 512 -160 457 -160 c 0,28,29
 414 -160 414 -160 386 -137 c 128,-1,30
 358 -114 358 -114 358 -76 c 0,31,32
 358 -47 358 -47 374 -22.5 c 128,-1,33
 390 2 390 2 420 20 c 1,34,-1
 420 77 l 1,35,36
 393 37 393 37 343 12.5 c 128,-1,37
 293 -12 293 -12 232 -12 c 0,38,0
 182 -12 182 -12 141.5 7.5 c 128,-1,1
164 81 m 128,-1,40
 193 56 193 56 237 56 c 0,41,42
 290 56 290 56 332 79 c 128,-1,43
 374 102 374 102 397 142.5 c 128,-1,44
 420 183 420 183 420 232 c 2,45,-1
 420 272 l 1,46,-1
 244 243 l 2,47,48
 188 234 188 234 161.5 207.5 c 128,-1,49
 135 181 135 181 135 142 c 0,50,39
 135 106 135 106 164 81 c 128,-1,40
EndSplineSet
Validated: 1
EndChar

StartChar: ae
Encoding: 230 230 402
Width: 983
GlyphClass: 2
Flags: W
AnchorPoint: "Anchor-6" 492 536 basechar 0
AnchorPoint: "Anchor-4" 492 0 basechar 0
LayerCount: 2
Fore
SplineSet
141.5 7.5 m 128,-1,1
 101 27 101 27 78 61.5 c 128,-1,2
 55 96 55 96 55 139 c 0,3,4
 55 204 55 204 97.5 249 c 128,-1,5
 140 294 140 294 226 308 c 2,6,-1
 420 340 l 1,7,-1
 420 368 l 2,8,9
 420 416 420 416 385 446 c 128,-1,10
 350 476 350 476 294 476 c 0,11,12
 246 476 246 476 209 452 c 128,-1,13
 172 428 172 428 153 388 c 1,14,-1
 85 425 l 1,15,16
 108 477 108 477 167.5 512.5 c 128,-1,17
 227 548 227 548 294 548 c 0,18,19
 358 548 358 548 406.5 521 c 128,-1,20
 455 494 455 494 478 446 c 1,21,22
 513 494 513 494 566 521 c 128,-1,23
 619 548 619 548 681 548 c 0,24,25
 755 548 755 548 811 512 c 128,-1,26
 867 476 867 476 897.5 417 c 128,-1,27
 928 358 928 358 928 293 c 0,28,29
 928 268 928 268 924 245 c 1,30,-1
 502 245 l 1,31,32
 503 189 503 189 529.5 146.5 c 128,-1,33
 556 104 556 104 598.5 81 c 128,-1,34
 641 58 641 58 689 58 c 0,35,36
 794 58 794 58 853 156 c 1,37,-1
 917 122 l 1,38,39
 891 65 891 65 829.5 26.5 c 128,-1,40
 768 -12 768 -12 689 -12 c 0,41,42
 631 -12 631 -12 581 11 c 128,-1,43
 531 34 531 34 495 76 c 1,44,-1
 495 0 l 1,45,-1
 420 0 l 1,46,-1
 420 78 l 1,47,48
 393 38 393 38 343 13 c 128,-1,49
 293 -12 293 -12 232 -12 c 0,50,0
 182 -12 182 -12 141.5 7.5 c 128,-1,1
164 81 m 128,-1,52
 193 56 193 56 237 56 c 0,53,54
 290 56 290 56 332 79 c 128,-1,55
 374 102 374 102 397 142.5 c 128,-1,56
 420 183 420 183 420 232 c 2,57,-1
 420 272 l 1,58,-1
 244 243 l 2,59,60
 188 234 188 234 161.5 207.5 c 128,-1,61
 135 181 135 181 135 142 c 0,62,51
 135 106 135 106 164 81 c 128,-1,52
847 315 m 1,63,64
 847 361 847 361 824.5 398.5 c 128,-1,65
 802 436 802 436 764 457 c 128,-1,66
 726 478 726 478 681 478 c 0,67,68
 637 478 637 478 598.5 458 c 128,-1,69
 560 438 560 438 534.5 401 c 128,-1,70
 509 364 509 364 504 315 c 1,71,-1
 847 315 l 1,63,64
EndSplineSet
Validated: 1
EndChar

StartChar: b
Encoding: 98 98 404
Width: 667
GlyphClass: 2
Flags: W
AnchorPoint: "Anchor-6" 334 784 basechar 0
AnchorPoint: "Anchor-4" 334 0 basechar 0
LayerCount: 2
Fore
SplineSet
234.5 14 m 128,-1,1
 183 40 183 40 152 87 c 1,2,-1
 152 0 l 1,3,-1
 77 0 l 1,4,-1
 77 757 l 1,5,-1
 152 757 l 1,6,-1
 152 455 l 1,7,8
 185 499 185 499 235.5 523.5 c 128,-1,9
 286 548 286 548 348 548 c 0,10,11
 423 548 423 548 483.5 511.5 c 128,-1,12
 544 475 544 475 578 411 c 128,-1,13
 612 347 612 347 612 268 c 256,14,15
 612 189 612 189 577.5 125 c 128,-1,16
 543 61 543 61 483 24.5 c 128,-1,17
 423 -12 423 -12 348 -12 c 0,18,0
 286 -12 286 -12 234.5 14 c 128,-1,1
177.5 164 m 128,-1,20
 203 117 203 117 247 90 c 128,-1,21
 291 63 291 63 344 63 c 256,22,23
 397 63 397 63 440 90 c 128,-1,24
 483 117 483 117 507.5 163.5 c 128,-1,25
 532 210 532 210 532 268 c 256,26,27
 532 326 532 326 507.5 372.5 c 128,-1,28
 483 419 483 419 440 446 c 128,-1,29
 397 473 397 473 344 473 c 256,30,31
 291 473 291 473 247 446 c 128,-1,32
 203 419 203 419 177.5 372 c 128,-1,33
 152 325 152 325 152 268 c 256,34,19
 152 211 152 211 177.5 164 c 128,-1,20
EndSplineSet
Validated: 1
EndChar

StartChar: c
Encoding: 99 99 405
Width: 600
GlyphClass: 2
Flags: W
AnchorPoint: "Anchor-6" 322 536 basechar 0
AnchorPoint: "Anchor-4" 322 0 basechar 0
LayerCount: 2
Fore
SplineSet
181.5 24.5 m 128,-1,1
 120 61 120 61 86 125 c 128,-1,2
 52 189 52 189 52 269 c 0,3,4
 52 348 52 348 86 412 c 128,-1,5
 120 476 120 476 181.5 512 c 128,-1,6
 243 548 243 548 322 548 c 0,7,8
 396 548 396 548 459 509.5 c 128,-1,9
 522 471 522 471 548 411 c 1,10,-1
 480 376 l 1,11,12
 459 420 459 420 416.5 446.5 c 128,-1,13
 374 473 374 473 322 473 c 256,14,15
 270 473 270 473 226.5 446.5 c 128,-1,16
 183 420 183 420 157.5 373 c 128,-1,17
 132 326 132 326 132 268 c 0,18,19
 132 211 132 211 157.5 164 c 128,-1,20
 183 117 183 117 226.5 90 c 128,-1,21
 270 63 270 63 322 63 c 0,22,23
 375 63 375 63 417 89.5 c 128,-1,24
 459 116 459 116 480 162 c 1,25,-1
 548 125 l 1,26,27
 521 66 521 66 458 27 c 128,-1,28
 395 -12 395 -12 322 -12 c 0,29,0
 243 -12 243 -12 181.5 24.5 c 128,-1,1
EndSplineSet
Validated: 1
EndChar

StartChar: ccedilla
Encoding: 231 231 408
Width: 600
GlyphClass: 2
Flags: W
AnchorPoint: "Anchor-4" 322 0 basechar 0
LayerCount: 2
Fore
SplineSet
296 -216 m 128,-1,1
 275 -212 275 -212 261 -205 c 1,2,-1
 273 -163 l 1,3,4
 301 -174 301 -174 332 -174 c 0,5,6
 355 -174 355 -174 368 -163.5 c 128,-1,7
 381 -153 381 -153 381 -135 c 0,8,9
 381 -120 381 -120 371.5 -111 c 128,-1,10
 362 -102 362 -102 345 -102 c 0,11,12
 324 -102 324 -102 304 -112 c 1,13,-1
 284 -104 l 1,14,-1
 295 -11 l 1,15,16
 223 -5 223 -5 168 33 c 128,-1,17
 113 71 113 71 82.5 132.5 c 128,-1,18
 52 194 52 194 52 269 c 0,19,20
 52 348 52 348 86 412 c 128,-1,21
 120 476 120 476 181.5 512 c 128,-1,22
 243 548 243 548 322 548 c 0,23,24
 396 548 396 548 459 509.5 c 128,-1,25
 522 471 522 471 548 411 c 1,26,-1
 480 376 l 1,27,28
 459 420 459 420 416.5 446.5 c 128,-1,29
 374 473 374 473 322 473 c 256,30,31
 270 473 270 473 226.5 446.5 c 128,-1,32
 183 420 183 420 157.5 373 c 128,-1,33
 132 326 132 326 132 268 c 0,34,35
 132 211 132 211 157.5 164 c 128,-1,36
 183 117 183 117 226.5 90 c 128,-1,37
 270 63 270 63 322 63 c 0,38,39
 375 63 375 63 417 89.5 c 128,-1,40
 459 116 459 116 480 162 c 1,41,-1
 548 125 l 1,42,43
 524 71 524 71 468.5 33.5 c 128,-1,44
 413 -4 413 -4 346 -11 c 1,45,-1
 341 -62 l 1,46,47
 353 -60 353 -60 362 -60 c 0,48,49
 396 -60 396 -60 418.5 -80 c 128,-1,50
 441 -100 441 -100 441 -132 c 0,51,52
 441 -170 441 -170 412.5 -195 c 128,-1,53
 384 -220 384 -220 336 -220 c 0,54,0
 317 -220 317 -220 296 -216 c 128,-1,1
EndSplineSet
Validated: 1
EndChar

StartChar: uni1E09
Encoding: 7689 7689 409
Width: 600
GlyphClass: 2
Flags: W
AnchorPoint: "Anchor-4" 322 0 basechar 0
LayerCount: 2
Fore
SplineSet
296 -216 m 128,-1,1
 275 -212 275 -212 261 -205 c 1,2,-1
 273 -163 l 1,3,4
 301 -174 301 -174 332 -174 c 0,5,6
 355 -174 355 -174 368 -163.5 c 128,-1,7
 381 -153 381 -153 381 -135 c 0,8,9
 381 -120 381 -120 371.5 -111 c 128,-1,10
 362 -102 362 -102 345 -102 c 0,11,12
 324 -102 324 -102 304 -112 c 1,13,-1
 284 -104 l 1,14,-1
 295 -11 l 1,15,16
 223 -5 223 -5 168 33 c 128,-1,17
 113 71 113 71 82.5 132.5 c 128,-1,18
 52 194 52 194 52 269 c 0,19,20
 52 348 52 348 86 412 c 128,-1,21
 120 476 120 476 181.5 512 c 128,-1,22
 243 548 243 548 322 548 c 0,23,24
 396 548 396 548 459 509.5 c 128,-1,25
 522 471 522 471 548 411 c 1,26,-1
 480 376 l 1,27,28
 459 420 459 420 416.5 446.5 c 128,-1,29
 374 473 374 473 322 473 c 256,30,31
 270 473 270 473 226.5 446.5 c 128,-1,32
 183 420 183 420 157.5 373 c 128,-1,33
 132 326 132 326 132 268 c 0,34,35
 132 211 132 211 157.5 164 c 128,-1,36
 183 117 183 117 226.5 90 c 128,-1,37
 270 63 270 63 322 63 c 0,38,39
 375 63 375 63 417 89.5 c 128,-1,40
 459 116 459 116 480 162 c 1,41,-1
 548 125 l 1,42,43
 524 71 524 71 468.5 33.5 c 128,-1,44
 413 -4 413 -4 346 -11 c 1,45,-1
 341 -62 l 1,46,47
 353 -60 353 -60 362 -60 c 0,48,49
 396 -60 396 -60 418.5 -80 c 128,-1,50
 441 -100 441 -100 441 -132 c 0,51,52
 441 -170 441 -170 412.5 -195 c 128,-1,53
 384 -220 384 -220 336 -220 c 0,54,0
 317 -220 317 -220 296 -216 c 128,-1,1
368 784 m 1,55,-1
 444 784 l 1,56,-1
 353 640 l 1,57,-1
 290 640 l 1,58,-1
 368 784 l 1,55,-1
EndSplineSet
Validated: 1
EndChar

StartChar: d
Encoding: 100 100 412
Width: 667
GlyphClass: 2
Flags: W
AnchorPoint: "Anchor-7" 667 595 basechar 0
AnchorPoint: "Anchor-6" 334 784 basechar 0
AnchorPoint: "Anchor-4" 334 0 basechar 0
LayerCount: 2
Fore
SplineSet
184 24.5 m 128,-1,1
 124 61 124 61 89.5 125 c 128,-1,2
 55 189 55 189 55 268 c 256,3,4
 55 347 55 347 89 411 c 128,-1,5
 123 475 123 475 183.5 511.5 c 128,-1,6
 244 548 244 548 319 548 c 0,7,8
 381 548 381 548 431.5 523.5 c 128,-1,9
 482 499 482 499 515 455 c 1,10,-1
 515 757 l 1,11,-1
 590 757 l 1,12,-1
 590 0 l 1,13,-1
 515 0 l 1,14,-1
 515 87 l 1,15,16
 484 40 484 40 432.5 14 c 128,-1,17
 381 -12 381 -12 319 -12 c 0,18,0
 244 -12 244 -12 184 24.5 c 128,-1,1
159.5 163.5 m 128,-1,20
 184 117 184 117 227 90 c 128,-1,21
 270 63 270 63 323 63 c 256,22,23
 376 63 376 63 420 90 c 128,-1,24
 464 117 464 117 489.5 164 c 128,-1,25
 515 211 515 211 515 268 c 256,26,27
 515 325 515 325 489.5 372 c 128,-1,28
 464 419 464 419 420 446 c 128,-1,29
 376 473 376 473 323 473 c 256,30,31
 270 473 270 473 227 446 c 128,-1,32
 184 419 184 419 159.5 372.5 c 128,-1,33
 135 326 135 326 135 268 c 256,34,19
 135 210 135 210 159.5 163.5 c 128,-1,20
EndSplineSet
Validated: 1
EndChar

StartChar: eth
Encoding: 240 240 413
Width: 655
GlyphClass: 1
Flags: W
LayerCount: 2
Fore
SplineSet
191 24 m 128,-1,1
 127 60 127 60 91 123.5 c 128,-1,2
 55 187 55 187 55 265 c 0,3,4
 55 342 55 342 90.5 404.5 c 128,-1,5
 126 467 126 467 188 502.5 c 128,-1,6
 250 538 250 538 327 538 c 0,7,8
 375 538 375 538 420.5 523 c 128,-1,9
 466 508 466 508 500 474 c 1,10,11
 490 524 490 524 464 568 c 128,-1,12
 438 612 438 612 401 646 c 1,13,-1
 242 588 l 1,14,-1
 242 647 l 1,15,-1
 346 685 l 1,16,17
 277 725 277 725 195 725 c 0,18,19
 136 725 136 725 76 704 c 1,20,-1
 60 771 l 1,21,22
 132 795 132 795 198 795 c 0,23,24
 333 795 333 795 431 716 c 1,25,-1
 540 756 l 1,26,-1
 540 696 l 1,27,-1
 476 673 l 1,28,29
 537 605 537 605 568.5 510.5 c 128,-1,30
 600 416 600 416 600 314 c 0,31,32
 600 203 600 203 564.5 130 c 128,-1,33
 529 57 529 57 469 22.5 c 128,-1,34
 409 -12 409 -12 334 -12 c 0,35,0
 255 -12 255 -12 191 24 c 128,-1,1
161 162 m 128,-1,37
 187 116 187 116 231.5 89.5 c 128,-1,38
 276 63 276 63 328 63 c 0,39,40
 381 63 381 63 425 90 c 128,-1,41
 469 117 469 117 494.5 163.5 c 128,-1,42
 520 210 520 210 520 266 c 0,43,44
 520 320 520 320 495.5 365 c 128,-1,45
 471 410 471 410 427 436.5 c 128,-1,46
 383 463 383 463 328 463 c 256,47,48
 273 463 273 463 229 436.5 c 128,-1,49
 185 410 185 410 160 364.5 c 128,-1,50
 135 319 135 319 135 264 c 0,51,36
 135 208 135 208 161 162 c 128,-1,37
EndSplineSet
Validated: 1
EndChar

StartChar: dcroat
Encoding: 273 273 415
Width: 667
GlyphClass: 2
Flags: W
AnchorPoint: "Anchor-7" 667 595 basechar 0
AnchorPoint: "Anchor-6" 334 784 basechar 0
AnchorPoint: "Anchor-4" 334 0 basechar 0
LayerCount: 2
Fore
SplineSet
184 24.5 m 128,-1,1
 124 61 124 61 89.5 125 c 128,-1,2
 55 189 55 189 55 268 c 256,3,4
 55 347 55 347 89 411 c 128,-1,5
 123 475 123 475 183.5 511.5 c 128,-1,6
 244 548 244 548 319 548 c 0,7,8
 381 548 381 548 431.5 523.5 c 128,-1,9
 482 499 482 499 515 455 c 1,10,-1
 515 607 l 1,11,-1
 428 607 l 1,12,-1
 428 672 l 1,13,-1
 515 672 l 1,14,-1
 515 757 l 1,15,-1
 590 757 l 1,16,-1
 590 672 l 1,17,-1
 678 672 l 1,18,-1
 678 607 l 1,19,-1
 590 607 l 1,20,-1
 590 0 l 1,21,-1
 515 0 l 1,22,-1
 515 87 l 1,23,24
 484 40 484 40 432.5 14 c 128,-1,25
 381 -12 381 -12 319 -12 c 0,26,0
 244 -12 244 -12 184 24.5 c 128,-1,1
159.5 163.5 m 128,-1,28
 184 117 184 117 227 90 c 128,-1,29
 270 63 270 63 323 63 c 256,30,31
 376 63 376 63 420 90 c 128,-1,32
 464 117 464 117 489.5 164 c 128,-1,33
 515 211 515 211 515 268 c 256,34,35
 515 325 515 325 489.5 372 c 128,-1,36
 464 419 464 419 420 446 c 128,-1,37
 376 473 376 473 323 473 c 256,38,39
 270 473 270 473 227 446 c 128,-1,40
 184 419 184 419 159.5 372.5 c 128,-1,41
 135 326 135 326 135 268 c 256,42,27
 135 210 135 210 159.5 163.5 c 128,-1,28
EndSplineSet
Validated: 1
EndChar

StartChar: uni01C6
Encoding: 454 454 418
Width: 1116
GlyphClass: 1
Flags: W
LayerCount: 2
Fore
SplineSet
184 24.5 m 128,-1,1
 124 61 124 61 89.5 125 c 128,-1,2
 55 189 55 189 55 268 c 256,3,4
 55 347 55 347 89 411 c 128,-1,5
 123 475 123 475 183.5 511.5 c 128,-1,6
 244 548 244 548 319 548 c 0,7,8
 381 548 381 548 431.5 523.5 c 128,-1,9
 482 499 482 499 515 455 c 1,10,-1
 515 745 l 1,11,-1
 590 745 l 1,12,-1
 590 0 l 1,13,-1
 515 0 l 1,14,-1
 515 87 l 1,15,16
 484 40 484 40 432.5 14 c 128,-1,17
 381 -12 381 -12 319 -12 c 0,18,0
 244 -12 244 -12 184 24.5 c 128,-1,1
159.5 163.5 m 128,-1,20
 184 117 184 117 227 90 c 128,-1,21
 270 63 270 63 323 63 c 256,22,23
 376 63 376 63 420 90 c 128,-1,24
 464 117 464 117 489.5 164 c 128,-1,25
 515 211 515 211 515 268 c 256,26,27
 515 325 515 325 489.5 372 c 128,-1,28
 464 419 464 419 420 446 c 128,-1,29
 376 473 376 473 323 473 c 256,30,31
 270 473 270 473 227 446 c 128,-1,32
 184 419 184 419 159.5 372.5 c 128,-1,33
 135 326 135 326 135 268 c 256,34,19
 135 210 135 210 159.5 163.5 c 128,-1,20
689 65 m 1,35,-1
 990 461 l 1,36,-1
 706 461 l 1,37,-1
 706 536 l 1,38,-1
 1092 536 l 1,39,-1
 1092 471 l 1,40,-1
 792 75 l 1,41,-1
 1094 75 l 1,42,-1
 1094 0 l 1,43,-1
 689 0 l 1,44,-1
 689 65 l 1,35,-1
804 784 m 1,45,-1
 885 681 l 1,46,-1
 968 784 l 1,47,-1
 1036 784 l 1,48,-1
 922 640 l 1,49,-1
 848 640 l 1,50,-1
 736 784 l 1,51,-1
 804 784 l 1,45,-1
EndSplineSet
Validated: 1
EndChar

StartChar: e
Encoding: 101 101 419
Width: 615
GlyphClass: 2
Flags: W
AnchorPoint: "Anchor-6" 308 536 basechar 0
AnchorPoint: "Anchor-5" 321 40 basechar 0
AnchorPoint: "Anchor-4" 308 0 basechar 0
LayerCount: 2
Fore
SplineSet
186 24.5 m 128,-1,1
 125 61 125 61 90 125.5 c 128,-1,2
 55 190 55 190 55 270 c 0,3,4
 55 349 55 349 88.5 412.5 c 128,-1,5
 122 476 122 476 181 512 c 128,-1,6
 240 548 240 548 313 548 c 0,7,8
 387 548 387 548 443 512 c 128,-1,9
 499 476 499 476 529.5 417 c 128,-1,10
 560 358 560 358 560 293 c 0,11,12
 560 268 560 268 556 245 c 1,13,-1
 134 245 l 1,14,15
 135 189 135 189 161.5 146.5 c 128,-1,16
 188 104 188 104 230.5 81 c 128,-1,17
 273 58 273 58 321 58 c 0,18,19
 426 58 426 58 485 156 c 1,20,-1
 549 122 l 1,21,22
 523 65 523 65 461.5 26.5 c 128,-1,23
 400 -12 400 -12 321 -12 c 0,24,0
 247 -12 247 -12 186 24.5 c 128,-1,1
479 315 m 1,25,26
 479 361 479 361 456.5 398.5 c 128,-1,27
 434 436 434 436 396 457 c 128,-1,28
 358 478 358 478 313 478 c 0,29,30
 269 478 269 478 230.5 458 c 128,-1,31
 192 438 192 438 166.5 401 c 128,-1,32
 141 364 141 364 136 315 c 1,33,-1
 479 315 l 1,25,26
EndSplineSet
Validated: 1
Substitution2: "'ss03' Style Set 3 in Latin lookup 22 subtable" e.ss03
Substitution2: "'aalt' Access All Alternates in Latin lookup 0 subtable" e.ss03
EndChar

StartChar: e.ss03
Encoding: 65679 -1 420
Width: 615
GlyphClass: 2
Flags: W
AnchorPoint: "Anchor-6" 308 536 basechar 0
AnchorPoint: "Anchor-5" 321 40 basechar 0
AnchorPoint: "Anchor-4" 308 0 basechar 0
LayerCount: 2
Fore
SplineSet
192 24.5 m 128,-1,1
 127 61 127 61 91 125 c 128,-1,2
 55 189 55 189 55 270 c 0,3,4
 55 349 55 349 88.5 412.5 c 128,-1,5
 122 476 122 476 181 512 c 128,-1,6
 240 548 240 548 313 548 c 0,7,8
 387 548 387 548 443 512 c 128,-1,9
 499 476 499 476 529.5 417 c 128,-1,10
 560 358 560 358 560 293 c 0,11,12
 560 268 560 268 556 245 c 1,13,-1
 134 245 l 1,14,15
 135 189 135 189 163 146.5 c 128,-1,16
 191 104 191 104 237.5 81 c 128,-1,17
 284 58 284 58 341 58 c 2,18,-1
 530 58 l 1,19,-1
 530 -12 l 1,20,-1
 341 -12 l 2,21,0
 257 -12 257 -12 192 24.5 c 128,-1,1
479 315 m 1,22,23
 479 361 479 361 456.5 398.5 c 128,-1,24
 434 436 434 436 396 457 c 128,-1,25
 358 478 358 478 313 478 c 0,26,27
 269 478 269 478 230.5 458 c 128,-1,28
 192 438 192 438 166.5 401 c 128,-1,29
 141 364 141 364 136 315 c 1,30,-1
 479 315 l 1,22,23
EndSplineSet
Validated: 1
EndChar

StartChar: uni1E1D
Encoding: 7709 7709 427
Width: 615
GlyphClass: 2
Flags: W
AnchorPoint: "Anchor-5" 321 40 basechar 0
AnchorPoint: "Anchor-4" 308 0 basechar 0
LayerCount: 2
Fore
SplineSet
282 -216 m 128,-1,1
 261 -212 261 -212 247 -205 c 1,2,-1
 259 -163 l 1,3,4
 287 -174 287 -174 318 -174 c 0,5,6
 341 -174 341 -174 354 -163.5 c 128,-1,7
 367 -153 367 -153 367 -135 c 0,8,9
 367 -120 367 -120 357.5 -111 c 128,-1,10
 348 -102 348 -102 331 -102 c 0,11,12
 310 -102 310 -102 290 -112 c 1,13,-1
 270 -104 l 1,14,-1
 281 -9 l 1,15,16
 216 0 216 0 164.5 38.5 c 128,-1,17
 113 77 113 77 84 137 c 128,-1,18
 55 197 55 197 55 270 c 0,19,20
 55 349 55 349 88.5 412.5 c 128,-1,21
 122 476 122 476 181 512 c 128,-1,22
 240 548 240 548 313 548 c 0,23,24
 387 548 387 548 443 512 c 128,-1,25
 499 476 499 476 529.5 417 c 128,-1,26
 560 358 560 358 560 293 c 0,27,28
 560 268 560 268 556 245 c 1,29,-1
 134 245 l 1,30,31
 135 189 135 189 161.5 146.5 c 128,-1,32
 188 104 188 104 230.5 81 c 128,-1,33
 273 58 273 58 321 58 c 0,34,35
 426 58 426 58 485 156 c 1,36,-1
 549 122 l 1,37,38
 524 66 524 66 465.5 28.5 c 128,-1,39
 407 -9 407 -9 332 -12 c 1,40,-1
 327 -62 l 1,41,42
 339 -60 339 -60 348 -60 c 0,43,44
 382 -60 382 -60 404.5 -80 c 128,-1,45
 427 -100 427 -100 427 -132 c 0,46,47
 427 -170 427 -170 398.5 -195 c 128,-1,48
 370 -220 370 -220 322 -220 c 0,49,0
 303 -220 303 -220 282 -216 c 128,-1,1
479 315 m 1,50,51
 479 361 479 361 456.5 398.5 c 128,-1,52
 434 436 434 436 396 457 c 128,-1,53
 358 478 358 478 313 478 c 0,54,55
 269 478 269 478 230.5 458 c 128,-1,56
 192 438 192 438 166.5 401 c 128,-1,57
 141 364 141 364 136 315 c 1,58,-1
 479 315 l 1,50,51
225 776 m 1,59,60
 225 742 225 742 249 717 c 128,-1,61
 273 692 273 692 307 692 c 256,62,63
 341 692 341 692 366 717 c 128,-1,64
 391 742 391 742 391 776 c 1,65,-1
 445 776 l 1,66,67
 445 739 445 739 426.5 708 c 128,-1,68
 408 677 408 677 376 658.5 c 128,-1,69
 344 640 344 640 307 640 c 256,70,71
 270 640 270 640 238.5 658.5 c 128,-1,72
 207 677 207 677 188.5 708.5 c 128,-1,73
 170 740 170 740 170 776 c 1,74,-1
 225 776 l 1,59,60
EndSplineSet
Validated: 1
Substitution2: "'ss03' Style Set 3 in Latin lookup 22 subtable" uni1E1D.ss03
Substitution2: "'aalt' Access All Alternates in Latin lookup 0 subtable" uni1E1D.ss03
EndChar

StartChar: uni1E1D.ss03
Encoding: 65683 -1 428
Width: 615
GlyphClass: 2
Flags: W
AnchorPoint: "Anchor-5" 321 40 basechar 0
AnchorPoint: "Anchor-4" 308 0 basechar 0
LayerCount: 2
Fore
SplineSet
332 -12 m 1,0,-1
 327 -62 l 1,1,2
 339 -60 339 -60 348 -60 c 0,3,4
 382 -60 382 -60 404.5 -80 c 128,-1,5
 427 -100 427 -100 427 -132 c 0,6,7
 427 -170 427 -170 398.5 -195 c 128,-1,8
 370 -220 370 -220 322 -220 c 0,9,10
 303 -220 303 -220 282 -216 c 128,-1,11
 261 -212 261 -212 247 -205 c 1,12,-1
 259 -163 l 1,13,14
 287 -174 287 -174 318 -174 c 0,15,16
 341 -174 341 -174 354 -163.5 c 128,-1,17
 367 -153 367 -153 367 -135 c 0,18,19
 367 -120 367 -120 357.5 -111 c 128,-1,20
 348 -102 348 -102 331 -102 c 0,21,22
 310 -102 310 -102 290 -112 c 1,23,-1
 270 -104 l 1,24,-1
 281 -7 l 1,25,26
 178 12 178 12 116.5 87.5 c 128,-1,27
 55 163 55 163 55 270 c 0,28,29
 55 349 55 349 88.5 412.5 c 128,-1,30
 122 476 122 476 181 512 c 128,-1,31
 240 548 240 548 313 548 c 0,32,33
 387 548 387 548 443 512 c 128,-1,34
 499 476 499 476 529.5 417 c 128,-1,35
 560 358 560 358 560 293 c 0,36,37
 560 268 560 268 556 245 c 1,38,-1
 134 245 l 1,39,40
 135 189 135 189 163 146.5 c 128,-1,41
 191 104 191 104 237.5 81 c 128,-1,42
 284 58 284 58 341 58 c 2,43,-1
 530 58 l 1,44,-1
 530 -12 l 1,45,-1
 341 -12 l 1,46,-1
 332 -12 l 1,0,-1
479 315 m 1,47,48
 479 361 479 361 456.5 398.5 c 128,-1,49
 434 436 434 436 396 457 c 128,-1,50
 358 478 358 478 313 478 c 0,51,52
 269 478 269 478 230.5 458 c 128,-1,53
 192 438 192 438 166.5 401 c 128,-1,54
 141 364 141 364 136 315 c 1,55,-1
 479 315 l 1,47,48
225 776 m 1,56,57
 225 742 225 742 249 717 c 128,-1,58
 273 692 273 692 307 692 c 256,59,60
 341 692 341 692 366 717 c 128,-1,61
 391 742 391 742 391 776 c 1,62,-1
 445 776 l 1,63,64
 445 739 445 739 426.5 708 c 128,-1,65
 408 677 408 677 376 658.5 c 128,-1,66
 344 640 344 640 307 640 c 256,67,68
 270 640 270 640 238.5 658.5 c 128,-1,69
 207 677 207 677 188.5 708.5 c 128,-1,70
 170 740 170 740 170 776 c 1,71,-1
 225 776 l 1,56,57
EndSplineSet
Validated: 1
EndChar

StartChar: eogonek
Encoding: 281 281 461
Width: 615
GlyphClass: 2
Flags: W
AnchorPoint: "Anchor-6" 308 536 basechar 0
AnchorPoint: "Anchor-5" 321 40 basechar 0
AnchorPoint: "Anchor-4" 308 0 basechar 0
LayerCount: 2
Fore
SplineSet
280 -9 m 1,1,2
 253 -35 253 -35 253 -65 c 0,3,4
 253 -87 253 -87 266.5 -99.5 c 128,-1,5
 280 -112 280 -112 304 -112 c 0,6,7
 337 -112 337 -112 374 -85 c 1,8,-1
 399 -122 l 1,9,10
 355 -160 355 -160 300 -160 c 0,11,12
 257 -160 257 -160 229 -137 c 128,-1,13
 201 -114 201 -114 201 -76 c 0,14,15
 201 -32 201 -32 237 1 c 1,16,17
 156 28 156 28 105.5 100.5 c 128,-1,18
 55 173 55 173 55 270 c 0,19,20
 55 349 55 349 88.5 412.5 c 128,-1,21
 122 476 122 476 181 512 c 128,-1,22
 240 548 240 548 313 548 c 0,23,24
 387 548 387 548 443 512 c 128,-1,25
 499 476 499 476 529.5 417 c 128,-1,26
 560 358 560 358 560 293 c 0,27,28
 560 268 560 268 556 245 c 1,29,-1
 134 245 l 1,30,31
 135 189 135 189 161.5 146.5 c 128,-1,32
 188 104 188 104 230.5 81 c 128,-1,33
 273 58 273 58 321 58 c 0,34,35
 426 58 426 58 485 156 c 1,36,-1
 549 122 l 1,37,38
 523 65 523 65 461.5 26.5 c 128,-1,39
 400 -12 400 -12 321 -12 c 0,40,0
 301 -12 301 -12 280 -9 c 1,1,2
479 315 m 1,41,42
 479 361 479 361 456.5 398.5 c 128,-1,43
 434 436 434 436 396 457 c 128,-1,44
 358 478 358 478 313 478 c 0,45,46
 269 478 269 478 230.5 458 c 128,-1,47
 192 438 192 438 166.5 401 c 128,-1,48
 141 364 141 364 136 315 c 1,49,-1
 479 315 l 1,41,42
EndSplineSet
Validated: 1
Substitution2: "'ss03' Style Set 3 in Latin lookup 22 subtable" eogonek.ss03
Substitution2: "'aalt' Access All Alternates in Latin lookup 0 subtable" eogonek.ss03
EndChar

StartChar: eogonek.ss03
Encoding: 65700 -1 462
Width: 615
GlyphClass: 2
Flags: W
AnchorPoint: "Anchor-6" 308 536 basechar 0
AnchorPoint: "Anchor-5" 321 40 basechar 0
AnchorPoint: "Anchor-4" 308 0 basechar 0
LayerCount: 2
Fore
SplineSet
283 -7 m 1,1,2
 253 -33 253 -33 253 -65 c 0,3,4
 253 -87 253 -87 266.5 -99.5 c 128,-1,5
 280 -112 280 -112 304 -112 c 0,6,7
 337 -112 337 -112 374 -85 c 1,8,-1
 399 -122 l 1,9,10
 355 -160 355 -160 300 -160 c 0,11,12
 257 -160 257 -160 229 -137 c 128,-1,13
 201 -114 201 -114 201 -76 c 0,14,15
 201 -31 201 -31 240 4 c 1,16,17
 155 32 155 32 105 103 c 128,-1,18
 55 174 55 174 55 270 c 0,19,20
 55 349 55 349 88.5 412.5 c 128,-1,21
 122 476 122 476 181 512 c 128,-1,22
 240 548 240 548 313 548 c 0,23,24
 387 548 387 548 443 512 c 128,-1,25
 499 476 499 476 529.5 417 c 128,-1,26
 560 358 560 358 560 293 c 0,27,28
 560 268 560 268 556 245 c 1,29,-1
 134 245 l 1,30,31
 135 189 135 189 163 146.5 c 128,-1,32
 191 104 191 104 237.5 81 c 128,-1,33
 284 58 284 58 341 58 c 2,34,-1
 530 58 l 1,35,-1
 530 -12 l 1,36,-1
 341 -12 l 2,37,0
 313 -12 313 -12 283 -7 c 1,1,2
479 315 m 1,38,39
 479 361 479 361 456.5 398.5 c 128,-1,40
 434 436 434 436 396 457 c 128,-1,41
 358 478 358 478 313 478 c 0,42,43
 269 478 269 478 230.5 458 c 128,-1,44
 192 438 192 438 166.5 401 c 128,-1,45
 141 364 141 364 136 315 c 1,46,-1
 479 315 l 1,38,39
EndSplineSet
Validated: 1
EndChar

StartChar: uni0259
Encoding: 601 601 465
Width: 615
GlyphClass: 1
Flags: W
LayerCount: 2
Fore
SplineSet
172 24 m 128,-1,1
 116 60 116 60 85.5 119 c 128,-1,2
 55 178 55 178 55 243 c 0,3,4
 55 268 55 268 59 291 c 1,5,-1
 481 291 l 1,6,7
 480 347 480 347 453.5 389.5 c 128,-1,8
 427 432 427 432 384.5 455 c 128,-1,9
 342 478 342 478 294 478 c 0,10,11
 190 478 190 478 130 380 c 1,12,-1
 66 414 l 1,13,14
 92 471 92 471 153.5 509.5 c 128,-1,15
 215 548 215 548 294 548 c 0,16,17
 368 548 368 548 429 511.5 c 128,-1,18
 490 475 490 475 525 410.5 c 128,-1,19
 560 346 560 346 560 266 c 0,20,21
 560 187 560 187 526.5 123.5 c 128,-1,22
 493 60 493 60 434 24 c 128,-1,23
 375 -12 375 -12 302 -12 c 0,24,0
 228 -12 228 -12 172 24 c 128,-1,1
158.5 137.5 m 128,-1,26
 181 100 181 100 219 79 c 128,-1,27
 257 58 257 58 302 58 c 0,28,29
 346 58 346 58 384.5 78 c 128,-1,30
 423 98 423 98 448.5 135 c 128,-1,31
 474 172 474 172 479 221 c 1,32,-1
 136 221 l 1,33,25
 136 175 136 175 158.5 137.5 c 128,-1,26
EndSplineSet
Validated: 1
EndChar

StartChar: f
Encoding: 102 102 466
Width: 393
GlyphClass: 2
Flags: W
AnchorPoint: "Anchor-6" 197 784 basechar 0
AnchorPoint: "Anchor-4" 197 0 basechar 0
LayerCount: 2
Fore
SplineSet
132 461 m 1,0,-1
 25 461 l 1,1,-1
 25 536 l 1,2,-1
 132 536 l 1,3,-1
 132 584 l 2,4,5
 132 638 132 638 156.5 677 c 128,-1,6
 181 716 181 716 222 736.5 c 128,-1,7
 263 757 263 757 311 757 c 0,8,9
 337 757 337 757 355 752 c 1,10,-1
 355 684 l 1,11,12
 342 687 342 687 319 687 c 0,13,14
 267 687 267 687 237 662.5 c 128,-1,15
 207 638 207 638 207 584 c 2,16,-1
 207 536 l 1,17,-1
 338 536 l 1,18,-1
 338 461 l 1,19,-1
 207 461 l 1,20,-1
 207 0 l 1,21,-1
 132 0 l 1,22,-1
 132 461 l 1,0,-1
EndSplineSet
Validated: 1
Substitution2: "'ss01' Style Set 1 in Latin lookup 20 subtable" f.ss01
Substitution2: "'salt' Stylistic Alternatives in Latin lookup 19 subtable" f.ss01
Substitution2: "'aalt' Access All Alternates in Latin lookup 0 subtable" f.ss01
EndChar

StartChar: f.ss01
Encoding: 65702 -1 467
Width: 393
GlyphClass: 1
Flags: W
LayerCount: 2
Fore
SplineSet
132 461 m 1,0,-1
 25 461 l 1,1,-1
 25 536 l 1,2,-1
 132 536 l 1,3,-1
 132 745 l 1,4,-1
 355 745 l 1,5,-1
 355 675 l 1,6,-1
 207 675 l 1,7,-1
 207 536 l 1,8,-1
 338 536 l 1,9,-1
 338 461 l 1,10,-1
 207 461 l 1,11,-1
 207 0 l 1,12,-1
 132 0 l 1,13,-1
 132 461 l 1,0,-1
EndSplineSet
Validated: 1
EndChar

StartChar: g
Encoding: 103 103 468
Width: 662
GlyphClass: 2
Flags: W
AnchorPoint: "Anchor-6" 331 536 basechar 0
AnchorPoint: "Anchor-4" 331 -240 basechar 0
LayerCount: 2
Fore
SplineSet
187.5 -184 m 128,-1,1
 126 -148 126 -148 98 -88 c 1,2,-1
 167 -51 l 1,3,4
 184 -92 184 -92 226 -118.5 c 128,-1,5
 268 -145 268 -145 329 -145 c 0,6,7
 378 -145 378 -145 419.5 -125.5 c 128,-1,8
 461 -106 461 -106 485.5 -68.5 c 128,-1,9
 510 -31 510 -31 510 21 c 2,10,-1
 510 107 l 1,11,12
 480 60 480 60 429.5 34 c 128,-1,13
 379 8 379 8 319 8 c 0,14,15
 245 8 245 8 184.5 44 c 128,-1,16
 124 80 124 80 89.5 141.5 c 128,-1,17
 55 203 55 203 55 278 c 256,18,19
 55 353 55 353 89.5 414.5 c 128,-1,20
 124 476 124 476 184 512 c 128,-1,21
 244 548 244 548 319 548 c 0,22,23
 377 548 377 548 427 523 c 128,-1,24
 477 498 477 498 510 455 c 1,25,-1
 510 536 l 1,26,-1
 585 536 l 1,27,-1
 585 21 l 2,28,29
 585 -48 585 -48 552.5 -103 c 128,-1,30
 520 -158 520 -158 462 -189 c 128,-1,31
 404 -220 404 -220 331 -220 c 0,32,0
 249 -220 249 -220 187.5 -184 c 128,-1,1
159.5 180.5 m 128,-1,34
 184 136 184 136 227 109.5 c 128,-1,35
 270 83 270 83 323 83 c 0,36,37
 374 83 374 83 417 109.5 c 128,-1,38
 460 136 460 136 485 181 c 128,-1,39
 510 226 510 226 510 278 c 256,40,41
 510 330 510 330 485 375 c 128,-1,42
 460 420 460 420 417 446.5 c 128,-1,43
 374 473 374 473 323 473 c 0,44,45
 271 473 271 473 227.5 446.5 c 128,-1,46
 184 420 184 420 159.5 375.5 c 128,-1,47
 135 331 135 331 135 278 c 256,48,33
 135 225 135 225 159.5 180.5 c 128,-1,34
EndSplineSet
Validated: 1
Substitution2: "'ss03' Style Set 3 in Latin lookup 22 subtable" g.ss03
Substitution2: "'ss01' Style Set 1 in Latin lookup 20 subtable" g.ss01
Substitution2: "'salt' Stylistic Alternatives in Latin lookup 19 subtable" g.ss01
AlternateSubs2: "'aalt' Access All Alternates in Latin lookup 1 subtable" g.ss01 g.ss03
EndChar

StartChar: g.ss01
Encoding: 65703 -1 469
Width: 662
GlyphClass: 2
Flags: W
AnchorPoint: "Anchor-6" 331 536 basechar 0
AnchorPoint: "Anchor-4" 331 -240 basechar 0
LayerCount: 2
Fore
SplineSet
138 -145 m 1,0,-1
 510 -145 l 1,1,-1
 510 107 l 1,2,3
 480 60 480 60 429.5 34 c 128,-1,4
 379 8 379 8 319 8 c 0,5,6
 245 8 245 8 184.5 44 c 128,-1,7
 124 80 124 80 89.5 141.5 c 128,-1,8
 55 203 55 203 55 278 c 256,9,10
 55 353 55 353 89.5 414.5 c 128,-1,11
 124 476 124 476 184 512 c 128,-1,12
 244 548 244 548 319 548 c 0,13,14
 377 548 377 548 427 523 c 128,-1,15
 477 498 477 498 510 455 c 1,16,-1
 510 536 l 1,17,-1
 585 536 l 1,18,-1
 585 -220 l 1,19,-1
 138 -220 l 1,20,-1
 138 -145 l 1,0,-1
159.5 180.5 m 128,-1,22
 184 136 184 136 227 109.5 c 128,-1,23
 270 83 270 83 323 83 c 0,24,25
 374 83 374 83 417 109.5 c 128,-1,26
 460 136 460 136 485 181 c 128,-1,27
 510 226 510 226 510 278 c 256,28,29
 510 330 510 330 485 375 c 128,-1,30
 460 420 460 420 417 446.5 c 128,-1,31
 374 473 374 473 323 473 c 0,32,33
 271 473 271 473 227.5 446.5 c 128,-1,34
 184 420 184 420 159.5 375.5 c 128,-1,35
 135 331 135 331 135 278 c 256,36,21
 135 225 135 225 159.5 180.5 c 128,-1,22
EndSplineSet
Validated: 1
EndChar

StartChar: g.ss03
Encoding: 65704 -1 470
Width: 662
GlyphClass: 2
Flags: W
AnchorPoint: "Anchor-6" 331 536 basechar 0
AnchorPoint: "Anchor-4" 331 -240 basechar 0
LayerCount: 2
Fore
SplineSet
128 -145 m 1,0,-1
 337 -145 l 2,1,2
 415 -145 415 -145 462.5 -106 c 128,-1,3
 510 -67 510 -67 510 -3 c 2,4,-1
 510 107 l 1,5,6
 480 60 480 60 429.5 34 c 128,-1,7
 379 8 379 8 319 8 c 0,8,9
 245 8 245 8 184.5 44 c 128,-1,10
 124 80 124 80 89.5 141.5 c 128,-1,11
 55 203 55 203 55 278 c 256,12,13
 55 353 55 353 89.5 414.5 c 128,-1,14
 124 476 124 476 184 512 c 128,-1,15
 244 548 244 548 319 548 c 0,16,17
 377 548 377 548 427 523 c 128,-1,18
 477 498 477 498 510 455 c 1,19,-1
 510 536 l 1,20,-1
 585 536 l 1,21,-1
 585 -3 l 2,22,23
 585 -67 585 -67 554 -116.5 c 128,-1,24
 523 -166 523 -166 467 -193 c 128,-1,25
 411 -220 411 -220 337 -220 c 2,26,-1
 128 -220 l 1,27,-1
 128 -145 l 1,0,-1
159.5 180.5 m 128,-1,29
 184 136 184 136 227 109.5 c 128,-1,30
 270 83 270 83 323 83 c 0,31,32
 374 83 374 83 417 109.5 c 128,-1,33
 460 136 460 136 485 181 c 128,-1,34
 510 226 510 226 510 278 c 256,35,36
 510 330 510 330 485 375 c 128,-1,37
 460 420 460 420 417 446.5 c 128,-1,38
 374 473 374 473 323 473 c 0,39,40
 271 473 271 473 227.5 446.5 c 128,-1,41
 184 420 184 420 159.5 375.5 c 128,-1,42
 135 331 135 331 135 278 c 256,43,28
 135 225 135 225 159.5 180.5 c 128,-1,29
EndSplineSet
Validated: 1
EndChar

StartChar: h
Encoding: 104 104 489
Width: 573
GlyphClass: 2
Flags: W
AnchorPoint: "Anchor-6" 115 745 basechar 0
AnchorPoint: "Anchor-4" 287 0 basechar 0
LayerCount: 2
Fore
SplineSet
77 757 m 1,0,-1
 152 757 l 1,1,-1
 152 470 l 1,2,3
 176 507 176 507 216.5 527.5 c 128,-1,4
 257 548 257 548 306 548 c 0,5,6
 362 548 362 548 408 522 c 128,-1,7
 454 496 454 496 480.5 450 c 128,-1,8
 507 404 507 404 507 348 c 2,9,-1
 507 0 l 1,10,-1
 432 0 l 1,11,-1
 432 319 l 2,12,13
 432 390 432 390 393 431.5 c 128,-1,14
 354 473 354 473 293 473 c 256,15,16
 232 473 232 473 192 431 c 128,-1,17
 152 389 152 389 152 319 c 2,18,-1
 152 0 l 1,19,-1
 77 0 l 1,20,-1
 77 757 l 1,0,-1
EndSplineSet
Validated: 1
Substitution2: "'ss03' Style Set 3 in Latin lookup 22 subtable" h.ss03
Substitution2: "'ss01' Style Set 1 in Latin lookup 20 subtable" h.ss01
Substitution2: "'salt' Stylistic Alternatives in Latin lookup 19 subtable" h.ss01
AlternateSubs2: "'aalt' Access All Alternates in Latin lookup 1 subtable" h.ss01 h.ss03
EndChar

StartChar: h.ss01
Encoding: 65717 -1 490
Width: 573
GlyphClass: 2
Flags: W
AnchorPoint: "Anchor-6" 115 745 basechar 0
AnchorPoint: "Anchor-4" 287 0 basechar 0
LayerCount: 2
Fore
SplineSet
432 461 m 1,0,-1
 152 461 l 1,1,-1
 152 0 l 1,2,-1
 77 0 l 1,3,-1
 77 757 l 1,4,-1
 152 757 l 1,5,-1
 152 536 l 1,6,-1
 507 536 l 1,7,-1
 507 0 l 1,8,-1
 432 0 l 1,9,-1
 432 461 l 1,0,-1
EndSplineSet
Validated: 1
EndChar

StartChar: h.ss03
Encoding: 65718 -1 491
Width: 573
GlyphClass: 2
Flags: W
AnchorPoint: "Anchor-6" 115 745 basechar 0
AnchorPoint: "Anchor-4" 287 0 basechar 0
LayerCount: 2
Fore
SplineSet
77 757 m 1,0,-1
 152 757 l 1,1,-1
 152 536 l 1,2,-1
 295 536 l 2,3,4
 395 536 395 536 451 480.5 c 128,-1,5
 507 425 507 425 507 327 c 2,6,-1
 507 0 l 1,7,-1
 432 0 l 1,8,-1
 432 327 l 2,9,10
 432 390 432 390 395.5 425.5 c 128,-1,11
 359 461 359 461 295 461 c 2,12,-1
 152 461 l 1,13,-1
 152 0 l 1,14,-1
 77 0 l 1,15,-1
 77 757 l 1,0,-1
EndSplineSet
Validated: 1
EndChar

StartChar: hbar
Encoding: 295 295 492
Width: 573
GlyphClass: 2
Flags: W
AnchorPoint: "Anchor-6" 115 745 basechar 0
AnchorPoint: "Anchor-4" 287 0 basechar 0
LayerCount: 2
Fore
SplineSet
77 607 m 1,0,-1
 -10 607 l 1,1,-1
 -10 672 l 1,2,-1
 77 672 l 1,3,-1
 77 757 l 1,4,-1
 152 757 l 1,5,-1
 152 672 l 1,6,-1
 240 672 l 1,7,-1
 240 607 l 1,8,-1
 152 607 l 1,9,-1
 152 470 l 1,10,11
 176 507 176 507 216.5 527.5 c 128,-1,12
 257 548 257 548 306 548 c 0,13,14
 362 548 362 548 408 522 c 128,-1,15
 454 496 454 496 480.5 450 c 128,-1,16
 507 404 507 404 507 348 c 2,17,-1
 507 0 l 1,18,-1
 432 0 l 1,19,-1
 432 319 l 2,20,21
 432 390 432 390 393 431.5 c 128,-1,22
 354 473 354 473 293 473 c 256,23,24
 232 473 232 473 192 431 c 128,-1,25
 152 389 152 389 152 319 c 2,26,-1
 152 0 l 1,27,-1
 77 0 l 1,28,-1
 77 607 l 1,0,-1
EndSplineSet
Validated: 1
Substitution2: "'ss03' Style Set 3 in Latin lookup 22 subtable" hbar.ss03
Substitution2: "'ss01' Style Set 1 in Latin lookup 20 subtable" hbar.ss01
Substitution2: "'salt' Stylistic Alternatives in Latin lookup 19 subtable" hbar.ss01
AlternateSubs2: "'aalt' Access All Alternates in Latin lookup 1 subtable" hbar.ss01 hbar.ss03
EndChar

StartChar: hbar.ss01
Encoding: 65719 -1 493
Width: 573
GlyphClass: 2
Flags: W
AnchorPoint: "Anchor-6" 115 745 basechar 0
AnchorPoint: "Anchor-4" 287 0 basechar 0
LayerCount: 2
Fore
SplineSet
432 461 m 1,0,-1
 152 461 l 1,1,-1
 152 0 l 1,2,-1
 77 0 l 1,3,-1
 77 607 l 1,4,-1
 -10 607 l 1,5,-1
 -10 672 l 1,6,-1
 77 672 l 1,7,-1
 77 757 l 1,8,-1
 152 757 l 1,9,-1
 152 672 l 1,10,-1
 240 672 l 1,11,-1
 240 607 l 1,12,-1
 152 607 l 1,13,-1
 152 536 l 1,14,-1
 507 536 l 1,15,-1
 507 0 l 1,16,-1
 432 0 l 1,17,-1
 432 461 l 1,0,-1
EndSplineSet
Validated: 1
EndChar

StartChar: hbar.ss03
Encoding: 65720 -1 494
Width: 573
GlyphClass: 2
Flags: W
AnchorPoint: "Anchor-6" 115 745 basechar 0
AnchorPoint: "Anchor-4" 287 0 basechar 0
LayerCount: 2
Fore
SplineSet
77 607 m 1,0,-1
 -10 607 l 1,1,-1
 -10 672 l 1,2,-1
 77 672 l 1,3,-1
 77 757 l 1,4,-1
 152 757 l 1,5,-1
 152 672 l 1,6,-1
 240 672 l 1,7,-1
 240 607 l 1,8,-1
 152 607 l 1,9,-1
 152 536 l 1,10,-1
 295 536 l 2,11,12
 395 536 395 536 451 480.5 c 128,-1,13
 507 425 507 425 507 327 c 2,14,-1
 507 0 l 1,15,-1
 432 0 l 1,16,-1
 432 327 l 2,17,18
 432 390 432 390 395.5 425.5 c 128,-1,19
 359 461 359 461 295 461 c 2,20,-1
 152 461 l 1,21,-1
 152 0 l 1,22,-1
 77 0 l 1,23,-1
 77 607 l 1,0,-1
EndSplineSet
Validated: 1
EndChar

StartChar: i
Encoding: 105 105 504
Width: 229
GlyphClass: 2
Flags: W
AnchorPoint: "Anchor-4" 115 0 basechar 0
LayerCount: 2
Fore
SplineSet
77 536 m 1,0,-1
 152 536 l 1,1,-1
 152 0 l 1,2,-1
 77 0 l 1,3,-1
 77 536 l 1,0,-1
80 712 m 128,-1,5
 94 726 94 726 115 726 c 256,6,7
 136 726 136 726 150 712 c 128,-1,8
 164 698 164 698 164 677 c 256,9,10
 164 656 164 656 150 642 c 128,-1,11
 136 628 136 628 115 628 c 256,12,13
 94 628 94 628 80 642 c 128,-1,14
 66 656 66 656 66 677 c 256,15,4
 66 698 66 698 80 712 c 128,-1,5
EndSplineSet
Validated: 1
Substitution2: "Single Substitution lookup 25 subtable" dotlessi
Substitution2: "'ss01' Style Set 1 in Latin lookup 20 subtable" i.ss01
Substitution2: "'salt' Stylistic Alternatives in Latin lookup 19 subtable" i.ss01
Substitution2: "'locl' Localized Forms in Latin lookup 5 subtable" i.loclTRK
AlternateSubs2: "'aalt' Access All Alternates in Latin lookup 1 subtable" i.loclTRK i.ss01
EndChar

StartChar: i.ss01
Encoding: 65727 -1 505
Width: 266
GlyphClass: 2
Flags: W
AnchorPoint: "Anchor-4" 152 0 basechar 0
LayerCount: 2
Fore
SplineSet
114 461 m 1,0,-1
 39 461 l 1,1,-1
 39 536 l 1,2,-1
 189 536 l 1,3,-1
 189 0 l 1,4,-1
 114 0 l 1,5,-1
 114 461 l 1,0,-1
114 745 m 1,6,-1
 189 745 l 1,7,-1
 189 635 l 1,8,-1
 114 635 l 1,9,-1
 114 745 l 1,6,-1
EndSplineSet
Validated: 1
EndChar

StartChar: dotlessi
Encoding: 305 305 506
Width: 199
GlyphClass: 2
Flags: W
AnchorPoint: "Anchor-6" 99 536 basechar 0
AnchorPoint: "Anchor-5" 100 40 basechar 0
AnchorPoint: "Anchor-4" 99 0 basechar 0
LayerCount: 2
Fore
SplineSet
62 536 m 1,0,-1
 137 536 l 1,1,-1
 137 0 l 1,2,-1
 62 0 l 1,3,-1
 62 536 l 1,0,-1
EndSplineSet
Validated: 1
Substitution2: "'ss01' Style Set 1 in Latin lookup 20 subtable" dotlessi.ss01
Substitution2: "'salt' Stylistic Alternatives in Latin lookup 19 subtable" dotlessi.ss01
Substitution2: "'aalt' Access All Alternates in Latin lookup 0 subtable" dotlessi.ss01
EndChar

StartChar: dotlessi.ss01
Encoding: 65728 -1 507
Width: 243
GlyphClass: 2
Flags: W
AnchorPoint: "Anchor-6" 144 536 basechar 0
AnchorPoint: "Anchor-5" 144 40 basechar 0
AnchorPoint: "Anchor-4" 144 0 basechar 0
LayerCount: 2
Fore
SplineSet
106 461 m 1,0,-1
 31 461 l 1,1,-1
 31 536 l 1,2,-1
 181 536 l 1,3,-1
 181 0 l 1,4,-1
 106 0 l 1,5,-1
 106 461 l 1,0,-1
EndSplineSet
Validated: 1
EndChar

StartChar: iogonek
Encoding: 303 303 532
Width: 199
GlyphClass: 2
Flags: W
AnchorPoint: "Anchor-6" 99 536 basechar 0
AnchorPoint: "Anchor-5" 100 40 basechar 0
AnchorPoint: "Anchor-4" 99 0 basechar 0
LayerCount: 2
Fore
SplineSet
57.5 676.5 m 128,-1,1
 41 693 41 693 41 718 c 0,2,3
 41 742 41 742 57.5 758.5 c 128,-1,4
 74 775 74 775 99 775 c 0,5,6
 123 775 123 775 139.5 758.5 c 128,-1,7
 156 742 156 742 156 718 c 0,8,9
 156 693 156 693 139.5 676.5 c 128,-1,10
 123 660 123 660 99 660 c 0,11,0
 74 660 74 660 57.5 676.5 c 128,-1,1
1 -15.5 m 128,-1,13
 22 12 22 12 62 31 c 1,14,-1
 62 536 l 1,15,-1
 137 536 l 1,16,-1
 137 0 l 1,17,-1
 70 0 l 1,18,19
 32 -29 32 -29 32 -65 c 0,20,21
 32 -87 32 -87 45.5 -99.5 c 128,-1,22
 59 -112 59 -112 83 -112 c 0,23,24
 116 -112 116 -112 153 -85 c 1,25,-1
 178 -122 l 1,26,27
 134 -160 134 -160 79 -160 c 0,28,29
 36 -160 36 -160 8 -137 c 128,-1,30
 -20 -114 -20 -114 -20 -76 c 0,31,12
 -20 -43 -20 -43 1 -15.5 c 128,-1,13
EndSplineSet
Validated: 1
Substitution2: "'ss01' Style Set 1 in Latin lookup 20 subtable" iogonek.ss01
Substitution2: "'salt' Stylistic Alternatives in Latin lookup 19 subtable" iogonek.ss01
Substitution2: "'aalt' Access All Alternates in Latin lookup 0 subtable" iogonek.ss01
EndChar

StartChar: iogonek.ss01
Encoding: 65742 -1 533
Width: 243
GlyphClass: 2
Flags: W
AnchorPoint: "Anchor-6" 144 536 basechar 0
AnchorPoint: "Anchor-5" 144 40 basechar 0
AnchorPoint: "Anchor-4" 144 0 basechar 0
LayerCount: 2
Fore
SplineSet
102.5 676.5 m 128,-1,1
 86 693 86 693 86 718 c 0,2,3
 86 742 86 742 102.5 758.5 c 128,-1,4
 119 775 119 775 144 775 c 0,5,6
 168 775 168 775 184.5 758.5 c 128,-1,7
 201 742 201 742 201 718 c 0,8,9
 201 693 201 693 184.5 676.5 c 128,-1,10
 168 660 168 660 144 660 c 0,11,0
 119 660 119 660 102.5 676.5 c 128,-1,1
45 -15.5 m 128,-1,13
 66 12 66 12 106 31 c 1,14,-1
 106 461 l 1,15,-1
 31 461 l 1,16,-1
 31 536 l 1,17,-1
 181 536 l 1,18,-1
 181 0 l 1,19,-1
 114 0 l 1,20,21
 76 -29 76 -29 76 -65 c 0,22,23
 76 -87 76 -87 89.5 -99.5 c 128,-1,24
 103 -112 103 -112 127 -112 c 0,25,26
 160 -112 160 -112 197 -85 c 1,27,-1
 222 -122 l 1,28,29
 178 -160 178 -160 123 -160 c 0,30,31
 80 -160 80 -160 52 -137 c 128,-1,32
 24 -114 24 -114 24 -76 c 0,33,12
 24 -43 24 -43 45 -15.5 c 128,-1,13
EndSplineSet
Validated: 1
EndChar

StartChar: j
Encoding: 106 106 536
Width: 229
GlyphClass: 1
Flags: W
LayerCount: 2
Fore
SplineSet
-63 -216 m 1,1,-1
 -63 -147 l 1,2,3
 -42 -150 -42 -150 -21 -150 c 0,4,5
 22 -150 22 -150 49.5 -124 c 128,-1,6
 77 -98 77 -98 77 -50 c 2,7,-1
 77 536 l 1,8,-1
 152 536 l 1,9,-1
 152 -50 l 2,10,11
 152 -130 152 -130 102 -175 c 128,-1,12
 52 -220 52 -220 -23 -220 c 0,13,0
 -50 -220 -50 -220 -63 -216 c 1,1,-1
80 712 m 128,-1,15
 94 726 94 726 115 726 c 256,16,17
 136 726 136 726 150 712 c 128,-1,18
 164 698 164 698 164 677 c 256,19,20
 164 656 164 656 150 642 c 128,-1,21
 136 628 136 628 115 628 c 256,22,23
 94 628 94 628 80 642 c 128,-1,24
 66 656 66 656 66 677 c 256,25,14
 66 698 66 698 80 712 c 128,-1,15
EndSplineSet
Validated: 1
Substitution2: "Single Substitution lookup 25 subtable" uni0237
Substitution2: "'ss02' Style Set 2 in Latin lookup 21 subtable" j.ss02
Substitution2: "'ss01' Style Set 1 in Latin lookup 20 subtable" j.ss01
Substitution2: "'salt' Stylistic Alternatives in Latin lookup 19 subtable" j.ss01
AlternateSubs2: "'aalt' Access All Alternates in Latin lookup 1 subtable" j.ss01 j.ss02
EndChar

StartChar: j.ss01
Encoding: 65744 -1 537
Width: 209
GlyphClass: 1
Flags: W
LayerCount: 2
Fore
SplineSet
-63 -150 m 1,0,-1
 57 -150 l 1,1,-1
 57 536 l 1,2,-1
 132 536 l 1,3,-1
 132 -220 l 1,4,-1
 -63 -220 l 1,5,-1
 -63 -150 l 1,0,-1
57 745 m 1,6,-1
 132 745 l 1,7,-1
 132 635 l 1,8,-1
 57 635 l 1,9,-1
 57 745 l 1,6,-1
EndSplineSet
Validated: 1
EndChar

StartChar: j.ss02
Encoding: 65745 -1 538
Width: 261
GlyphClass: 1
Flags: W
LayerCount: 2
Fore
SplineSet
-32 -216 m 1,1,-1
 -32 -147 l 1,2,3
 -11 -150 -11 -150 11 -150 c 0,4,5
 54 -150 54 -150 81.5 -124 c 128,-1,6
 109 -98 109 -98 109 -50 c 2,7,-1
 109 461 l 1,8,-1
 34 461 l 1,9,-1
 34 536 l 1,10,-1
 184 536 l 1,11,-1
 184 -50 l 2,12,13
 184 -130 184 -130 134 -175 c 128,-1,14
 84 -220 84 -220 9 -220 c 0,15,0
 -19 -220 -19 -220 -32 -216 c 1,1,-1
109 745 m 1,16,-1
 184 745 l 1,17,-1
 184 635 l 1,18,-1
 109 635 l 1,19,-1
 109 745 l 1,16,-1
EndSplineSet
Validated: 1
EndChar

StartChar: uni0237
Encoding: 567 567 539
Width: 229
GlyphClass: 2
Flags: W
AnchorPoint: "Anchor-6" 115 536 basechar 0
AnchorPoint: "Anchor-4" 115 -240 basechar 0
LayerCount: 2
Fore
SplineSet
-63 -216 m 1,1,-1
 -63 -147 l 1,2,3
 -42 -150 -42 -150 -21 -150 c 0,4,5
 22 -150 22 -150 49.5 -124 c 128,-1,6
 77 -98 77 -98 77 -50 c 2,7,-1
 77 536 l 1,8,-1
 152 536 l 1,9,-1
 152 -50 l 2,10,11
 152 -130 152 -130 102 -175 c 128,-1,12
 52 -220 52 -220 -23 -220 c 0,13,0
 -50 -220 -50 -220 -63 -216 c 1,1,-1
EndSplineSet
Validated: 1
Substitution2: "'ss02' Style Set 2 in Latin lookup 21 subtable" uni0237.ss02
Substitution2: "'ss01' Style Set 1 in Latin lookup 20 subtable" uni0237.ss01
Substitution2: "'salt' Stylistic Alternatives in Latin lookup 19 subtable" uni0237.ss01
AlternateSubs2: "'aalt' Access All Alternates in Latin lookup 1 subtable" uni0237.ss01 uni0237.ss02
EndChar

StartChar: uni0237.ss01
Encoding: 65746 -1 540
Width: 209
GlyphClass: 2
Flags: W
AnchorPoint: "Anchor-6" 95 536 basechar 0
AnchorPoint: "Anchor-4" 105 -240 basechar 0
LayerCount: 2
Fore
SplineSet
-63 -150 m 1,0,-1
 57 -150 l 1,1,-1
 57 536 l 1,2,-1
 132 536 l 1,3,-1
 132 -220 l 1,4,-1
 -63 -220 l 1,5,-1
 -63 -150 l 1,0,-1
EndSplineSet
Validated: 1
EndChar

StartChar: uni0237.ss02
Encoding: 65747 -1 541
Width: 271
GlyphClass: 2
Flags: W
AnchorPoint: "Anchor-6" 157 536 basechar 0
AnchorPoint: "Anchor-4" 157 -240 basechar 0
LayerCount: 2
Fore
SplineSet
-21 -216 m 1,1,-1
 -21 -147 l 1,2,3
 0 -150 0 -150 21 -150 c 0,4,5
 64 -150 64 -150 91.5 -124 c 128,-1,6
 119 -98 119 -98 119 -50 c 2,7,-1
 119 461 l 1,8,-1
 44 461 l 1,9,-1
 44 536 l 1,10,-1
 194 536 l 1,11,-1
 194 -50 l 2,12,13
 194 -130 194 -130 144 -175 c 128,-1,14
 94 -220 94 -220 19 -220 c 0,15,0
 -8 -220 -8 -220 -21 -216 c 1,1,-1
EndSplineSet
Validated: 1
EndChar

StartChar: k
Encoding: 107 107 545
Width: 548
GlyphClass: 2
Flags: W
AnchorPoint: "Anchor-6" 274 784 basechar 0
AnchorPoint: "Anchor-4" 274 0 basechar 0
LayerCount: 2
Fore
SplineSet
77 757 m 1,0,-1
 152 757 l 1,1,-1
 152 264 l 1,2,-1
 421 536 l 1,3,-1
 518 536 l 1,4,-1
 308 321 l 1,5,-1
 537 0 l 1,6,-1
 447 0 l 1,7,-1
 254 266 l 1,8,-1
 152 161 l 1,9,-1
 152 0 l 1,10,-1
 77 0 l 1,11,-1
 77 757 l 1,0,-1
EndSplineSet
Validated: 1
Substitution2: "'ss01' Style Set 1 in Latin lookup 20 subtable" k.ss01
Substitution2: "'salt' Stylistic Alternatives in Latin lookup 19 subtable" k.ss01
Substitution2: "'aalt' Access All Alternates in Latin lookup 0 subtable" k.ss01
EndChar

StartChar: k.ss01
Encoding: 65750 -1 546
Width: 548
GlyphClass: 1
Flags: W
LayerCount: 2
Fore
SplineSet
269 247 m 1,0,-1
 152 247 l 1,1,-1
 152 0 l 1,2,-1
 77 0 l 1,3,-1
 77 757 l 1,4,-1
 152 757 l 1,5,-1
 152 322 l 1,6,-1
 270 322 l 1,7,-1
 414 536 l 1,8,-1
 505 536 l 1,9,-1
 336 285 l 1,10,-1
 537 0 l 1,11,-1
 447 0 l 1,12,-1
 269 247 l 1,0,-1
EndSplineSet
Validated: 1
EndChar

StartChar: kgreenlandic
Encoding: 312 312 549
Width: 548
GlyphClass: 1
Flags: W
LayerCount: 2
Fore
SplineSet
269 247 m 1,0,-1
 152 247 l 1,1,-1
 152 0 l 1,2,-1
 77 0 l 1,3,-1
 77 536 l 1,4,-1
 152 536 l 1,5,-1
 152 322 l 1,6,-1
 270 322 l 1,7,-1
 414 536 l 1,8,-1
 505 536 l 1,9,-1
 336 285 l 1,10,-1
 537 0 l 1,11,-1
 447 0 l 1,12,-1
 269 247 l 1,0,-1
EndSplineSet
Validated: 1
EndChar

StartChar: l
Encoding: 108 108 550
Width: 229
GlyphClass: 2
Flags: W
AnchorPoint: "Anchor-7" 229 595 basechar 0
AnchorPoint: "Anchor-6" 115 745 basechar 0
AnchorPoint: "Anchor-4" 115 0 basechar 0
LayerCount: 2
Fore
SplineSet
77 757 m 1,0,-1
 152 757 l 1,1,-1
 152 0 l 1,2,-1
 77 0 l 1,3,-1
 77 757 l 1,0,-1
EndSplineSet
Validated: 1
Substitution2: "'ss03' Style Set 3 in Latin lookup 22 subtable" l.ss03
Substitution2: "'ss01' Style Set 1 in Latin lookup 20 subtable" l.ss01
Substitution2: "'salt' Stylistic Alternatives in Latin lookup 19 subtable" l.ss01
AlternateSubs2: "'aalt' Access All Alternates in Latin lookup 1 subtable" l.ss01 l.ss03
EndChar

StartChar: l.ss01
Encoding: 65752 -1 551
Width: 266
GlyphClass: 2
Flags: W
AnchorPoint: "Anchor-7" 229 595 basechar 0
AnchorPoint: "Anchor-6" 115 745 basechar 0
AnchorPoint: "Anchor-4" 115 0 basechar 0
LayerCount: 2
Fore
SplineSet
77 757 m 1,0,-1
 152 757 l 1,1,-1
 152 70 l 1,2,-1
 227 70 l 1,3,-1
 227 0 l 1,4,-1
 77 0 l 1,5,-1
 77 757 l 1,0,-1
EndSplineSet
Validated: 1
EndChar

StartChar: l.ss03
Encoding: 65753 -1 552
Width: 266
GlyphClass: 2
Flags: W
AnchorPoint: "Anchor-7" 229 595 basechar 0
AnchorPoint: "Anchor-6" 115 745 basechar 0
AnchorPoint: "Anchor-4" 115 0 basechar 0
LayerCount: 2
Fore
SplineSet
111.5 24.5 m 128,-1,1
 77 55 77 55 77 114 c 2,2,-1
 77 757 l 1,3,-1
 152 757 l 1,4,-1
 152 120 l 2,5,6
 152 90 152 90 169 74.5 c 128,-1,7
 186 59 186 59 218 59 c 2,8,-1
 227 59 l 1,9,-1
 227 -6 l 1,10,-1
 210 -6 l 2,11,0
 146 -6 146 -6 111.5 24.5 c 128,-1,1
EndSplineSet
Validated: 1
EndChar

StartChar: ldot
Encoding: 320 320 562
Width: 376
GlyphClass: 2
Flags: W
AnchorPoint: "Anchor-7" 229 595 basechar 0
AnchorPoint: "Anchor-6" 115 745 basechar 0
AnchorPoint: "Anchor-4" 115 0 basechar 0
LayerCount: 2
Fore
SplineSet
77 757 m 1,0,-1
 152 757 l 1,1,-1
 152 0 l 1,2,-1
 77 0 l 1,3,-1
 77 757 l 1,0,-1
238.5 413.5 m 128,-1,5
 255 430 255 430 280 430 c 0,6,7
 304 430 304 430 320.5 413.5 c 128,-1,8
 337 397 337 397 337 373 c 0,9,10
 337 348 337 348 320.5 331.5 c 128,-1,11
 304 315 304 315 280 315 c 0,12,13
 255 315 255 315 238.5 331.5 c 128,-1,14
 222 348 222 348 222 373 c 0,15,4
 222 397 222 397 238.5 413.5 c 128,-1,5
EndSplineSet
Validated: 1
Substitution2: "'ss03' Style Set 3 in Latin lookup 22 subtable" ldot.ss03
Substitution2: "'ss01' Style Set 1 in Latin lookup 20 subtable" ldot.ss01
Substitution2: "'salt' Stylistic Alternatives in Latin lookup 19 subtable" ldot.ss01
AlternateSubs2: "'aalt' Access All Alternates in Latin lookup 1 subtable" ldot.ss01 ldot.ss03
EndChar

StartChar: ldot.ss01
Encoding: 65760 -1 563
Width: 376
GlyphClass: 2
Flags: W
AnchorPoint: "Anchor-7" 229 595 basechar 0
AnchorPoint: "Anchor-6" 115 745 basechar 0
AnchorPoint: "Anchor-4" 115 0 basechar 0
LayerCount: 2
Fore
SplineSet
77 757 m 1,0,-1
 152 757 l 1,1,-1
 152 70 l 1,2,-1
 227 70 l 1,3,-1
 227 0 l 1,4,-1
 77 0 l 1,5,-1
 77 757 l 1,0,-1
238.5 413.5 m 128,-1,7
 255 430 255 430 280 430 c 0,8,9
 304 430 304 430 320.5 413.5 c 128,-1,10
 337 397 337 397 337 373 c 0,11,12
 337 348 337 348 320.5 331.5 c 128,-1,13
 304 315 304 315 280 315 c 0,14,15
 255 315 255 315 238.5 331.5 c 128,-1,16
 222 348 222 348 222 373 c 0,17,6
 222 397 222 397 238.5 413.5 c 128,-1,7
EndSplineSet
Validated: 1
EndChar

StartChar: ldot.ss03
Encoding: 65761 -1 564
Width: 376
GlyphClass: 2
Flags: W
AnchorPoint: "Anchor-7" 229 595 basechar 0
AnchorPoint: "Anchor-6" 115 745 basechar 0
AnchorPoint: "Anchor-4" 115 0 basechar 0
LayerCount: 2
Fore
SplineSet
111.5 24.5 m 128,-1,1
 77 55 77 55 77 114 c 2,2,-1
 77 757 l 1,3,-1
 152 757 l 1,4,-1
 152 120 l 2,5,6
 152 90 152 90 169 74.5 c 128,-1,7
 186 59 186 59 218 59 c 2,8,-1
 227 59 l 1,9,-1
 227 -6 l 1,10,-1
 210 -6 l 2,11,0
 146 -6 146 -6 111.5 24.5 c 128,-1,1
238.5 413.5 m 128,-1,13
 255 430 255 430 280 430 c 0,14,15
 304 430 304 430 320.5 413.5 c 128,-1,16
 337 397 337 397 337 373 c 0,17,18
 337 348 337 348 320.5 331.5 c 128,-1,19
 304 315 304 315 280 315 c 0,20,21
 255 315 255 315 238.5 331.5 c 128,-1,22
 222 348 222 348 222 373 c 0,23,12
 222 397 222 397 238.5 413.5 c 128,-1,13
EndSplineSet
Validated: 1
EndChar

StartChar: lslash
Encoding: 322 322 572
Width: 229
GlyphClass: 2
Flags: W
AnchorPoint: "Anchor-7" 229 595 basechar 0
AnchorPoint: "Anchor-6" 115 745 basechar 0
AnchorPoint: "Anchor-4" 115 0 basechar 0
LayerCount: 2
Fore
SplineSet
77 342 m 1,0,-1
 -10 307 l 1,1,-1
 -10 377 l 1,2,-1
 77 412 l 1,3,-1
 77 757 l 1,4,-1
 152 757 l 1,5,-1
 152 442 l 1,6,-1
 240 477 l 1,7,-1
 240 407 l 1,8,-1
 152 372 l 1,9,-1
 152 0 l 1,10,-1
 77 0 l 1,11,-1
 77 342 l 1,0,-1
EndSplineSet
Validated: 1
Substitution2: "'ss03' Style Set 3 in Latin lookup 22 subtable" lslash.ss03
Substitution2: "'ss01' Style Set 1 in Latin lookup 20 subtable" lslash.ss01
Substitution2: "'salt' Stylistic Alternatives in Latin lookup 19 subtable" lslash.ss01
AlternateSubs2: "'aalt' Access All Alternates in Latin lookup 1 subtable" lslash.ss01 lslash.ss03
EndChar

StartChar: lslash.ss01
Encoding: 65766 -1 573
Width: 266
GlyphClass: 2
Flags: W
AnchorPoint: "Anchor-7" 229 595 basechar 0
AnchorPoint: "Anchor-6" 115 745 basechar 0
AnchorPoint: "Anchor-4" 115 0 basechar 0
LayerCount: 2
Fore
SplineSet
77 342 m 1,0,-1
 -10 307 l 1,1,-1
 -10 377 l 1,2,-1
 77 412 l 1,3,-1
 77 757 l 1,4,-1
 152 757 l 1,5,-1
 152 442 l 1,6,-1
 240 477 l 1,7,-1
 240 407 l 1,8,-1
 152 372 l 1,9,-1
 152 70 l 1,10,-1
 227 70 l 1,11,-1
 227 0 l 1,12,-1
 77 0 l 1,13,-1
 77 342 l 1,0,-1
EndSplineSet
Validated: 1
EndChar

StartChar: lslash.ss03
Encoding: 65767 -1 574
Width: 266
GlyphClass: 2
Flags: W
AnchorPoint: "Anchor-7" 229 595 basechar 0
AnchorPoint: "Anchor-6" 115 745 basechar 0
AnchorPoint: "Anchor-4" 115 0 basechar 0
LayerCount: 2
Fore
SplineSet
111.5 24.5 m 128,-1,1
 77 55 77 55 77 114 c 2,2,-1
 77 342 l 1,3,-1
 -10 307 l 1,4,-1
 -10 377 l 1,5,-1
 77 412 l 1,6,-1
 77 757 l 1,7,-1
 152 757 l 1,8,-1
 152 442 l 1,9,-1
 240 477 l 1,10,-1
 240 407 l 1,11,-1
 152 372 l 1,12,-1
 152 120 l 2,13,14
 152 90 152 90 169 74.5 c 128,-1,15
 186 59 186 59 218 59 c 2,16,-1
 227 59 l 1,17,-1
 227 -6 l 1,18,-1
 210 -6 l 2,19,0
 146 -6 146 -6 111.5 24.5 c 128,-1,1
EndSplineSet
Validated: 1
EndChar

StartChar: m
Encoding: 109 109 575
Width: 908
GlyphClass: 2
Flags: W
AnchorPoint: "Anchor-6" 454 536 basechar 0
AnchorPoint: "Anchor-4" 454 0 basechar 0
LayerCount: 2
Fore
SplineSet
77 536 m 1,0,-1
 152 536 l 1,1,-1
 152 470 l 1,2,3
 176 507 176 507 215.5 527.5 c 128,-1,4
 255 548 255 548 301 548 c 0,5,6
 356 548 356 548 402 520.5 c 128,-1,7
 448 493 448 493 473 446 c 1,8,9
 497 495 497 495 542.5 521.5 c 128,-1,10
 588 548 588 548 642 548 c 256,11,12
 696 548 696 548 741.5 521.5 c 128,-1,13
 787 495 787 495 814.5 449.5 c 128,-1,14
 842 404 842 404 842 348 c 2,15,-1
 842 0 l 1,16,-1
 767 0 l 1,17,-1
 767 319 l 2,18,19
 767 390 767 390 729.5 431.5 c 128,-1,20
 692 473 692 473 633 473 c 256,21,22
 574 473 574 473 535.5 431 c 128,-1,23
 497 389 497 389 497 319 c 2,24,-1
 497 0 l 1,25,-1
 422 0 l 1,26,-1
 422 319 l 2,27,28
 422 390 422 390 384.5 431.5 c 128,-1,29
 347 473 347 473 288 473 c 256,30,31
 229 473 229 473 190.5 431 c 128,-1,32
 152 389 152 389 152 319 c 2,33,-1
 152 0 l 1,34,-1
 77 0 l 1,35,-1
 77 536 l 1,0,-1
EndSplineSet
Validated: 1
Substitution2: "'ss03' Style Set 3 in Latin lookup 22 subtable" m.ss03
Substitution2: "'ss01' Style Set 1 in Latin lookup 20 subtable" m.ss01
Substitution2: "'salt' Stylistic Alternatives in Latin lookup 19 subtable" m.ss01
AlternateSubs2: "'aalt' Access All Alternates in Latin lookup 1 subtable" m.ss01 m.ss03
EndChar

StartChar: m.ss01
Encoding: 65768 -1 576
Width: 908
GlyphClass: 1
Flags: W
LayerCount: 2
Fore
SplineSet
77 536 m 1,0,-1
 842 536 l 1,1,-1
 842 0 l 1,2,-1
 767 0 l 1,3,-1
 767 461 l 1,4,-1
 497 461 l 1,5,-1
 497 0 l 1,6,-1
 422 0 l 1,7,-1
 422 461 l 1,8,-1
 152 461 l 1,9,-1
 152 0 l 1,10,-1
 77 0 l 1,11,-1
 77 536 l 1,0,-1
EndSplineSet
Validated: 1
EndChar

StartChar: m.ss03
Encoding: 65769 -1 577
Width: 908
GlyphClass: 2
Flags: W
AnchorPoint: "Anchor-6" 454 536 basechar 0
AnchorPoint: "Anchor-4" 454 0 basechar 0
LayerCount: 2
Fore
SplineSet
77 536 m 1,0,-1
 630 536 l 2,1,2
 730 536 730 536 786 480.5 c 128,-1,3
 842 425 842 425 842 327 c 2,4,-1
 842 0 l 1,5,-1
 767 0 l 1,6,-1
 767 327 l 2,7,8
 767 390 767 390 730.5 425.5 c 128,-1,9
 694 461 694 461 630 461 c 2,10,-1
 497 461 l 1,11,-1
 497 0 l 1,12,-1
 422 0 l 1,13,-1
 422 461 l 1,14,-1
 152 461 l 1,15,-1
 152 0 l 1,16,-1
 77 0 l 1,17,-1
 77 536 l 1,0,-1
EndSplineSet
Validated: 1
EndChar

StartChar: n
Encoding: 110 110 581
Width: 573
GlyphClass: 2
Flags: W
AnchorPoint: "Anchor-6" 287 536 basechar 0
AnchorPoint: "Anchor-4" 287 0 basechar 0
LayerCount: 2
Fore
SplineSet
77 536 m 1,0,-1
 152 536 l 1,1,-1
 152 470 l 1,2,3
 176 507 176 507 216.5 527.5 c 128,-1,4
 257 548 257 548 306 548 c 0,5,6
 362 548 362 548 408 522 c 128,-1,7
 454 496 454 496 480.5 450 c 128,-1,8
 507 404 507 404 507 348 c 2,9,-1
 507 0 l 1,10,-1
 432 0 l 1,11,-1
 432 319 l 2,12,13
 432 391 432 391 394 432 c 128,-1,14
 356 473 356 473 293 473 c 256,15,16
 230 473 230 473 191 431.5 c 128,-1,17
 152 390 152 390 152 319 c 2,18,-1
 152 0 l 1,19,-1
 77 0 l 1,20,-1
 77 536 l 1,0,-1
EndSplineSet
Validated: 1
Substitution2: "'ss03' Style Set 3 in Latin lookup 22 subtable" n.ss03
Substitution2: "'ss01' Style Set 1 in Latin lookup 20 subtable" n.ss01
Substitution2: "'salt' Stylistic Alternatives in Latin lookup 19 subtable" n.ss01
AlternateSubs2: "'aalt' Access All Alternates in Latin lookup 1 subtable" n.ss01 n.ss03
EndChar

StartChar: n.ss01
Encoding: 65772 -1 582
Width: 584
GlyphClass: 2
Flags: W
AnchorPoint: "Anchor-6" 292 536 basechar 0
AnchorPoint: "Anchor-4" 292 0 basechar 0
LayerCount: 2
Fore
SplineSet
77 536 m 1,0,-1
 507 536 l 1,1,-1
 507 0 l 1,2,-1
 432 0 l 1,3,-1
 432 461 l 1,4,-1
 152 461 l 1,5,-1
 152 0 l 1,6,-1
 77 0 l 1,7,-1
 77 536 l 1,0,-1
EndSplineSet
Validated: 1
EndChar

StartChar: n.ss03
Encoding: 65773 -1 583
Width: 573
GlyphClass: 2
Flags: W
AnchorPoint: "Anchor-6" 287 536 basechar 0
AnchorPoint: "Anchor-4" 287 0 basechar 0
LayerCount: 2
Fore
SplineSet
77 536 m 1,0,-1
 295 536 l 2,1,2
 395 536 395 536 451 480.5 c 128,-1,3
 507 425 507 425 507 327 c 2,4,-1
 507 0 l 1,5,-1
 432 0 l 1,6,-1
 432 327 l 2,7,8
 432 390 432 390 395.5 425.5 c 128,-1,9
 359 461 359 461 295 461 c 2,10,-1
 152 461 l 1,11,-1
 152 0 l 1,12,-1
 77 0 l 1,13,-1
 77 536 l 1,0,-1
EndSplineSet
Validated: 1
EndChar

StartChar: eng
Encoding: 331 331 608
Width: 600
GlyphClass: 1
Flags: W
LayerCount: 2
Fore
SplineSet
280 -216 m 1,1,-1
 280 -147 l 1,2,3
 301 -150 301 -150 322 -150 c 0,4,5
 365 -150 365 -150 392.5 -124 c 128,-1,6
 420 -98 420 -98 420 -50 c 2,7,-1
 420 319 l 2,8,9
 420 391 420 391 382 432 c 128,-1,10
 344 473 344 473 281 473 c 256,11,12
 218 473 218 473 179 431.5 c 128,-1,13
 140 390 140 390 140 319 c 2,14,-1
 140 0 l 1,15,-1
 65 0 l 1,16,-1
 65 536 l 1,17,-1
 140 536 l 1,18,-1
 140 470 l 1,19,20
 164 507 164 507 204.5 527.5 c 128,-1,21
 245 548 245 548 294 548 c 0,22,23
 350 548 350 548 396 522 c 128,-1,24
 442 496 442 496 468.5 450 c 128,-1,25
 495 404 495 404 495 348 c 2,26,-1
 495 -50 l 2,27,28
 495 -130 495 -130 445 -175 c 128,-1,29
 395 -220 395 -220 320 -220 c 0,30,0
 293 -220 293 -220 280 -216 c 1,1,-1
EndSplineSet
Validated: 1
Substitution2: "'ss03' Style Set 3 in Latin lookup 22 subtable" eng.ss03
Substitution2: "'ss01' Style Set 1 in Latin lookup 20 subtable" eng.ss01
Substitution2: "'salt' Stylistic Alternatives in Latin lookup 19 subtable" eng.ss01
AlternateSubs2: "'aalt' Access All Alternates in Latin lookup 1 subtable" eng.ss01 eng.ss03
EndChar

StartChar: eng.ss01
Encoding: 65790 -1 609
Width: 573
GlyphClass: 1
Flags: W
LayerCount: 2
Fore
SplineSet
292 -216 m 1,1,-1
 292 -147 l 1,2,3
 313 -150 313 -150 334 -150 c 0,4,5
 377 -150 377 -150 404.5 -124 c 128,-1,6
 432 -98 432 -98 432 -50 c 2,7,-1
 432 461 l 1,8,-1
 152 461 l 1,9,-1
 152 0 l 1,10,-1
 77 0 l 1,11,-1
 77 536 l 1,12,-1
 507 536 l 1,13,-1
 507 -50 l 2,14,15
 507 -130 507 -130 457 -175 c 128,-1,16
 407 -220 407 -220 332 -220 c 0,17,0
 305 -220 305 -220 292 -216 c 1,1,-1
EndSplineSet
Validated: 1
EndChar

StartChar: eng.ss03
Encoding: 65791 -1 610
Width: 573
GlyphClass: 1
Flags: W
LayerCount: 2
Fore
SplineSet
292 -216 m 1,1,-1
 292 -147 l 1,2,3
 313 -150 313 -150 334 -150 c 0,4,5
 377 -150 377 -150 404.5 -124 c 128,-1,6
 432 -98 432 -98 432 -50 c 2,7,-1
 432 327 l 2,8,9
 432 390 432 390 395.5 425.5 c 128,-1,10
 359 461 359 461 295 461 c 2,11,-1
 152 461 l 1,12,-1
 152 0 l 1,13,-1
 77 0 l 1,14,-1
 77 536 l 1,15,-1
 295 536 l 2,16,17
 395 536 395 536 451 480.5 c 128,-1,18
 507 425 507 425 507 327 c 2,19,-1
 507 -50 l 2,20,21
 507 -130 507 -130 457 -175 c 128,-1,22
 407 -220 407 -220 332 -220 c 0,23,0
 305 -220 305 -220 292 -216 c 1,1,-1
EndSplineSet
Validated: 1
EndChar

StartChar: o
Encoding: 111 111 611
Width: 655
GlyphClass: 2
Flags: W
AnchorPoint: "Anchor-7" 635 536 basechar 0
AnchorPoint: "Anchor-6" 328 536 basechar 0
AnchorPoint: "Anchor-5" 378 40 basechar 0
AnchorPoint: "Anchor-4" 328 0 basechar 0
LayerCount: 2
Fore
SplineSet
190.5 24.5 m 128,-1,1
 128 61 128 61 91.5 125.5 c 128,-1,2
 55 190 55 190 55 269 c 256,3,4
 55 348 55 348 90.5 411.5 c 128,-1,5
 126 475 126 475 188.5 511.5 c 128,-1,6
 251 548 251 548 328 548 c 256,7,8
 405 548 405 548 467 512 c 128,-1,9
 529 476 529 476 564.5 412 c 128,-1,10
 600 348 600 348 600 269 c 0,11,12
 600 188 600 188 563.5 124 c 128,-1,13
 527 60 527 60 464.5 24 c 128,-1,14
 402 -12 402 -12 328 -12 c 0,15,0
 253 -12 253 -12 190.5 24.5 c 128,-1,1
160.5 164 m 128,-1,17
 186 117 186 117 230.5 90 c 128,-1,18
 275 63 275 63 328 63 c 256,19,20
 381 63 381 63 425 90 c 128,-1,21
 469 117 469 117 494.5 164.5 c 128,-1,22
 520 212 520 212 520 269 c 256,23,24
 520 326 520 326 494.5 372.5 c 128,-1,25
 469 419 469 419 425 446 c 128,-1,26
 381 473 381 473 328 473 c 256,27,28
 275 473 275 473 230.5 446 c 128,-1,29
 186 419 186 419 160.5 372.5 c 128,-1,30
 135 326 135 326 135 269 c 0,31,16
 135 211 135 211 160.5 164 c 128,-1,17
EndSplineSet
Validated: 1
Substitution2: "Single Substitution lookup 28 subtable" ordmasculine
Substitution2: "'aalt' Access All Alternates in Latin lookup 0 subtable" ordmasculine
EndChar

StartChar: ohorn
Encoding: 417 417 627
Width: 655
GlyphClass: 2
Flags: W
AnchorPoint: "Anchor-7" 635 536 basechar 0
AnchorPoint: "Anchor-6" 328 536 basechar 0
AnchorPoint: "Anchor-5" 378 40 basechar 0
AnchorPoint: "Anchor-4" 328 0 basechar 0
LayerCount: 2
Fore
SplineSet
190.5 24.5 m 128,-1,1
 128 61 128 61 91.5 125.5 c 128,-1,2
 55 190 55 190 55 269 c 256,3,4
 55 348 55 348 90.5 411.5 c 128,-1,5
 126 475 126 475 188.5 511.5 c 128,-1,6
 251 548 251 548 328 548 c 2,7,-1
 441 548 l 2,8,9
 492 548 492 548 492 601 c 0,10,11
 492 620 492 620 486.5 638 c 128,-1,12
 481 656 481 656 470 681 c 1,13,-1
 544 681 l 1,14,15
 555 656 555 656 561 636 c 128,-1,16
 567 616 567 616 567 594 c 0,17,18
 567 553 567 553 548 527.5 c 128,-1,19
 529 502 529 502 495 493 c 1,20,21
 544 455 544 455 572 397 c 128,-1,22
 600 339 600 339 600 269 c 0,23,24
 600 188 600 188 563.5 124 c 128,-1,25
 527 60 527 60 464.5 24 c 128,-1,26
 402 -12 402 -12 328 -12 c 0,27,0
 253 -12 253 -12 190.5 24.5 c 128,-1,1
160.5 164 m 128,-1,29
 186 117 186 117 230.5 90 c 128,-1,30
 275 63 275 63 328 63 c 256,31,32
 381 63 381 63 425 90 c 128,-1,33
 469 117 469 117 494.5 164.5 c 128,-1,34
 520 212 520 212 520 269 c 256,35,36
 520 326 520 326 494.5 372.5 c 128,-1,37
 469 419 469 419 425 446 c 128,-1,38
 381 473 381 473 328 473 c 256,39,40
 275 473 275 473 230.5 446 c 128,-1,41
 186 419 186 419 160.5 372.5 c 128,-1,42
 135 326 135 326 135 269 c 0,43,28
 135 211 135 211 160.5 164 c 128,-1,29
EndSplineSet
Validated: 1
EndChar

StartChar: uni01EB
Encoding: 491 491 638
Width: 655
GlyphClass: 2
Flags: W
AnchorPoint: "Anchor-7" 635 536 basechar 0
AnchorPoint: "Anchor-6" 328 536 basechar 0
AnchorPoint: "Anchor-5" 378 40 basechar 0
AnchorPoint: "Anchor-4" 328 0 basechar 0
LayerCount: 2
Fore
SplineSet
425 90 m 128,-1,1
 469 117 469 117 494.5 164.5 c 128,-1,2
 520 212 520 212 520 269 c 256,3,4
 520 326 520 326 494.5 372.5 c 128,-1,5
 469 419 469 419 425 446 c 128,-1,6
 381 473 381 473 328 473 c 256,7,8
 275 473 275 473 230.5 446 c 128,-1,9
 186 419 186 419 160.5 372.5 c 128,-1,10
 135 326 135 326 135 269 c 0,11,12
 135 211 135 211 160.5 164 c 128,-1,13
 186 117 186 117 230.5 90 c 128,-1,14
 275 63 275 63 328 63 c 256,15,0
 381 63 381 63 425 90 c 128,-1,1
90.5 411.5 m 128,-1,17
 126 475 126 475 188.5 511.5 c 128,-1,18
 251 548 251 548 328 548 c 256,19,20
 405 548 405 548 467 512 c 128,-1,21
 529 476 529 476 564.5 412 c 128,-1,22
 600 348 600 348 600 269 c 0,23,24
 600 189 600 189 564.5 125.5 c 128,-1,25
 529 62 529 62 468 25.5 c 128,-1,26
 407 -11 407 -11 334 -12 c 1,27,28
 310 -36 310 -36 310 -65 c 0,29,30
 310 -87 310 -87 323.5 -99.5 c 128,-1,31
 337 -112 337 -112 361 -112 c 0,32,33
 394 -112 394 -112 431 -85 c 1,34,-1
 456 -122 l 1,35,36
 412 -160 412 -160 357 -160 c 0,37,38
 314 -160 314 -160 286 -137 c 128,-1,39
 258 -114 258 -114 258 -76 c 0,40,41
 258 -40 258 -40 284 -9 c 1,42,43
 219 1 219 1 167 39.5 c 128,-1,44
 115 78 115 78 85 137.5 c 128,-1,45
 55 197 55 197 55 269 c 0,46,16
 55 348 55 348 90.5 411.5 c 128,-1,17
EndSplineSet
Validated: 1
EndChar

StartChar: oslash
Encoding: 248 248 639
Width: 655
GlyphClass: 2
Flags: W
AnchorPoint: "Anchor-7" 635 536 basechar 0
AnchorPoint: "Anchor-6" 328 536 basechar 0
AnchorPoint: "Anchor-5" 378 40 basechar 0
AnchorPoint: "Anchor-4" 328 0 basechar 0
LayerCount: 2
Fore
SplineSet
175 34 m 1,1,-1
 147 0 l 1,2,-1
 62 0 l 1,3,-1
 126 77 l 1,4,5
 92 115 92 115 73.5 164 c 128,-1,6
 55 213 55 213 55 269 c 0,7,8
 55 348 55 348 90.5 411.5 c 128,-1,9
 126 475 126 475 188.5 511.5 c 128,-1,10
 251 548 251 548 328 548 c 0,11,12
 414 548 414 548 481 503 c 1,13,-1
 508 536 l 1,14,-1
 593 536 l 1,15,-1
 530 460 l 1,16,17
 564 423 564 423 582 374 c 128,-1,18
 600 325 600 325 600 269 c 0,19,20
 600 188 600 188 563.5 124 c 128,-1,21
 527 60 527 60 464.5 24 c 128,-1,22
 402 -12 402 -12 328 -12 c 0,23,0
 245 -12 245 -12 175 34 c 1,1,-1
177 138 m 1,25,-1
 430 443 l 1,26,27
 384 473 384 473 328 473 c 0,28,29
 275 473 275 473 230.5 446 c 128,-1,30
 186 419 186 419 160.5 372.5 c 128,-1,31
 135 326 135 326 135 269 c 0,32,24
 135 196 135 196 177 138 c 1,25,-1
328 63 m 0,34,35
 381 63 381 63 425 90 c 128,-1,36
 469 117 469 117 494.5 164.5 c 128,-1,37
 520 212 520 212 520 269 c 0,38,39
 520 341 520 341 478 398 c 1,40,-1
 225 94 l 1,41,33
 272 63 272 63 328 63 c 0,34,35
EndSplineSet
Validated: 1
EndChar

StartChar: oe
Encoding: 339 339 645
Width: 1085
GlyphClass: 1
Flags: W
LayerCount: 2
Fore
SplineSet
190.5 24.5 m 128,-1,1
 128 61 128 61 91.5 125.5 c 128,-1,2
 55 190 55 190 55 269 c 256,3,4
 55 348 55 348 90.5 411.5 c 128,-1,5
 126 475 126 475 188.5 511.5 c 128,-1,6
 251 548 251 548 328 548 c 0,7,8
 403 548 403 548 464.5 513 c 128,-1,9
 526 478 526 478 561 417 c 1,10,11
 595 478 595 478 653.5 513 c 128,-1,12
 712 548 712 548 783 548 c 0,13,14
 857 548 857 548 913 512 c 128,-1,15
 969 476 969 476 999.5 417 c 128,-1,16
 1030 358 1030 358 1030 293 c 0,17,18
 1030 268 1030 268 1026 245 c 1,19,-1
 604 245 l 1,20,21
 605 189 605 189 631.5 146.5 c 128,-1,22
 658 104 658 104 700.5 81 c 128,-1,23
 743 58 743 58 791 58 c 0,24,25
 896 58 896 58 955 156 c 1,26,-1
 1019 122 l 1,27,28
 993 65 993 65 931.5 26.5 c 128,-1,29
 870 -12 870 -12 791 -12 c 0,30,31
 717 -12 717 -12 657 24 c 128,-1,32
 597 60 597 60 562 122 c 1,33,34
 526 59 526 59 464 23.5 c 128,-1,35
 402 -12 402 -12 328 -12 c 0,36,0
 253 -12 253 -12 190.5 24.5 c 128,-1,1
160.5 164 m 128,-1,38
 186 117 186 117 230.5 90 c 128,-1,39
 275 63 275 63 328 63 c 256,40,41
 381 63 381 63 425 90 c 128,-1,42
 469 117 469 117 494.5 164.5 c 128,-1,43
 520 212 520 212 520 269 c 256,44,45
 520 326 520 326 494.5 372.5 c 128,-1,46
 469 419 469 419 425 446 c 128,-1,47
 381 473 381 473 328 473 c 256,48,49
 275 473 275 473 230.5 446 c 128,-1,50
 186 419 186 419 160.5 372.5 c 128,-1,51
 135 326 135 326 135 269 c 0,52,37
 135 211 135 211 160.5 164 c 128,-1,38
949 315 m 1,53,54
 949 361 949 361 926.5 398.5 c 128,-1,55
 904 436 904 436 866 457 c 128,-1,56
 828 478 828 478 783 478 c 0,57,58
 739 478 739 478 700.5 458 c 128,-1,59
 662 438 662 438 636.5 401 c 128,-1,60
 611 364 611 364 606 315 c 1,61,-1
 949 315 l 1,53,54
EndSplineSet
Validated: 1
EndChar

StartChar: p
Encoding: 112 112 646
Width: 667
GlyphClass: 2
Flags: W
AnchorPoint: "Anchor-6" 334 536 basechar 0
AnchorPoint: "Anchor-4" 334 0 basechar 0
LayerCount: 2
Fore
SplineSet
77 536 m 1,0,-1
 152 536 l 1,1,-1
 152 455 l 1,2,3
 185 499 185 499 235.5 523.5 c 128,-1,4
 286 548 286 548 348 548 c 0,5,6
 423 548 423 548 483.5 511.5 c 128,-1,7
 544 475 544 475 578 411 c 128,-1,8
 612 347 612 347 612 268 c 256,9,10
 612 189 612 189 577.5 125 c 128,-1,11
 543 61 543 61 483 24.5 c 128,-1,12
 423 -12 423 -12 348 -12 c 0,13,14
 286 -12 286 -12 234.5 14 c 128,-1,15
 183 40 183 40 152 87 c 1,16,-1
 152 -200 l 1,17,-1
 77 -200 l 1,18,-1
 77 536 l 1,0,-1
177.5 164 m 128,-1,20
 203 117 203 117 247 90 c 128,-1,21
 291 63 291 63 344 63 c 256,22,23
 397 63 397 63 440 90 c 128,-1,24
 483 117 483 117 507.5 163.5 c 128,-1,25
 532 210 532 210 532 268 c 256,26,27
 532 326 532 326 507.5 372.5 c 128,-1,28
 483 419 483 419 440 446 c 128,-1,29
 397 473 397 473 344 473 c 256,30,31
 291 473 291 473 247 446 c 128,-1,32
 203 419 203 419 177.5 372 c 128,-1,33
 152 325 152 325 152 268 c 256,34,19
 152 211 152 211 177.5 164 c 128,-1,20
EndSplineSet
Validated: 1
Substitution2: "'ss02' Style Set 2 in Latin lookup 21 subtable" p.ss02
Substitution2: "'aalt' Access All Alternates in Latin lookup 0 subtable" p.ss02
EndChar

StartChar: p.ss02
Encoding: 65792 -1 647
Width: 704
GlyphClass: 1
Flags: W
LayerCount: 2
Fore
SplineSet
114 466 m 1,0,-1
 39 466 l 1,1,-1
 39 536 l 1,2,-1
 189 536 l 1,3,-1
 189 455 l 1,4,5
 222 499 222 499 272.5 523.5 c 128,-1,6
 323 548 323 548 385 548 c 0,7,8
 460 548 460 548 520.5 511.5 c 128,-1,9
 581 475 581 475 615 411 c 128,-1,10
 649 347 649 347 649 268 c 256,11,12
 649 189 649 189 614.5 125 c 128,-1,13
 580 61 580 61 520 24.5 c 128,-1,14
 460 -12 460 -12 385 -12 c 0,15,16
 323 -12 323 -12 271.5 14 c 128,-1,17
 220 40 220 40 189 87 c 1,18,-1
 189 -200 l 1,19,-1
 114 -200 l 1,20,-1
 114 466 l 1,0,-1
214.5 164 m 128,-1,22
 240 117 240 117 284 90 c 128,-1,23
 328 63 328 63 381 63 c 256,24,25
 434 63 434 63 477 90 c 128,-1,26
 520 117 520 117 544.5 163.5 c 128,-1,27
 569 210 569 210 569 268 c 256,28,29
 569 326 569 326 544.5 372.5 c 128,-1,30
 520 419 520 419 477 446 c 128,-1,31
 434 473 434 473 381 473 c 256,32,33
 328 473 328 473 284 446 c 128,-1,34
 240 419 240 419 214.5 372 c 128,-1,35
 189 325 189 325 189 268 c 256,36,21
 189 211 189 211 214.5 164 c 128,-1,22
EndSplineSet
Validated: 1
EndChar

StartChar: thorn
Encoding: 254 254 648
Width: 667
GlyphClass: 1
Flags: W
LayerCount: 2
Fore
SplineSet
77 745 m 1,0,-1
 152 745 l 1,1,-1
 152 455 l 1,2,3
 185 499 185 499 235.5 523.5 c 128,-1,4
 286 548 286 548 348 548 c 0,5,6
 423 548 423 548 483.5 511.5 c 128,-1,7
 544 475 544 475 578 411 c 128,-1,8
 612 347 612 347 612 268 c 256,9,10
 612 189 612 189 577.5 125 c 128,-1,11
 543 61 543 61 483 24.5 c 128,-1,12
 423 -12 423 -12 348 -12 c 0,13,14
 286 -12 286 -12 234.5 14 c 128,-1,15
 183 40 183 40 152 87 c 1,16,-1
 152 -200 l 1,17,-1
 77 -200 l 1,18,-1
 77 745 l 1,0,-1
177.5 164 m 128,-1,20
 203 117 203 117 247 90 c 128,-1,21
 291 63 291 63 344 63 c 256,22,23
 397 63 397 63 440 90 c 128,-1,24
 483 117 483 117 507.5 163.5 c 128,-1,25
 532 210 532 210 532 268 c 256,26,27
 532 326 532 326 507.5 372.5 c 128,-1,28
 483 419 483 419 440 446 c 128,-1,29
 397 473 397 473 344 473 c 256,30,31
 291 473 291 473 247 446 c 128,-1,32
 203 419 203 419 177.5 372 c 128,-1,33
 152 325 152 325 152 268 c 256,34,19
 152 211 152 211 177.5 164 c 128,-1,20
EndSplineSet
Validated: 1
EndChar

StartChar: q
Encoding: 113 113 649
Width: 667
GlyphClass: 2
Flags: W
AnchorPoint: "Anchor-6" 334 536 basechar 0
AnchorPoint: "Anchor-4" 334 0 basechar 0
LayerCount: 2
Fore
SplineSet
515 87 m 1,0,1
 484 40 484 40 432.5 14 c 128,-1,2
 381 -12 381 -12 319 -12 c 0,3,4
 244 -12 244 -12 184 24.5 c 128,-1,5
 124 61 124 61 89.5 125 c 128,-1,6
 55 189 55 189 55 268 c 256,7,8
 55 347 55 347 89 411 c 128,-1,9
 123 475 123 475 183.5 511.5 c 128,-1,10
 244 548 244 548 319 548 c 0,11,12
 381 548 381 548 431.5 523.5 c 128,-1,13
 482 499 482 499 515 455 c 1,14,-1
 515 536 l 1,15,-1
 590 536 l 1,16,-1
 590 -200 l 1,17,-1
 515 -200 l 1,18,-1
 515 87 l 1,0,1
159.5 163.5 m 128,-1,20
 184 117 184 117 227 90 c 128,-1,21
 270 63 270 63 323 63 c 256,22,23
 376 63 376 63 420 90 c 128,-1,24
 464 117 464 117 489.5 164 c 128,-1,25
 515 211 515 211 515 268 c 256,26,27
 515 325 515 325 489.5 372 c 128,-1,28
 464 419 464 419 420 446 c 128,-1,29
 376 473 376 473 323 473 c 256,30,31
 270 473 270 473 227 446 c 128,-1,32
 184 419 184 419 159.5 372.5 c 128,-1,33
 135 326 135 326 135 268 c 256,34,19
 135 210 135 210 159.5 163.5 c 128,-1,20
EndSplineSet
Validated: 1
Substitution2: "'ss02' Style Set 2 in Latin lookup 21 subtable" q.ss02
Substitution2: "'aalt' Access All Alternates in Latin lookup 0 subtable" q.ss02
EndChar

StartChar: q.ss02
Encoding: 65793 -1 650
Width: 704
GlyphClass: 1
Flags: W
LayerCount: 2
Fore
SplineSet
515 87 m 1,0,1
 484 40 484 40 432.5 14 c 128,-1,2
 381 -12 381 -12 319 -12 c 0,3,4
 244 -12 244 -12 184 24.5 c 128,-1,5
 124 61 124 61 89.5 125 c 128,-1,6
 55 189 55 189 55 268 c 256,7,8
 55 347 55 347 89 411 c 128,-1,9
 123 475 123 475 183.5 511.5 c 128,-1,10
 244 548 244 548 319 548 c 0,11,12
 381 548 381 548 431.5 523.5 c 128,-1,13
 482 499 482 499 515 455 c 1,14,-1
 515 536 l 1,15,-1
 665 536 l 1,16,-1
 665 466 l 1,17,-1
 590 466 l 1,18,-1
 590 -200 l 1,19,-1
 515 -200 l 1,20,-1
 515 87 l 1,0,1
159.5 163.5 m 128,-1,22
 184 117 184 117 227 90 c 128,-1,23
 270 63 270 63 323 63 c 256,24,25
 376 63 376 63 420 90 c 128,-1,26
 464 117 464 117 489.5 164 c 128,-1,27
 515 211 515 211 515 268 c 256,28,29
 515 325 515 325 489.5 372 c 128,-1,30
 464 419 464 419 420 446 c 128,-1,31
 376 473 376 473 323 473 c 256,32,33
 270 473 270 473 227 446 c 128,-1,34
 184 419 184 419 159.5 372.5 c 128,-1,35
 135 326 135 326 135 268 c 256,36,21
 135 210 135 210 159.5 163.5 c 128,-1,22
EndSplineSet
Validated: 1
EndChar

StartChar: r
Encoding: 114 114 651
Width: 338
GlyphClass: 2
Flags: W
AnchorPoint: "Anchor-6" 202 536 basechar 0
AnchorPoint: "Anchor-4" 115 0 basechar 0
LayerCount: 2
Fore
SplineSet
77 536 m 1,0,-1
 152 536 l 1,1,-1
 152 478 l 1,2,3
 173 509 173 509 209 526 c 128,-1,4
 245 543 245 543 293 543 c 2,5,-1
 327 543 l 1,6,-1
 327 468 l 1,7,-1
 280 468 l 2,8,9
 221 468 221 468 186.5 431.5 c 128,-1,10
 152 395 152 395 152 330 c 2,11,-1
 152 0 l 1,12,-1
 77 0 l 1,13,-1
 77 536 l 1,0,-1
EndSplineSet
Validated: 1
Substitution2: "'ss02' Style Set 2 in Latin lookup 21 subtable" r.ss02
Substitution2: "'ss01' Style Set 1 in Latin lookup 20 subtable" r.ss01
Substitution2: "'salt' Stylistic Alternatives in Latin lookup 19 subtable" r.ss01
AlternateSubs2: "'aalt' Access All Alternates in Latin lookup 1 subtable" r.ss01 r.ss02
EndChar

StartChar: r.ss01
Encoding: 65794 -1 652
Width: 348
GlyphClass: 2
Flags: W
AnchorPoint: "Anchor-6" 202 536 basechar 0
AnchorPoint: "Anchor-4" 115 0 basechar 0
LayerCount: 2
Fore
SplineSet
77 536 m 1,0,-1
 337 536 l 1,1,-1
 337 461 l 1,2,-1
 152 461 l 1,3,-1
 152 0 l 1,4,-1
 77 0 l 1,5,-1
 77 536 l 1,0,-1
EndSplineSet
Validated: 1
EndChar

StartChar: r.ss02
Encoding: 65795 -1 653
Width: 375
GlyphClass: 2
Flags: W
AnchorPoint: "Anchor-6" 202 536 basechar 0
AnchorPoint: "Anchor-4" 162 0 basechar 0
LayerCount: 2
Fore
SplineSet
39 75 m 1,0,-1
 114 75 l 1,1,-1
 114 461 l 1,2,-1
 39 461 l 1,3,-1
 39 536 l 1,4,-1
 189 536 l 1,5,-1
 189 478 l 1,6,7
 210 509 210 509 246 526 c 128,-1,8
 282 543 282 543 330 543 c 2,9,-1
 364 543 l 1,10,-1
 364 468 l 1,11,-1
 317 468 l 2,12,13
 258 468 258 468 223.5 431.5 c 128,-1,14
 189 395 189 395 189 330 c 2,15,-1
 189 75 l 1,16,-1
 284 75 l 1,17,-1
 284 0 l 1,18,-1
 39 0 l 1,19,-1
 39 75 l 1,0,-1
EndSplineSet
Validated: 1
EndChar

StartChar: s
Encoding: 115 115 675
Width: 509
GlyphClass: 2
Flags: W
AnchorPoint: "Anchor-6" 255 536 basechar 0
AnchorPoint: "Anchor-4" 255 0 basechar 0
LayerCount: 2
Fore
SplineSet
131 25.5 m 128,-1,1
 73 63 73 63 46 129 c 1,2,-1
 109 161 l 1,3,4
 133 112 133 112 174.5 84 c 128,-1,5
 216 56 216 56 265 56 c 256,6,7
 314 56 314 56 346.5 79.5 c 128,-1,8
 379 103 379 103 379 141 c 256,9,10
 379 179 379 179 349 202 c 128,-1,11
 319 225 319 225 288 228 c 2,12,-1
 211 237 l 1,13,14
 138 256 138 256 103 297.5 c 128,-1,15
 68 339 68 339 68 393 c 0,16,17
 68 439 68 439 92 474.5 c 128,-1,18
 116 510 116 510 157.5 529 c 128,-1,19
 199 548 199 548 250 548 c 0,20,21
 317 548 317 548 371.5 513 c 128,-1,22
 426 478 426 478 449 418 c 1,23,-1
 386 386 l 1,24,25
 365 430 365 430 327.5 455 c 128,-1,26
 290 480 290 480 246 480 c 0,27,28
 201 480 201 480 173.5 457.5 c 128,-1,29
 146 435 146 435 146 399 c 0,30,31
 146 361 146 361 172.5 339 c 128,-1,32
 199 317 199 317 226 314 c 2,33,-1
 315 304 l 1,34,35
 381 286 381 286 418.5 242 c 128,-1,36
 456 198 456 198 456 142 c 0,37,38
 456 98 456 98 432 63 c 128,-1,39
 408 28 408 28 364.5 8 c 128,-1,40
 321 -12 321 -12 265 -12 c 0,41,0
 189 -12 189 -12 131 25.5 c 128,-1,1
EndSplineSet
Validated: 1
EndChar

StartChar: scedilla
Encoding: 351 351 680
Width: 509
GlyphClass: 2
Flags: W
AnchorPoint: "Anchor-4" 255 0 basechar 0
LayerCount: 2
Fore
SplineSet
229 -216 m 128,-1,1
 208 -212 208 -212 194 -205 c 1,2,-1
 206 -163 l 1,3,4
 234 -174 234 -174 265 -174 c 0,5,6
 288 -174 288 -174 301 -163.5 c 128,-1,7
 314 -153 314 -153 314 -135 c 0,8,9
 314 -120 314 -120 304.5 -111 c 128,-1,10
 295 -102 295 -102 278 -102 c 0,11,12
 257 -102 257 -102 237 -112 c 1,13,-1
 217 -104 l 1,14,-1
 228 -10 l 1,15,16
 165 -1 165 -1 117 35.5 c 128,-1,17
 69 72 69 72 46 129 c 1,18,-1
 109 161 l 1,19,20
 133 112 133 112 174.5 84 c 128,-1,21
 216 56 216 56 265 56 c 256,22,23
 314 56 314 56 346.5 79.5 c 128,-1,24
 379 103 379 103 379 141 c 256,25,26
 379 179 379 179 349 202 c 128,-1,27
 319 225 319 225 288 228 c 2,28,-1
 211 237 l 1,29,30
 138 256 138 256 103 297.5 c 128,-1,31
 68 339 68 339 68 393 c 0,32,33
 68 439 68 439 92 474.5 c 128,-1,34
 116 510 116 510 157.5 529 c 128,-1,35
 199 548 199 548 250 548 c 0,36,37
 317 548 317 548 371.5 513 c 128,-1,38
 426 478 426 478 449 418 c 1,39,-1
 386 386 l 1,40,41
 365 430 365 430 327.5 455 c 128,-1,42
 290 480 290 480 246 480 c 0,43,44
 201 480 201 480 173.5 457.5 c 128,-1,45
 146 435 146 435 146 399 c 0,46,47
 146 361 146 361 172.5 339 c 128,-1,48
 199 317 199 317 226 314 c 2,49,-1
 315 304 l 1,50,51
 381 286 381 286 418.5 242 c 128,-1,52
 456 198 456 198 456 142 c 0,53,54
 456 78 456 78 407 35 c 128,-1,55
 358 -8 358 -8 279 -12 c 1,56,-1
 274 -62 l 1,57,58
 286 -60 286 -60 295 -60 c 0,59,60
 329 -60 329 -60 351.5 -80 c 128,-1,61
 374 -100 374 -100 374 -132 c 0,62,63
 374 -170 374 -170 345.5 -195 c 128,-1,64
 317 -220 317 -220 269 -220 c 0,65,0
 250 -220 250 -220 229 -216 c 128,-1,1
EndSplineSet
Validated: 1
Substitution2: "'locl' Localized Forms in Latin lookup 6 subtable" uni0219
Substitution2: "'aalt' Access All Alternates in Latin lookup 0 subtable" uni0219
EndChar

StartChar: germandbls
Encoding: 223 223 686
Width: 603
GlyphClass: 1
Flags: W
LayerCount: 2
Fore
SplineSet
116.5 655 m 128,-1,1
 145 704 145 704 194.5 730.5 c 128,-1,2
 244 757 244 757 307 757 c 0,3,4
 369 757 369 757 417 733 c 128,-1,5
 465 709 465 709 491.5 666 c 128,-1,6
 518 623 518 623 518 566 c 256,7,8
 518 509 518 509 494 464.5 c 128,-1,9
 470 420 470 420 427 398 c 1,10,11
 548 343 548 343 548 215 c 0,12,13
 548 151 548 151 519 102 c 128,-1,14
 490 53 490 53 436.5 26.5 c 128,-1,15
 383 0 383 0 312 0 c 2,16,-1
 253 0 l 1,17,-1
 253 70 l 1,18,-1
 312 70 l 2,19,20
 382 70 382 70 425 110 c 128,-1,21
 468 150 468 150 468 215 c 256,22,23
 468 280 468 280 425 320 c 128,-1,24
 382 360 382 360 312 360 c 2,25,-1
 253 360 l 1,26,-1
 253 430 l 1,27,-1
 306 430 l 2,28,29
 364 430 364 430 401 467 c 128,-1,30
 438 504 438 504 438 561 c 0,31,32
 438 617 438 617 401.5 652 c 128,-1,33
 365 687 365 687 306 687 c 0,34,35
 243 687 243 687 203 647 c 128,-1,36
 163 607 163 607 163 540 c 2,37,-1
 163 -150 l 1,38,-1
 88 -150 l 1,39,-1
 88 540 l 2,40,0
 88 606 88 606 116.5 655 c 128,-1,1
EndSplineSet
Validated: 1
EndChar

StartChar: t
Encoding: 116 116 687
Width: 388
GlyphClass: 2
Flags: W
AnchorPoint: "Anchor-7" 266 595 basechar 0
AnchorPoint: "Anchor-6" 170 660 basechar 0
AnchorPoint: "Anchor-4" 274 0 basechar 0
LayerCount: 2
Fore
SplineSet
171 36 m 128,-1,1
 132 78 132 78 132 156 c 2,2,-1
 132 461 l 1,3,-1
 33 461 l 1,4,-1
 33 536 l 1,5,-1
 58 536 l 2,6,7
 91 536 91 536 111.5 558 c 128,-1,8
 132 580 132 580 132 615 c 2,9,-1
 132 660 l 1,10,-1
 207 660 l 1,11,-1
 207 536 l 1,12,-1
 325 536 l 1,13,-1
 325 461 l 1,14,-1
 207 461 l 1,15,-1
 207 156 l 2,16,17
 207 112 207 112 227 88 c 128,-1,18
 247 64 247 64 295 64 c 0,19,20
 317 64 317 64 333 67 c 1,21,-1
 333 -1 l 1,22,23
 313 -6 313 -6 282 -6 c 0,24,0
 210 -6 210 -6 171 36 c 128,-1,1
EndSplineSet
Validated: 1
Substitution2: "'ss01' Style Set 1 in Latin lookup 20 subtable" t.ss01
Substitution2: "'salt' Stylistic Alternatives in Latin lookup 19 subtable" t.ss01
Substitution2: "'aalt' Access All Alternates in Latin lookup 0 subtable" t.ss01
EndChar

StartChar: t.ss01
Encoding: 65810 -1 688
Width: 388
GlyphClass: 2
Flags: W
AnchorPoint: "Anchor-7" 266 595 basechar 0
AnchorPoint: "Anchor-6" 170 660 basechar 0
AnchorPoint: "Anchor-4" 233 0 basechar 0
LayerCount: 2
Fore
SplineSet
132 461 m 1,0,-1
 33 461 l 1,1,-1
 33 536 l 1,2,-1
 132 536 l 1,3,-1
 132 660 l 1,4,-1
 207 660 l 1,5,-1
 207 536 l 1,6,-1
 325 536 l 1,7,-1
 325 461 l 1,8,-1
 207 461 l 1,9,-1
 207 75 l 1,10,-1
 333 75 l 1,11,-1
 333 0 l 1,12,-1
 132 0 l 1,13,-1
 132 461 l 1,0,-1
EndSplineSet
Validated: 1
EndChar

StartChar: tbar
Encoding: 359 359 689
Width: 388
GlyphClass: 2
Flags: W
AnchorPoint: "Anchor-7" 266 595 basechar 0
AnchorPoint: "Anchor-6" 170 660 basechar 0
AnchorPoint: "Anchor-4" 274 0 basechar 0
LayerCount: 2
Fore
SplineSet
171 36 m 128,-1,1
 132 78 132 78 132 156 c 2,2,-1
 132 230 l 1,3,-1
 36 230 l 1,4,-1
 36 305 l 1,5,-1
 132 305 l 1,6,-1
 132 461 l 1,7,-1
 33 461 l 1,8,-1
 33 536 l 1,9,-1
 58 536 l 2,10,11
 91 536 91 536 111.5 558 c 128,-1,12
 132 580 132 580 132 615 c 2,13,-1
 132 660 l 1,14,-1
 207 660 l 1,15,-1
 207 536 l 1,16,-1
 325 536 l 1,17,-1
 325 461 l 1,18,-1
 207 461 l 1,19,-1
 207 305 l 1,20,-1
 328 305 l 1,21,-1
 328 230 l 1,22,-1
 207 230 l 1,23,-1
 207 156 l 2,24,25
 207 112 207 112 227 88 c 128,-1,26
 247 64 247 64 295 64 c 0,27,28
 317 64 317 64 333 67 c 1,29,-1
 333 -1 l 1,30,31
 313 -6 313 -6 282 -6 c 0,32,0
 210 -6 210 -6 171 36 c 128,-1,1
EndSplineSet
Validated: 1
Substitution2: "'ss01' Style Set 1 in Latin lookup 20 subtable" tbar.ss01
Substitution2: "'salt' Stylistic Alternatives in Latin lookup 19 subtable" tbar.ss01
Substitution2: "'aalt' Access All Alternates in Latin lookup 0 subtable" tbar.ss01
EndChar

StartChar: tbar.ss01
Encoding: 65811 -1 690
Width: 388
GlyphClass: 2
Flags: W
AnchorPoint: "Anchor-7" 266 595 basechar 0
AnchorPoint: "Anchor-6" 170 660 basechar 0
AnchorPoint: "Anchor-4" 233 0 basechar 0
LayerCount: 2
Fore
SplineSet
132 230 m 1,0,-1
 36 230 l 1,1,-1
 36 305 l 1,2,-1
 132 305 l 1,3,-1
 132 461 l 1,4,-1
 33 461 l 1,5,-1
 33 536 l 1,6,-1
 132 536 l 1,7,-1
 132 660 l 1,8,-1
 207 660 l 1,9,-1
 207 536 l 1,10,-1
 325 536 l 1,11,-1
 325 461 l 1,12,-1
 207 461 l 1,13,-1
 207 305 l 1,14,-1
 328 305 l 1,15,-1
 328 230 l 1,16,-1
 207 230 l 1,17,-1
 207 75 l 1,18,-1
 333 75 l 1,19,-1
 333 0 l 1,20,-1
 132 0 l 1,21,-1
 132 230 l 1,0,-1
EndSplineSet
Validated: 1
EndChar

StartChar: uni0163
Encoding: 355 355 693
Width: 388
GlyphClass: 2
Flags: W
AnchorPoint: "Anchor-7" 266 595 basechar 0
AnchorPoint: "Anchor-4" 274 0 basechar 0
LayerCount: 2
Fore
SplineSet
248 -216 m 128,-1,1
 227 -212 227 -212 213 -205 c 1,2,-1
 225 -163 l 1,3,4
 253 -174 253 -174 284 -174 c 0,5,6
 307 -174 307 -174 320 -163.5 c 128,-1,7
 333 -153 333 -153 333 -135 c 0,8,9
 333 -120 333 -120 323.5 -111 c 128,-1,10
 314 -102 314 -102 297 -102 c 0,11,12
 276 -102 276 -102 256 -112 c 1,13,-1
 236 -104 l 1,14,-1
 248 -3 l 1,15,16
 192 6 192 6 162 47 c 128,-1,17
 132 88 132 88 132 156 c 2,18,-1
 132 461 l 1,19,-1
 33 461 l 1,20,-1
 33 536 l 1,21,-1
 58 536 l 2,22,23
 91 536 91 536 111.5 558 c 128,-1,24
 132 580 132 580 132 615 c 2,25,-1
 132 660 l 1,26,-1
 207 660 l 1,27,-1
 207 536 l 1,28,-1
 325 536 l 1,29,-1
 325 461 l 1,30,-1
 207 461 l 1,31,-1
 207 156 l 2,32,33
 207 112 207 112 227 88 c 128,-1,34
 247 64 247 64 295 64 c 0,35,36
 317 64 317 64 333 67 c 1,37,-1
 333 -1 l 1,38,39
 323 -4 323 -4 298 -6 c 1,40,-1
 293 -62 l 1,41,42
 305 -60 305 -60 314 -60 c 0,43,44
 348 -60 348 -60 370.5 -80 c 128,-1,45
 393 -100 393 -100 393 -132 c 0,46,47
 393 -170 393 -170 364.5 -195 c 128,-1,48
 336 -220 336 -220 288 -220 c 0,49,0
 269 -220 269 -220 248 -216 c 128,-1,1
EndSplineSet
Validated: 1
Substitution2: "'ss01' Style Set 1 in Latin lookup 20 subtable" uni0163.ss01
Substitution2: "'salt' Stylistic Alternatives in Latin lookup 19 subtable" uni0163.ss01
Substitution2: "'locl' Localized Forms in Latin lookup 6 subtable" uni021B
AlternateSubs2: "'aalt' Access All Alternates in Latin lookup 1 subtable" uni021B uni0163.ss01
EndChar

StartChar: u
Encoding: 117 117 703
Width: 573
GlyphClass: 2
Flags: W
AnchorPoint: "Anchor-7" 553 536 basechar 0
AnchorPoint: "Anchor-6" 287 536 basechar 0
AnchorPoint: "Anchor-5" 478 40 basechar 0
AnchorPoint: "Anchor-4" 287 0 basechar 0
LayerCount: 2
Fore
SplineSet
165 14.5 m 128,-1,1
 119 41 119 41 92.5 89 c 128,-1,2
 66 137 66 137 66 198 c 2,3,-1
 66 536 l 1,4,-1
 141 536 l 1,5,-1
 141 207 l 2,6,7
 141 142 141 142 179.5 102.5 c 128,-1,8
 218 63 218 63 280 63 c 0,9,10
 343 63 343 63 382 104.5 c 128,-1,11
 421 146 421 146 421 217 c 2,12,-1
 421 536 l 1,13,-1
 496 536 l 1,14,-1
 496 0 l 1,15,-1
 421 0 l 1,16,-1
 421 66 l 1,17,18
 397 29 397 29 356.5 8.5 c 128,-1,19
 316 -12 316 -12 267 -12 c 0,20,0
 211 -12 211 -12 165 14.5 c 128,-1,1
EndSplineSet
Validated: 1
Substitution2: "'ss03' Style Set 3 in Latin lookup 22 subtable" u.ss03
Substitution2: "'ss01' Style Set 1 in Latin lookup 20 subtable" u.ss01
Substitution2: "'salt' Stylistic Alternatives in Latin lookup 19 subtable" u.ss01
AlternateSubs2: "'aalt' Access All Alternates in Latin lookup 1 subtable" u.ss01 u.ss03
EndChar

StartChar: u.ss01
Encoding: 65818 -1 704
Width: 573
GlyphClass: 2
Flags: W
AnchorPoint: "Anchor-7" 553 536 basechar 0
AnchorPoint: "Anchor-6" 287 536 basechar 0
AnchorPoint: "Anchor-5" 281 40 basechar 0
AnchorPoint: "Anchor-4" 287 0 basechar 0
LayerCount: 2
Fore
SplineSet
66 536 m 1,0,-1
 141 536 l 1,1,-1
 141 75 l 1,2,-1
 421 75 l 1,3,-1
 421 536 l 1,4,-1
 496 536 l 1,5,-1
 496 0 l 1,6,-1
 66 0 l 1,7,-1
 66 536 l 1,0,-1
EndSplineSet
Validated: 1
EndChar

StartChar: u.ss03
Encoding: 65819 -1 705
Width: 573
GlyphClass: 2
Flags: W
AnchorPoint: "Anchor-7" 553 536 basechar 0
AnchorPoint: "Anchor-6" 287 536 basechar 0
AnchorPoint: "Anchor-5" 331 40 basechar 0
AnchorPoint: "Anchor-4" 287 0 basechar 0
LayerCount: 2
Fore
SplineSet
168.5 14.5 m 128,-1,1
 120 41 120 41 93 89 c 128,-1,2
 66 137 66 137 66 200 c 2,3,-1
 66 536 l 1,4,-1
 141 536 l 1,5,-1
 141 205 l 2,6,7
 141 141 141 141 179.5 101.5 c 128,-1,8
 218 62 218 62 281 62 c 256,9,10
 344 62 344 62 382.5 101.5 c 128,-1,11
 421 141 421 141 421 205 c 2,12,-1
 421 536 l 1,13,-1
 496 536 l 1,14,-1
 496 200 l 2,15,16
 496 137 496 137 469 89 c 128,-1,17
 442 41 442 41 393.5 14.5 c 128,-1,18
 345 -12 345 -12 281 -12 c 256,19,0
 217 -12 217 -12 168.5 14.5 c 128,-1,1
EndSplineSet
Validated: 1
EndChar

StartChar: uhorn
Encoding: 432 432 730
Width: 595
GlyphClass: 2
Flags: W
AnchorPoint: "Anchor-7" 553 536 basechar 0
AnchorPoint: "Anchor-6" 287 536 basechar 0
AnchorPoint: "Anchor-5" 478 40 basechar 0
AnchorPoint: "Anchor-4" 287 0 basechar 0
LayerCount: 2
Fore
SplineSet
165 14.5 m 128,-1,1
 119 41 119 41 92.5 89 c 128,-1,2
 66 137 66 137 66 198 c 2,3,-1
 66 536 l 1,4,-1
 141 536 l 1,5,-1
 141 207 l 2,6,7
 141 142 141 142 179.5 102.5 c 128,-1,8
 218 63 218 63 280 63 c 0,9,10
 343 63 343 63 382 104.5 c 128,-1,11
 421 146 421 146 421 217 c 2,12,-1
 421 536 l 1,13,-1
 459 536 l 2,14,15
 510 536 510 536 510 589 c 0,16,17
 510 608 510 608 504.5 626 c 128,-1,18
 499 644 499 644 488 669 c 1,19,-1
 562 669 l 1,20,21
 573 644 573 644 579 624 c 128,-1,22
 585 604 585 604 585 582 c 0,23,24
 585 536 585 536 561.5 509.5 c 128,-1,25
 538 483 538 483 496 477 c 1,26,-1
 496 0 l 1,27,-1
 421 0 l 1,28,-1
 421 66 l 1,29,30
 397 29 397 29 356.5 8.5 c 128,-1,31
 316 -12 316 -12 267 -12 c 0,32,0
 211 -12 211 -12 165 14.5 c 128,-1,1
EndSplineSet
Validated: 1
Substitution2: "'ss03' Style Set 3 in Latin lookup 22 subtable" uhorn.ss03
Substitution2: "'ss01' Style Set 1 in Latin lookup 20 subtable" uhorn.ss01
Substitution2: "'salt' Stylistic Alternatives in Latin lookup 19 subtable" uhorn.ss01
AlternateSubs2: "'aalt' Access All Alternates in Latin lookup 1 subtable" uhorn.ss01 uhorn.ss03
EndChar

StartChar: uhorn.ss01
Encoding: 65836 -1 731
Width: 595
GlyphClass: 2
Flags: W
AnchorPoint: "Anchor-6" 287 536 basechar 0
AnchorPoint: "Anchor-4" 287 0 basechar 0
LayerCount: 2
Fore
SplineSet
66 536 m 1,0,-1
 141 536 l 1,1,-1
 141 75 l 1,2,-1
 421 75 l 1,3,-1
 421 536 l 1,4,-1
 459 536 l 2,5,6
 510 536 510 536 510 589 c 0,7,8
 510 608 510 608 504.5 626 c 128,-1,9
 499 644 499 644 488 669 c 1,10,-1
 562 669 l 1,11,12
 573 644 573 644 579 624 c 128,-1,13
 585 604 585 604 585 582 c 0,14,15
 585 536 585 536 561.5 509.5 c 128,-1,16
 538 483 538 483 496 477 c 1,17,-1
 496 0 l 1,18,-1
 66 0 l 1,19,-1
 66 536 l 1,0,-1
EndSplineSet
Validated: 1
EndChar

StartChar: uhorn.ss03
Encoding: 65837 -1 732
Width: 595
GlyphClass: 2
Flags: W
AnchorPoint: "Anchor-7" 553 536 basechar 0
AnchorPoint: "Anchor-6" 287 536 basechar 0
AnchorPoint: "Anchor-5" 331 40 basechar 0
AnchorPoint: "Anchor-4" 287 0 basechar 0
LayerCount: 2
Fore
SplineSet
168.5 14.5 m 128,-1,1
 120 41 120 41 93 89 c 128,-1,2
 66 137 66 137 66 200 c 2,3,-1
 66 536 l 1,4,-1
 141 536 l 1,5,-1
 141 205 l 2,6,7
 141 141 141 141 179.5 101.5 c 128,-1,8
 218 62 218 62 281 62 c 256,9,10
 344 62 344 62 382.5 101.5 c 128,-1,11
 421 141 421 141 421 205 c 2,12,-1
 421 536 l 1,13,-1
 459 536 l 2,14,15
 510 536 510 536 510 589 c 0,16,17
 510 608 510 608 504.5 626 c 128,-1,18
 499 644 499 644 488 669 c 1,19,-1
 562 669 l 1,20,21
 573 644 573 644 579 624 c 128,-1,22
 585 604 585 604 585 582 c 0,23,24
 585 536 585 536 561.5 509.5 c 128,-1,25
 538 483 538 483 496 477 c 1,26,-1
 496 200 l 2,27,28
 496 137 496 137 469 89 c 128,-1,29
 442 41 442 41 393.5 14.5 c 128,-1,30
 345 -12 345 -12 281 -12 c 256,31,0
 217 -12 217 -12 168.5 14.5 c 128,-1,1
EndSplineSet
Validated: 1
EndChar

StartChar: uogonek
Encoding: 371 371 760
Width: 573
GlyphClass: 2
Flags: W
AnchorPoint: "Anchor-7" 553 536 basechar 0
AnchorPoint: "Anchor-6" 287 536 basechar 0
AnchorPoint: "Anchor-5" 478 40 basechar 0
AnchorPoint: "Anchor-4" 287 0 basechar 0
LayerCount: 2
Fore
SplineSet
165 14.5 m 128,-1,1
 119 41 119 41 92.5 89 c 128,-1,2
 66 137 66 137 66 198 c 2,3,-1
 66 536 l 1,4,-1
 141 536 l 1,5,-1
 141 207 l 2,6,7
 141 142 141 142 179.5 102.5 c 128,-1,8
 218 63 218 63 280 63 c 0,9,10
 343 63 343 63 382 104.5 c 128,-1,11
 421 146 421 146 421 217 c 2,12,-1
 421 536 l 1,13,-1
 496 536 l 1,14,-1
 496 0 l 1,15,-1
 448 0 l 1,16,17
 410 -29 410 -29 410 -65 c 0,18,19
 410 -87 410 -87 423.5 -99.5 c 128,-1,20
 437 -112 437 -112 461 -112 c 0,21,22
 494 -112 494 -112 531 -85 c 1,23,-1
 556 -122 l 1,24,25
 512 -160 512 -160 457 -160 c 0,26,27
 414 -160 414 -160 386 -137 c 128,-1,28
 358 -114 358 -114 358 -76 c 0,29,30
 358 -47 358 -47 374 -22.5 c 128,-1,31
 390 2 390 2 421 21 c 1,32,-1
 421 66 l 1,33,34
 397 29 397 29 356.5 8.5 c 128,-1,35
 316 -12 316 -12 267 -12 c 0,36,0
 211 -12 211 -12 165 14.5 c 128,-1,1
EndSplineSet
Validated: 1
Substitution2: "'ss03' Style Set 3 in Latin lookup 22 subtable" uogonek.ss03
Substitution2: "'ss01' Style Set 1 in Latin lookup 20 subtable" uogonek.ss01
Substitution2: "'salt' Stylistic Alternatives in Latin lookup 19 subtable" uogonek.ss01
AlternateSubs2: "'aalt' Access All Alternates in Latin lookup 1 subtable" uogonek.ss01 uogonek.ss03
EndChar

StartChar: uogonek.ss01
Encoding: 65856 -1 761
Width: 573
GlyphClass: 2
Flags: W
AnchorPoint: "Anchor-7" 553 536 basechar 0
AnchorPoint: "Anchor-6" 287 536 basechar 0
AnchorPoint: "Anchor-5" 281 40 basechar 0
AnchorPoint: "Anchor-4" 287 0 basechar 0
LayerCount: 2
Fore
SplineSet
66 536 m 1,0,-1
 141 536 l 1,1,-1
 141 75 l 1,2,-1
 421 75 l 1,3,-1
 421 536 l 1,4,-1
 496 536 l 1,5,-1
 496 0 l 1,6,-1
 251 0 l 1,7,8
 213 -29 213 -29 213 -65 c 0,9,10
 213 -87 213 -87 226.5 -99.5 c 128,-1,11
 240 -112 240 -112 264 -112 c 0,12,13
 297 -112 297 -112 334 -85 c 1,14,-1
 359 -122 l 1,15,16
 315 -160 315 -160 260 -160 c 0,17,18
 217 -160 217 -160 189 -137 c 128,-1,19
 161 -114 161 -114 161 -76 c 0,20,21
 161 -33 161 -33 196 0 c 1,22,-1
 66 0 l 1,23,-1
 66 536 l 1,0,-1
EndSplineSet
Validated: 1
EndChar

StartChar: uogonek.ss03
Encoding: 65857 -1 762
Width: 573
GlyphClass: 2
Flags: W
AnchorPoint: "Anchor-7" 553 536 basechar 0
AnchorPoint: "Anchor-6" 287 536 basechar 0
AnchorPoint: "Anchor-5" 331 40 basechar 0
AnchorPoint: "Anchor-4" 287 0 basechar 0
LayerCount: 2
Fore
SplineSet
239 -137 m 128,-1,1
 211 -114 211 -114 211 -76 c 256,2,3
 211 -38 211 -38 238 -9 c 1,4,5
 159 4 159 4 112.5 60 c 128,-1,6
 66 116 66 116 66 200 c 2,7,-1
 66 536 l 1,8,-1
 141 536 l 1,9,-1
 141 205 l 2,10,11
 141 141 141 141 179.5 101.5 c 128,-1,12
 218 62 218 62 281 62 c 256,13,14
 344 62 344 62 382.5 101.5 c 128,-1,15
 421 141 421 141 421 205 c 2,16,-1
 421 536 l 1,17,-1
 496 536 l 1,18,-1
 496 200 l 2,19,20
 496 106 496 106 439 48 c 128,-1,21
 382 -10 382 -10 287 -12 c 1,22,23
 263 -36 263 -36 263 -65 c 0,24,25
 263 -87 263 -87 276.5 -99.5 c 128,-1,26
 290 -112 290 -112 314 -112 c 0,27,28
 347 -112 347 -112 384 -85 c 1,29,-1
 409 -122 l 1,30,31
 365 -160 365 -160 310 -160 c 0,32,0
 267 -160 267 -160 239 -137 c 128,-1,1
EndSplineSet
Validated: 1
EndChar

StartChar: v
Encoding: 118 118 772
Width: 517
GlyphClass: 2
Flags: W
AnchorPoint: "Anchor-6" 259 536 basechar 0
AnchorPoint: "Anchor-4" 259 0 basechar 0
LayerCount: 2
Fore
SplineSet
11 536 m 1,0,-1
 95 536 l 1,1,-1
 258 102 l 1,2,-1
 421 536 l 1,3,-1
 506 536 l 1,4,-1
 295 0 l 1,5,-1
 220 0 l 1,6,-1
 11 536 l 1,0,-1
EndSplineSet
Validated: 1
EndChar

StartChar: w
Encoding: 119 119 773
Width: 797
GlyphClass: 2
Flags: W
AnchorPoint: "Anchor-6" 399 536 basechar 0
AnchorPoint: "Anchor-4" 399 0 basechar 0
LayerCount: 2
Fore
SplineSet
11 536 m 1,0,-1
 96 536 l 1,1,-1
 233 115 l 1,2,-1
 361 536 l 1,3,-1
 436 536 l 1,4,-1
 565 115 l 1,5,-1
 702 536 l 1,6,-1
 786 536 l 1,7,-1
 602 0 l 1,8,-1
 527 0 l 1,9,-1
 399 424 l 1,10,-1
 270 0 l 1,11,-1
 195 0 l 1,12,-1
 11 536 l 1,0,-1
EndSplineSet
Validated: 1
EndChar

StartChar: x
Encoding: 120 120 778
Width: 487
GlyphClass: 2
Flags: W
AnchorPoint: "Anchor-6" 244 536 basechar 0
AnchorPoint: "Anchor-4" 244 0 basechar 0
LayerCount: 2
Fore
SplineSet
199 268 m 1,0,-1
 12 536 l 1,1,-1
 104 536 l 1,2,-1
 244 332 l 1,3,-1
 384 536 l 1,4,-1
 476 536 l 1,5,-1
 289 268 l 1,6,-1
 476 0 l 1,7,-1
 384 0 l 1,8,-1
 244 204 l 1,9,-1
 104 0 l 1,10,-1
 11 0 l 1,11,-1
 199 268 l 1,0,-1
EndSplineSet
Validated: 1
Substitution2: "Single Substitution lookup 29 subtable" multiply
AlternateSubs2: "'aalt' Access All Alternates in Latin lookup 1 subtable" multiply
EndChar

StartChar: y
Encoding: 121 121 779
Width: 536
GlyphClass: 2
Flags: W
AnchorPoint: "Anchor-6" 268 536 basechar 0
AnchorPoint: "Anchor-4" 486 100 basechar 0
LayerCount: 2
Fore
SplineSet
225 -1 m 1,0,-1
 11 537 l 1,1,-1
 92 537 l 1,2,-1
 267 94 l 1,3,-1
 442 537 l 1,4,-1
 525 537 l 1,5,-1
 226 -200 l 1,6,-1
 142 -200 l 1,7,-1
 225 -1 l 1,0,-1
EndSplineSet
Validated: 1
Substitution2: "'ss03' Style Set 3 in Latin lookup 22 subtable" y.ss03
Substitution2: "'ss02' Style Set 2 in Latin lookup 21 subtable" y.ss02
Substitution2: "'ss01' Style Set 1 in Latin lookup 20 subtable" y.ss01
Substitution2: "'salt' Stylistic Alternatives in Latin lookup 19 subtable" y.ss01
AlternateSubs2: "'aalt' Access All Alternates in Latin lookup 1 subtable" y.ss01 y.ss02 y.ss03
EndChar

StartChar: y.ss01
Encoding: 65864 -1 780
Width: 536
GlyphClass: 2
Flags: W
AnchorPoint: "Anchor-6" 268 536 basechar 0
AnchorPoint: "Anchor-4" 486 100 basechar 0
LayerCount: 2
Fore
SplineSet
31 -130 m 1,0,-1
 171 -130 l 1,1,-1
 225 -1 l 1,2,-1
 11 537 l 1,3,-1
 92 537 l 1,4,-1
 267 94 l 1,5,-1
 442 537 l 1,6,-1
 525 537 l 1,7,-1
 227 -200 l 1,8,-1
 31 -200 l 1,9,-1
 31 -130 l 1,0,-1
EndSplineSet
Validated: 1
EndChar

StartChar: y.ss02
Encoding: 65865 -1 781
Width: 536
GlyphClass: 2
Flags: W
AnchorPoint: "Anchor-6" 268 536 basechar 0
AnchorPoint: "Anchor-4" 486 100 basechar 0
LayerCount: 2
Fore
SplineSet
225 -1 m 1,0,-1
 11 537 l 1,1,-1
 92 537 l 1,2,-1
 267 94 l 1,3,-1
 442 537 l 1,4,-1
 525 537 l 1,5,-1
 226 -200 l 1,6,-1
 142 -200 l 1,7,-1
 225 -1 l 1,0,-1
EndSplineSet
Validated: 1
EndChar

StartChar: y.ss03
Encoding: 65866 -1 782
Width: 578
GlyphClass: 2
Flags: W
AnchorPoint: "Anchor-6" 289 536 basechar 0
AnchorPoint: "Anchor-4" 588 100 basechar 0
LayerCount: 2
Fore
SplineSet
149 -184 m 128,-1,1
 91 -148 91 -148 66 -88 c 1,2,-1
 135 -51 l 1,3,4
 149 -92 149 -92 188 -118.5 c 128,-1,5
 227 -145 227 -145 284 -145 c 0,6,7
 346 -145 346 -145 386 -112 c 128,-1,8
 426 -79 426 -79 426 -9 c 2,9,-1
 426 86 l 1,10,11
 402 49 402 49 361.5 28.5 c 128,-1,12
 321 8 321 8 272 8 c 0,13,14
 216 8 216 8 170 34.5 c 128,-1,15
 124 61 124 61 97.5 109 c 128,-1,16
 71 157 71 157 71 218 c 2,17,-1
 71 536 l 1,18,-1
 146 536 l 1,19,-1
 146 227 l 2,20,21
 146 162 146 162 184.5 122.5 c 128,-1,22
 223 83 223 83 285 83 c 0,23,24
 348 83 348 83 387 124.5 c 128,-1,25
 426 166 426 166 426 237 c 2,26,-1
 426 536 l 1,27,-1
 501 536 l 1,28,-1
 501 -9 l 2,29,30
 501 -75 501 -75 473.5 -122.5 c 128,-1,31
 446 -170 446 -170 396.5 -195 c 128,-1,32
 347 -220 347 -220 284 -220 c 0,33,0
 207 -220 207 -220 149 -184 c 128,-1,1
EndSplineSet
Validated: 1
EndChar

StartChar: z
Encoding: 122 122 819
Width: 449
GlyphClass: 2
Flags: W
AnchorPoint: "Anchor-6" 219 536 basechar 0
AnchorPoint: "Anchor-4" 219 0 basechar 0
LayerCount: 2
Fore
SplineSet
22 65 m 1,0,-1
 323 461 l 1,1,-1
 39 461 l 1,2,-1
 39 536 l 1,3,-1
 425 536 l 1,4,-1
 425 471 l 1,5,-1
 125 75 l 1,6,-1
 427 75 l 1,7,-1
 427 0 l 1,8,-1
 22 0 l 1,9,-1
 22 65 l 1,0,-1
EndSplineSet
Validated: 1
EndChar

StartChar: f_f
Encoding: 65894 -1 824
Width: 776
GlyphClass: 3
Flags: W
LayerCount: 2
Fore
SplineSet
132 461 m 1,0,-1
 25 461 l 1,1,-1
 25 536 l 1,2,-1
 132 536 l 1,3,-1
 132 584 l 2,4,5
 132 638 132 638 156.5 677 c 128,-1,6
 181 716 181 716 222 736.5 c 128,-1,7
 263 757 263 757 311 757 c 0,8,9
 337 757 337 757 355 752 c 1,10,-1
 355 684 l 1,11,12
 342 687 342 687 319 687 c 0,13,14
 267 687 267 687 237 662.5 c 128,-1,15
 207 638 207 638 207 584 c 2,16,-1
 207 536 l 1,17,-1
 515 536 l 1,18,-1
 515 584 l 2,19,20
 515 638 515 638 539.5 677 c 128,-1,21
 564 716 564 716 605 736.5 c 128,-1,22
 646 757 646 757 694 757 c 0,23,24
 720 757 720 757 738 752 c 1,25,-1
 738 684 l 1,26,27
 725 687 725 687 702 687 c 0,28,29
 650 687 650 687 620 662.5 c 128,-1,30
 590 638 590 638 590 584 c 2,31,-1
 590 536 l 1,32,-1
 721 536 l 1,33,-1
 721 461 l 1,34,-1
 590 461 l 1,35,-1
 590 0 l 1,36,-1
 515 0 l 1,37,-1
 515 461 l 1,38,-1
 207 461 l 1,39,-1
 207 0 l 1,40,-1
 132 0 l 1,41,-1
 132 461 l 1,0,-1
EndSplineSet
Validated: 1
EndChar

StartChar: f_f_i
Encoding: 65895 -1 825
Width: 975
GlyphClass: 3
Flags: W
LayerCount: 2
Fore
SplineSet
132 461 m 1,0,-1
 25 461 l 1,1,-1
 25 536 l 1,2,-1
 132 536 l 1,3,-1
 132 584 l 2,4,5
 132 638 132 638 156.5 677 c 128,-1,6
 181 716 181 716 222 736.5 c 128,-1,7
 263 757 263 757 311 757 c 0,8,9
 337 757 337 757 355 752 c 1,10,-1
 355 684 l 1,11,12
 342 687 342 687 319 687 c 0,13,14
 267 687 267 687 237 662.5 c 128,-1,15
 207 638 207 638 207 584 c 2,16,-1
 207 536 l 1,17,-1
 525 536 l 1,18,-1
 525 584 l 2,19,20
 525 638 525 638 549.5 677 c 128,-1,21
 574 716 574 716 615 736.5 c 128,-1,22
 656 757 656 757 704 757 c 0,23,24
 730 757 730 757 748 752 c 1,25,-1
 748 684 l 1,26,27
 735 687 735 687 712 687 c 0,28,29
 660 687 660 687 630 662.5 c 128,-1,30
 600 638 600 638 600 584 c 2,31,-1
 600 536 l 1,32,-1
 913 536 l 1,33,-1
 913 0 l 1,34,-1
 838 0 l 1,35,-1
 838 461 l 1,36,-1
 600 461 l 1,37,-1
 600 0 l 1,38,-1
 525 0 l 1,39,-1
 525 461 l 1,40,-1
 207 461 l 1,41,-1
 207 0 l 1,42,-1
 132 0 l 1,43,-1
 132 461 l 1,0,-1
EndSplineSet
Validated: 1
EndChar

StartChar: f_f_l
Encoding: 65896 -1 826
Width: 1015
GlyphClass: 3
Flags: W
LayerCount: 2
Fore
SplineSet
132 461 m 1,0,-1
 25 461 l 1,1,-1
 25 536 l 1,2,-1
 132 536 l 1,3,-1
 132 584 l 2,4,5
 132 638 132 638 156.5 677 c 128,-1,6
 181 716 181 716 222 736.5 c 128,-1,7
 263 757 263 757 311 757 c 0,8,9
 337 757 337 757 355 752 c 1,10,-1
 355 684 l 1,11,12
 342 687 342 687 319 687 c 0,13,14
 267 687 267 687 237 662.5 c 128,-1,15
 207 638 207 638 207 584 c 2,16,-1
 207 536 l 1,17,-1
 525 536 l 1,18,-1
 525 584 l 2,19,20
 525 638 525 638 549.5 677 c 128,-1,21
 574 716 574 716 615 736.5 c 128,-1,22
 656 757 656 757 704 757 c 0,23,24
 730 757 730 757 748 752 c 1,25,-1
 748 684 l 1,26,27
 735 687 735 687 712 687 c 0,28,29
 660 687 660 687 630 662.5 c 128,-1,30
 600 638 600 638 600 584 c 2,31,-1
 600 536 l 1,32,-1
 863 536 l 1,33,-1
 863 757 l 1,34,-1
 938 757 l 1,35,-1
 938 0 l 1,36,-1
 863 0 l 1,37,-1
 863 461 l 1,38,-1
 600 461 l 1,39,-1
 600 0 l 1,40,-1
 525 0 l 1,41,-1
 525 461 l 1,42,-1
 207 461 l 1,43,-1
 207 0 l 1,44,-1
 132 0 l 1,45,-1
 132 461 l 1,0,-1
EndSplineSet
Validated: 1
EndChar

StartChar: fi
Encoding: 64257 64257 827
Width: 582
GlyphClass: 3
Flags: W
LayerCount: 2
Fore
SplineSet
132 461 m 1,0,-1
 25 461 l 1,1,-1
 25 536 l 1,2,-1
 132 536 l 1,3,-1
 132 584 l 2,4,5
 132 638 132 638 156.5 677 c 128,-1,6
 181 716 181 716 222 736.5 c 128,-1,7
 263 757 263 757 311 757 c 0,8,9
 337 757 337 757 355 752 c 1,10,-1
 355 684 l 1,11,12
 342 687 342 687 319 687 c 0,13,14
 267 687 267 687 237 662.5 c 128,-1,15
 207 638 207 638 207 584 c 2,16,-1
 207 536 l 1,17,-1
 520 536 l 1,18,-1
 520 0 l 1,19,-1
 445 0 l 1,20,-1
 445 461 l 1,21,-1
 207 461 l 1,22,-1
 207 0 l 1,23,-1
 132 0 l 1,24,-1
 132 461 l 1,0,-1
EndSplineSet
Validated: 1
EndChar

StartChar: fl
Encoding: 64258 64258 828
Width: 622
GlyphClass: 3
Flags: W
LayerCount: 2
Fore
SplineSet
132 461 m 1,0,-1
 25 461 l 1,1,-1
 25 536 l 1,2,-1
 132 536 l 1,3,-1
 132 584 l 2,4,5
 132 638 132 638 156.5 677 c 128,-1,6
 181 716 181 716 222 736.5 c 128,-1,7
 263 757 263 757 311 757 c 0,8,9
 337 757 337 757 355 752 c 1,10,-1
 355 684 l 1,11,12
 342 687 342 687 319 687 c 0,13,14
 267 687 267 687 237 662.5 c 128,-1,15
 207 638 207 638 207 584 c 2,16,-1
 207 536 l 1,17,-1
 470 536 l 1,18,-1
 470 757 l 1,19,-1
 545 757 l 1,20,-1
 545 0 l 1,21,-1
 470 0 l 1,22,-1
 470 461 l 1,23,-1
 207 461 l 1,24,-1
 207 0 l 1,25,-1
 132 0 l 1,26,-1
 132 461 l 1,0,-1
EndSplineSet
Validated: 1
EndChar

StartChar: ordfeminine
Encoding: 170 170 829
Width: 455
GlyphClass: 2
Flags: W
AnchorPoint: "Anchor-6" 225 378 basechar 0
AnchorPoint: "Anchor-5" 363 28 basechar 0
AnchorPoint: "Anchor-4" 225 0 basechar 0
LayerCount: 2
Fore
SplineSet
90.5 390.5 m 128,-1,1
 55 420 55 420 55 468 c 256,2,3
 55 516 55 516 87 547 c 128,-1,4
 119 578 119 578 181 588 c 2,5,-1
 305 609 l 1,6,-1
 305 624 l 2,7,8
 305 653 305 653 283 671.5 c 128,-1,9
 261 690 261 690 226 690 c 0,10,11
 195 690 195 690 170.5 674 c 128,-1,12
 146 658 146 658 135 631 c 1,13,-1
 73 662 l 1,14,15
 90 704 90 704 133.5 729.5 c 128,-1,16
 177 755 177 755 228 755 c 0,17,18
 295 755 295 755 336.5 718.5 c 128,-1,19
 378 682 378 682 378 624 c 2,20,-1
 378 369 l 1,21,-1
 308 369 l 1,22,-1
 308 415 l 1,23,24
 287 390 287 390 255 375.5 c 128,-1,25
 223 361 223 361 183 361 c 0,26,0
 126 361 126 361 90.5 390.5 c 128,-1,1
149.5 434.5 m 128,-1,28
 167 420 167 420 193 420 c 0,29,30
 242 420 242 420 273.5 450.5 c 128,-1,31
 305 481 305 481 305 527 c 2,32,-1
 305 549 l 1,33,-1
 196 531 l 2,34,35
 132 520 132 520 132 471 c 0,36,27
 132 449 132 449 149.5 434.5 c 128,-1,28
EndSplineSet
Validated: 1
EndChar

StartChar: ordmasculine
Encoding: 186 186 830
Width: 503
GlyphClass: 2
Flags: W
AnchorPoint: "Anchor-7" 466 378 basechar 0
AnchorPoint: "Anchor-6" 252 677 basechar 0
AnchorPoint: "Anchor-5" 273 28 basechar 0
AnchorPoint: "Anchor-4" 252 0 basechar 0
LayerCount: 2
Fore
SplineSet
153 386.5 m 128,-1,1
 108 412 108 412 81.5 457 c 128,-1,2
 55 502 55 502 55 558 c 256,3,4
 55 614 55 614 81 659 c 128,-1,5
 107 704 107 704 152.5 729.5 c 128,-1,6
 198 755 198 755 252 755 c 256,7,8
 306 755 306 755 351 729.5 c 128,-1,9
 396 704 396 704 422 659 c 128,-1,10
 448 614 448 614 448 558 c 256,11,12
 448 502 448 502 421.5 457 c 128,-1,13
 395 412 395 412 350 386.5 c 128,-1,14
 305 361 305 361 252 361 c 0,15,0
 198 361 198 361 153 386.5 c 128,-1,1
166.5 467 m 128,-1,17
 201 430 201 430 252 430 c 0,18,19
 302 430 302 430 336.5 466.5 c 128,-1,20
 371 503 371 503 371 558 c 256,21,22
 371 613 371 613 336.5 649.5 c 128,-1,23
 302 686 302 686 252 686 c 0,24,25
 200 686 200 686 166 649.5 c 128,-1,26
 132 613 132 613 132 558 c 0,27,16
 132 504 132 504 166.5 467 c 128,-1,17
EndSplineSet
Validated: 1
EndChar

StartChar: uni0394
Encoding: 916 916 831
Width: 598
GlyphClass: 1
Flags: W
LayerCount: 2
Fore
SplineSet
11 75 m 1,0,-1
 256 745 l 1,1,-1
 342 745 l 1,2,-1
 587 75 l 1,3,-1
 587 0 l 1,4,-1
 11 0 l 1,5,-1
 11 75 l 1,0,-1
503 75 m 1,6,-1
 299 651 l 1,7,-1
 95 75 l 1,8,-1
 503 75 l 1,6,-1
EndSplineSet
Validated: 1
Position2: "'cpsp' Capital Spacing in Latin lookup 0 subtable" dx=5 dy=0 dh=10 dv=0
EndChar

StartChar: uni03A9
Encoding: 937 937 832
Width: 878
GlyphClass: 1
Flags: W
LayerCount: 2
Fore
SplineSet
66 75 m 1,0,-1
 211 75 l 1,1,2
 143 125 143 125 104.5 202 c 128,-1,3
 66 279 66 279 66 373 c 0,4,5
 66 483 66 483 115.5 570.5 c 128,-1,6
 165 658 165 658 250.5 707.5 c 128,-1,7
 336 757 336 757 439 757 c 256,8,9
 542 757 542 757 627.5 707.5 c 128,-1,10
 713 658 713 658 762.5 570.5 c 128,-1,11
 812 483 812 483 812 373 c 0,12,13
 812 279 812 279 773.5 202 c 128,-1,14
 735 125 735 125 667 75 c 1,15,-1
 812 75 l 1,16,-1
 812 0 l 1,17,-1
 520 0 l 1,18,-1
 520 75 l 1,19,20
 583 93 583 93 631 136 c 128,-1,21
 679 179 679 179 705.5 240.5 c 128,-1,22
 732 302 732 302 732 373 c 0,23,24
 732 457 732 457 694.5 528 c 128,-1,25
 657 599 657 599 590 640.5 c 128,-1,26
 523 682 523 682 439 682 c 256,27,28
 355 682 355 682 288 640.5 c 128,-1,29
 221 599 221 599 183.5 528 c 128,-1,30
 146 457 146 457 146 373 c 0,31,32
 146 302 146 302 172.5 240.5 c 128,-1,33
 199 179 199 179 247 136 c 128,-1,34
 295 93 295 93 358 75 c 1,35,-1
 358 0 l 1,36,-1
 66 0 l 1,37,-1
 66 75 l 1,0,-1
EndSplineSet
Validated: 1
Position2: "'cpsp' Capital Spacing in Latin lookup 0 subtable" dx=5 dy=0 dh=10 dv=0
EndChar

StartChar: pi
Encoding: 960 960 833
Width: 646
GlyphClass: 1
Flags: W
LayerCount: 2
Fore
SplineSet
133 461 m 1,0,-1
 33 461 l 1,1,-1
 33 536 l 1,2,-1
 613 536 l 1,3,-1
 613 461 l 1,4,-1
 513 461 l 1,5,-1
 513 0 l 1,6,-1
 438 0 l 1,7,-1
 438 461 l 1,8,-1
 208 461 l 1,9,-1
 208 0 l 1,10,-1
 133 0 l 1,11,-1
 133 461 l 1,0,-1
EndSplineSet
Validated: 1
EndChar

StartChar: zero
Encoding: 48 48 834
Width: 732
GlyphClass: 1
Flags: W
LayerCount: 2
Fore
SplineSet
213 36 m 128,-1,1
 146 84 146 84 109 171.5 c 128,-1,2
 72 259 72 259 72 373 c 256,3,4
 72 487 72 487 109 574 c 128,-1,5
 146 661 146 661 212.5 709 c 128,-1,6
 279 757 279 757 366 757 c 256,7,8
 453 757 453 757 519.5 709 c 128,-1,9
 586 661 586 661 623 574 c 128,-1,10
 660 487 660 487 660 373 c 256,11,12
 660 259 660 259 623.5 171.5 c 128,-1,13
 587 84 587 84 520.5 36 c 128,-1,14
 454 -12 454 -12 367 -12 c 256,15,0
 280 -12 280 -12 213 36 c 128,-1,1
179 211 m 128,-1,17
 206 141 206 141 254.5 102 c 128,-1,18
 303 63 303 63 367 63 c 0,19,20
 430 63 430 63 478.5 101.5 c 128,-1,21
 527 140 527 140 554 210.5 c 128,-1,22
 581 281 581 281 581 373 c 256,23,24
 581 465 581 465 554 535 c 128,-1,25
 527 605 527 605 478.5 643.5 c 128,-1,26
 430 682 430 682 366 682 c 0,27,28
 303 682 303 682 254.5 643.5 c 128,-1,29
 206 605 206 605 179 535 c 128,-1,30
 152 465 152 465 152 373 c 256,31,16
 152 281 152 281 179 211 c 128,-1,17
EndSplineSet
Validated: 1
Substitution2: "'frac' Diagonal Fractions in Latin lookup 14 subtable" zero.numr
Substitution2: "'dnom' Denominators in Latin lookup 12 subtable" zero.dnom
Substitution2: "'numr' Numerators in Latin lookup 11 subtable" zero.numr
Substitution2: "'sups' Superscript in Latin lookup 10 subtable" uni2070
Substitution2: "'sinf' Scientific Inferiors in Latin lookup 9 subtable" uni2080
Substitution2: "'subs' Subscript in Latin lookup 8 subtable" uni2080
AlternateSubs2: "'aalt' Access All Alternates in Latin lookup 1 subtable" uni2080 uni2070 zero.numr zero.dnom
EndChar

StartChar: one
Encoding: 49 49 835
Width: 371
GlyphClass: 1
Flags: W
LayerCount: 2
Fore
SplineSet
181 675 m 1,0,-1
 41 675 l 1,1,-1
 41 745 l 1,2,-1
 261 745 l 1,3,-1
 261 0 l 1,4,-1
 181 0 l 1,5,-1
 181 675 l 1,0,-1
EndSplineSet
Validated: 1
Substitution2: "'frac' Diagonal Fractions in Latin lookup 14 subtable" one.numr
Substitution2: "'dnom' Denominators in Latin lookup 12 subtable" one.dnom
Substitution2: "'numr' Numerators in Latin lookup 11 subtable" one.numr
Substitution2: "'sups' Superscript in Latin lookup 10 subtable" uni00B9
Substitution2: "'sinf' Scientific Inferiors in Latin lookup 9 subtable" uni2081
Substitution2: "'subs' Subscript in Latin lookup 8 subtable" uni2081
AlternateSubs2: "'aalt' Access All Alternates in Latin lookup 1 subtable" uni2081 uni00B9 one.numr one.dnom
EndChar

StartChar: two
Encoding: 50 50 836
Width: 600
GlyphClass: 1
Flags: W
LayerCount: 2
Fore
SplineSet
58 50 m 1,0,-1
 266 279 l 1,1,-1
 296 312 l 2,2,3
 357 378 357 378 384.5 412 c 128,-1,4
 412 446 412 446 427 478.5 c 128,-1,5
 442 511 442 511 442 548 c 0,6,7
 442 614 442 614 403.5 650.5 c 128,-1,8
 365 687 365 687 299 687 c 0,9,10
 232 687 232 687 186.5 649 c 128,-1,11
 141 611 141 611 125 543 c 1,12,-1
 52 559 l 1,13,14
 72 650 72 650 138 703.5 c 128,-1,15
 204 757 204 757 298 757 c 0,16,17
 364 757 364 757 414.5 730.5 c 128,-1,18
 465 704 465 704 493.5 656 c 128,-1,19
 522 608 522 608 522 548 c 0,20,21
 522 489 522 489 486.5 433 c 128,-1,22
 451 377 451 377 362 278 c 2,23,-1
 173 70 l 1,24,-1
 542 70 l 1,25,-1
 542 0 l 1,26,-1
 58 0 l 1,27,-1
 58 50 l 1,0,-1
EndSplineSet
Validated: 1
Substitution2: "'frac' Diagonal Fractions in Latin lookup 14 subtable" two.numr
Substitution2: "'dnom' Denominators in Latin lookup 12 subtable" two.dnom
Substitution2: "'numr' Numerators in Latin lookup 11 subtable" two.numr
Substitution2: "'sups' Superscript in Latin lookup 10 subtable" uni00B2
Substitution2: "'sinf' Scientific Inferiors in Latin lookup 9 subtable" uni2082
Substitution2: "'subs' Subscript in Latin lookup 8 subtable" uni2082
AlternateSubs2: "'aalt' Access All Alternates in Latin lookup 1 subtable" uni2082 uni00B2 two.numr two.dnom
EndChar

StartChar: three
Encoding: 51 51 837
Width: 609
GlyphClass: 1
Flags: W
LayerCount: 2
Fore
SplineSet
140.5 32 m 128,-1,1
 74 76 74 76 46 153 c 1,2,-1
 110 183 l 1,3,4
 133 125 133 125 182 91.5 c 128,-1,5
 231 58 231 58 294 58 c 0,6,7
 371 58 371 58 418.5 102 c 128,-1,8
 466 146 466 146 466 224 c 0,9,10
 466 301 466 301 417.5 345 c 128,-1,11
 369 389 369 389 293 389 c 0,12,13
 265 389 265 389 239 385 c 1,14,-1
 223 420 l 1,15,-1
 424 675 l 1,16,-1
 81 675 l 1,17,-1
 81 745 l 1,18,-1
 514 745 l 1,19,-1
 514 675 l 1,20,-1
 335 450 l 1,21,22
 429 440 429 440 487.5 378.5 c 128,-1,23
 546 317 546 317 546 224 c 0,24,25
 546 158 546 158 514 104.5 c 128,-1,26
 482 51 482 51 424.5 19.5 c 128,-1,27
 367 -12 367 -12 294 -12 c 0,28,0
 207 -12 207 -12 140.5 32 c 128,-1,1
EndSplineSet
Validated: 1
Substitution2: "'frac' Diagonal Fractions in Latin lookup 14 subtable" three.numr
Substitution2: "'dnom' Denominators in Latin lookup 12 subtable" three.dnom
Substitution2: "'numr' Numerators in Latin lookup 11 subtable" three.numr
Substitution2: "'sups' Superscript in Latin lookup 10 subtable" uni00B3
Substitution2: "'sinf' Scientific Inferiors in Latin lookup 9 subtable" uni2083
Substitution2: "'subs' Subscript in Latin lookup 8 subtable" uni2083
AlternateSubs2: "'aalt' Access All Alternates in Latin lookup 1 subtable" uni2083 uni00B3 three.numr three.dnom
EndChar

StartChar: four
Encoding: 52 52 838
Width: 630
GlyphClass: 1
Flags: W
LayerCount: 2
Fore
SplineSet
425 176 m 1,0,-1
 46 176 l 1,1,-1
 46 241 l 1,2,-1
 425 745 l 1,3,-1
 495 745 l 1,4,-1
 495 241 l 1,5,-1
 586 241 l 1,6,-1
 586 176 l 1,7,-1
 495 176 l 1,8,-1
 495 0 l 1,9,-1
 425 0 l 1,10,-1
 425 176 l 1,0,-1
425 241 m 1,11,-1
 425 636 l 1,12,-1
 129 241 l 1,13,-1
 425 241 l 1,11,-1
EndSplineSet
Validated: 1
Substitution2: "'frac' Diagonal Fractions in Latin lookup 14 subtable" four.numr
Substitution2: "'dnom' Denominators in Latin lookup 12 subtable" four.dnom
Substitution2: "'numr' Numerators in Latin lookup 11 subtable" four.numr
Substitution2: "'sups' Superscript in Latin lookup 10 subtable" uni2074
Substitution2: "'sinf' Scientific Inferiors in Latin lookup 9 subtable" uni2084
Substitution2: "'subs' Subscript in Latin lookup 8 subtable" uni2084
AlternateSubs2: "'aalt' Access All Alternates in Latin lookup 1 subtable" uni2084 uni2074 four.numr four.dnom
EndChar

StartChar: five
Encoding: 53 53 839
Width: 616
GlyphClass: 1
Flags: W
LayerCount: 2
Fore
SplineSet
147.5 32.5 m 128,-1,1
 80 77 80 77 52 153 c 1,2,-1
 113 183 l 1,3,4
 136 126 136 126 188 92 c 128,-1,5
 240 58 240 58 302 58 c 0,6,7
 350 58 350 58 389 81 c 128,-1,8
 428 104 428 104 450 143.5 c 128,-1,9
 472 183 472 183 472 232 c 0,10,11
 472 282 472 282 449.5 321.5 c 128,-1,12
 427 361 427 361 388.5 383.5 c 128,-1,13
 350 406 350 406 303 406 c 0,14,15
 255 406 255 406 213 384 c 128,-1,16
 171 362 171 362 152 329 c 1,17,-1
 89 341 l 1,18,-1
 145 746 l 1,19,-1
 522 746 l 1,20,-1
 522 676 l 1,21,-1
 201 676 l 1,22,-1
 167 435 l 1,23,24
 226 478 226 478 307 478 c 0,25,26
 377 478 377 478 433 445 c 128,-1,27
 489 412 489 412 520.5 355.5 c 128,-1,28
 552 299 552 299 552 232 c 0,29,30
 552 163 552 163 519.5 107.5 c 128,-1,31
 487 52 487 52 430 20 c 128,-1,32
 373 -12 373 -12 302 -12 c 0,33,0
 215 -12 215 -12 147.5 32.5 c 128,-1,1
EndSplineSet
Validated: 1
Substitution2: "'frac' Diagonal Fractions in Latin lookup 14 subtable" five.numr
Substitution2: "'dnom' Denominators in Latin lookup 12 subtable" five.dnom
Substitution2: "'numr' Numerators in Latin lookup 11 subtable" five.numr
Substitution2: "'sups' Superscript in Latin lookup 10 subtable" uni2075
Substitution2: "'sinf' Scientific Inferiors in Latin lookup 9 subtable" uni2085
Substitution2: "'subs' Subscript in Latin lookup 8 subtable" uni2085
AlternateSubs2: "'aalt' Access All Alternates in Latin lookup 1 subtable" uni2085 uni2075 five.numr five.dnom
EndChar

StartChar: six
Encoding: 54 54 840
Width: 597
GlyphClass: 1
Flags: W
LayerCount: 2
Fore
SplineSet
176 19.5 m 128,-1,1
 121 51 121 51 90.5 107 c 128,-1,2
 60 163 60 163 60 234 c 0,3,4
 60 351 60 351 146 466 c 2,5,-1
 356 745 l 1,6,-1
 452 745 l 1,7,-1
 218 439 l 1,8,9
 254 461 254 461 310 461 c 0,10,11
 374 461 374 461 427 430.5 c 128,-1,12
 480 400 480 400 510 346 c 128,-1,13
 540 292 540 292 540 224 c 0,14,15
 540 157 540 157 508.5 103.5 c 128,-1,16
 477 50 477 50 422.5 19 c 128,-1,17
 368 -12 368 -12 300 -12 c 0,18,0
 231 -12 231 -12 176 19.5 c 128,-1,1
161 139 m 128,-1,20
 182 101 182 101 218.5 79.5 c 128,-1,21
 255 58 255 58 300 58 c 256,22,23
 345 58 345 58 381.5 79.5 c 128,-1,24
 418 101 418 101 439 139 c 128,-1,25
 460 177 460 177 460 224 c 256,26,27
 460 271 460 271 439.5 308.5 c 128,-1,28
 419 346 419 346 382.5 367.5 c 128,-1,29
 346 389 346 389 300 389 c 256,30,31
 254 389 254 389 217.5 367.5 c 128,-1,32
 181 346 181 346 160.5 308.5 c 128,-1,33
 140 271 140 271 140 224 c 256,34,19
 140 177 140 177 161 139 c 128,-1,20
EndSplineSet
Validated: 1
Substitution2: "'frac' Diagonal Fractions in Latin lookup 14 subtable" six.numr
Substitution2: "'dnom' Denominators in Latin lookup 12 subtable" six.dnom
Substitution2: "'numr' Numerators in Latin lookup 11 subtable" six.numr
Substitution2: "'sups' Superscript in Latin lookup 10 subtable" uni2076
Substitution2: "'sinf' Scientific Inferiors in Latin lookup 9 subtable" uni2086
Substitution2: "'subs' Subscript in Latin lookup 8 subtable" uni2086
AlternateSubs2: "'aalt' Access All Alternates in Latin lookup 1 subtable" uni2086 uni2076 six.numr six.dnom
EndChar

StartChar: seven
Encoding: 55 55 841
Width: 543
GlyphClass: 1
Flags: W
LayerCount: 2
Fore
SplineSet
415 676 m 1,0,-1
 43 676 l 1,1,-1
 43 746 l 1,2,-1
 498 746 l 1,3,-1
 498 676 l 1,4,-1
 163 0 l 1,5,-1
 79 0 l 1,6,-1
 415 676 l 1,0,-1
EndSplineSet
Validated: 1
Substitution2: "'frac' Diagonal Fractions in Latin lookup 14 subtable" seven.numr
Substitution2: "'dnom' Denominators in Latin lookup 12 subtable" seven.dnom
Substitution2: "'numr' Numerators in Latin lookup 11 subtable" seven.numr
Substitution2: "'sups' Superscript in Latin lookup 10 subtable" uni2077
Substitution2: "'sinf' Scientific Inferiors in Latin lookup 9 subtable" uni2087
Substitution2: "'subs' Subscript in Latin lookup 8 subtable" uni2087
AlternateSubs2: "'aalt' Access All Alternates in Latin lookup 1 subtable" uni2087 uni2077 seven.numr seven.dnom
EndChar

StartChar: eight
Encoding: 56 56 842
Width: 628
GlyphClass: 1
Flags: W
LayerCount: 2
Fore
SplineSet
186 17.5 m 128,-1,1
 129 47 129 47 96.5 98.5 c 128,-1,2
 64 150 64 150 64 215 c 256,3,4
 64 280 64 280 98 332.5 c 128,-1,5
 132 385 132 385 191 411 c 1,6,7
 149 436 149 436 126 477 c 128,-1,8
 103 518 103 518 103 565 c 0,9,10
 103 619 103 619 130.5 663 c 128,-1,11
 158 707 158 707 206.5 732 c 128,-1,12
 255 757 255 757 314 757 c 0,13,14
 374 757 374 757 422 732.5 c 128,-1,15
 470 708 470 708 497 664 c 128,-1,16
 524 620 524 620 524 565 c 0,17,18
 524 516 524 516 501 476 c 128,-1,19
 478 436 478 436 437 411 c 1,20,21
 496 385 496 385 530 332.5 c 128,-1,22
 564 280 564 280 564 215 c 256,23,24
 564 150 564 150 531.5 98.5 c 128,-1,25
 499 47 499 47 442 17.5 c 128,-1,26
 385 -12 385 -12 314 -12 c 256,27,0
 243 -12 243 -12 186 17.5 c 128,-1,1
191 101 m 128,-1,29
 238 58 238 58 314 58 c 256,30,31
 390 58 390 58 437 101 c 128,-1,32
 484 144 484 144 484 215 c 256,33,34
 484 286 484 286 437 329 c 128,-1,35
 390 372 390 372 314 372 c 256,36,37
 238 372 238 372 191 329 c 128,-1,38
 144 286 144 286 144 215 c 256,39,28
 144 144 144 144 191 101 c 128,-1,29
220.5 476 m 128,-1,41
 258 442 258 442 314 442 c 256,42,43
 370 442 370 442 407 476 c 128,-1,44
 444 510 444 510 444 565 c 0,45,46
 444 619 444 619 407 653 c 128,-1,47
 370 687 370 687 314 687 c 256,48,49
 258 687 258 687 220.5 653 c 128,-1,50
 183 619 183 619 183 565 c 0,51,40
 183 510 183 510 220.5 476 c 128,-1,41
EndSplineSet
Validated: 1
Substitution2: "'frac' Diagonal Fractions in Latin lookup 14 subtable" eight.numr
Substitution2: "'dnom' Denominators in Latin lookup 12 subtable" eight.dnom
Substitution2: "'numr' Numerators in Latin lookup 11 subtable" eight.numr
Substitution2: "'sups' Superscript in Latin lookup 10 subtable" uni2078
Substitution2: "'sinf' Scientific Inferiors in Latin lookup 9 subtable" uni2088
Substitution2: "'subs' Subscript in Latin lookup 8 subtable" uni2088
AlternateSubs2: "'aalt' Access All Alternates in Latin lookup 1 subtable" uni2088 uni2078 eight.numr eight.dnom
EndChar

StartChar: nine
Encoding: 57 57 843
Width: 597
GlyphClass: 1
Flags: W
LayerCount: 2
Fore
SplineSet
379 306 m 1,0,1
 343 284 343 284 287 284 c 0,2,3
 223 284 223 284 170 314.5 c 128,-1,4
 117 345 117 345 87 399 c 128,-1,5
 57 453 57 453 57 521 c 0,6,7
 57 588 57 588 88.5 641.5 c 128,-1,8
 120 695 120 695 174.5 726 c 128,-1,9
 229 757 229 757 297 757 c 0,10,11
 366 757 366 757 421 725.5 c 128,-1,12
 476 694 476 694 506.5 638 c 128,-1,13
 537 582 537 582 537 511 c 0,14,15
 537 394 537 394 451 279 c 2,16,-1
 241 0 l 1,17,-1
 145 0 l 1,18,-1
 379 306 l 1,0,1
157.5 436.5 m 128,-1,20
 178 399 178 399 214.5 377.5 c 128,-1,21
 251 356 251 356 297 356 c 256,22,23
 343 356 343 356 379.5 377.5 c 128,-1,24
 416 399 416 399 436.5 436.5 c 128,-1,25
 457 474 457 474 457 521 c 256,26,27
 457 568 457 568 436 606 c 128,-1,28
 415 644 415 644 378.5 665.5 c 128,-1,29
 342 687 342 687 297 687 c 256,30,31
 252 687 252 687 215.5 665.5 c 128,-1,32
 179 644 179 644 158 606 c 128,-1,33
 137 568 137 568 137 521 c 256,34,19
 137 474 137 474 157.5 436.5 c 128,-1,20
EndSplineSet
Validated: 1
Substitution2: "'frac' Diagonal Fractions in Latin lookup 14 subtable" nine.numr
Substitution2: "'dnom' Denominators in Latin lookup 12 subtable" nine.dnom
Substitution2: "'numr' Numerators in Latin lookup 11 subtable" nine.numr
Substitution2: "'sups' Superscript in Latin lookup 10 subtable" uni2079
Substitution2: "'sinf' Scientific Inferiors in Latin lookup 9 subtable" uni2089
Substitution2: "'subs' Subscript in Latin lookup 8 subtable" uni2089
AlternateSubs2: "'aalt' Access All Alternates in Latin lookup 1 subtable" uni2089 uni2079 nine.numr nine.dnom
EndChar

StartChar: zero.dnom
Encoding: 65897 -1 844
Width: 432
GlyphClass: 1
Flags: W
LayerCount: 2
Fore
SplineSet
129 20.5 m 128,-1,1
 91 48 91 48 70 97 c 128,-1,2
 49 146 49 146 49 209 c 256,3,4
 49 272 49 272 70 321 c 128,-1,5
 91 370 91 370 128.5 397 c 128,-1,6
 166 424 166 424 215 424 c 0,7,8
 265 424 265 424 303 397 c 128,-1,9
 341 370 341 370 362 321 c 128,-1,10
 383 272 383 272 383 209 c 256,11,12
 383 146 383 146 362 96.5 c 128,-1,13
 341 47 341 47 303 20 c 128,-1,14
 265 -7 265 -7 216 -7 c 256,15,0
 167 -7 167 -7 129 20.5 c 128,-1,1
147 100 m 128,-1,17
 172 59 172 59 216 59 c 256,18,19
 260 59 260 59 285.5 99.5 c 128,-1,20
 311 140 311 140 311 209 c 0,21,22
 311 277 311 277 285.5 317.5 c 128,-1,23
 260 358 260 358 215 358 c 0,24,25
 172 358 172 358 147 318 c 128,-1,26
 122 278 122 278 122 209 c 0,27,16
 122 141 122 141 147 100 c 128,-1,17
EndSplineSet
Validated: 1
EndChar

StartChar: one.dnom
Encoding: 65898 -1 845
Width: 278
GlyphClass: 1
Flags: W
LayerCount: 2
Fore
SplineSet
101 355 m 1,0,-1
 21 355 l 1,1,-1
 21 417 l 1,2,-1
 173 417 l 1,3,-1
 173 0 l 1,4,-1
 101 0 l 1,5,-1
 101 355 l 1,0,-1
EndSplineSet
Validated: 1
EndChar

StartChar: two.dnom
Encoding: 65899 -1 846
Width: 360
GlyphClass: 1
Flags: W
LayerCount: 2
Fore
SplineSet
39 54 m 1,0,-1
 153 174 l 2,1,2
 204 228 204 228 221.5 252 c 128,-1,3
 239 276 239 276 239 300 c 0,4,5
 239 327 239 327 222 343 c 128,-1,6
 205 359 205 359 177 359 c 256,7,8
 149 359 149 359 128.5 342.5 c 128,-1,9
 108 326 108 326 100 296 c 1,10,-1
 36 316 l 1,11,12
 46 365 46 365 86 394.5 c 128,-1,13
 126 424 126 424 177 424 c 0,14,15
 237 424 237 424 274 391 c 128,-1,16
 311 358 311 358 311 307 c 0,17,18
 311 270 311 270 292 240 c 128,-1,19
 273 210 273 210 233 167 c 2,20,-1
 134 62 l 1,21,-1
 318 62 l 1,22,-1
 318 0 l 1,23,-1
 39 0 l 1,24,-1
 39 54 l 1,0,-1
EndSplineSet
Validated: 1
EndChar

StartChar: three.dnom
Encoding: 65900 -1 847
Width: 369
GlyphClass: 1
Flags: W
LayerCount: 2
Fore
SplineSet
88.5 21 m 128,-1,1
 48 49 48 49 35 94 c 1,2,-1
 97 117 l 1,3,4
 108 89 108 89 130 73.5 c 128,-1,5
 152 58 152 58 180 58 c 0,6,7
 214 58 214 58 235.5 78 c 128,-1,8
 257 98 257 98 257 132 c 0,9,10
 257 165 257 165 236 184.5 c 128,-1,11
 215 204 215 204 180 204 c 0,12,13
 157 204 157 204 139 196 c 1,14,-1
 123 230 l 1,15,-1
 231 356 l 1,16,-1
 58 356 l 1,17,-1
 58 417 l 1,18,-1
 312 417 l 1,19,-1
 312 359 l 1,20,-1
 225 256 l 1,21,22
 273 248 273 248 301 215 c 128,-1,23
 329 182 329 182 329 133 c 0,24,25
 329 94 329 94 309.5 62 c 128,-1,26
 290 30 290 30 256 11.5 c 128,-1,27
 222 -7 222 -7 180 -7 c 0,28,0
 129 -7 129 -7 88.5 21 c 128,-1,1
EndSplineSet
Validated: 1
EndChar

StartChar: four.dnom
Encoding: 65901 -1 848
Width: 399
GlyphClass: 1
Flags: W
LayerCount: 2
Fore
SplineSet
230 93 m 1,0,-1
 35 93 l 1,1,-1
 35 153 l 1,2,-1
 226 417 l 1,3,-1
 300 417 l 1,4,-1
 300 153 l 1,5,-1
 360 153 l 1,6,-1
 360 93 l 1,7,-1
 300 93 l 1,8,-1
 300 0 l 1,9,-1
 230 0 l 1,10,-1
 230 93 l 1,0,-1
230 153 m 1,11,-1
 230 327 l 1,12,-1
 106 153 l 1,13,-1
 230 153 l 1,11,-1
EndSplineSet
Validated: 1
EndChar

StartChar: five.dnom
Encoding: 65902 -1 849
Width: 377
GlyphClass: 1
Flags: W
LayerCount: 2
Fore
SplineSet
92 20 m 128,-1,1
 52 47 52 47 39 93 c 1,2,-1
 101 115 l 1,3,4
 111 88 111 88 133 73 c 128,-1,5
 155 58 155 58 183 58 c 0,6,7
 215 58 215 58 236 79.5 c 128,-1,8
 257 101 257 101 257 134 c 0,9,10
 257 168 257 168 236 189.5 c 128,-1,11
 215 211 215 211 183 211 c 0,12,13
 161 211 161 211 142 201 c 128,-1,14
 123 191 123 191 115 173 c 1,15,-1
 56 186 l 1,16,-1
 89 417 l 1,17,-1
 314 417 l 1,18,-1
 314 356 l 1,19,-1
 142 356 l 1,20,-1
 127 255 l 1,21,22
 154 272 154 272 194 272 c 0,23,24
 255 272 255 272 292.5 233 c 128,-1,25
 330 194 330 194 330 134 c 0,26,27
 330 95 330 95 311 62.5 c 128,-1,28
 292 30 292 30 258 11.5 c 128,-1,29
 224 -7 224 -7 183 -7 c 0,30,0
 132 -7 132 -7 92 20 c 128,-1,1
EndSplineSet
Validated: 1
EndChar

StartChar: six.dnom
Encoding: 65903 -1 850
Width: 357
GlyphClass: 1
Flags: W
LayerCount: 2
Fore
SplineSet
75.5 32 m 128,-1,1
 35 71 35 71 35 131 c 0,2,3
 35 165 35 165 47 196.5 c 128,-1,4
 59 228 59 228 87 265 c 2,5,-1
 204 417 l 1,6,-1
 290 417 l 1,7,-1
 170 262 l 1,8,9
 184 264 184 264 190 264 c 0,10,11
 247 264 247 264 284.5 226 c 128,-1,12
 322 188 322 188 322 132 c 0,13,14
 322 72 322 72 281.5 32.5 c 128,-1,15
 241 -7 241 -7 179 -7 c 0,16,0
 116 -7 116 -7 75.5 32 c 128,-1,1
127.5 79 m 128,-1,18
 148 58 148 58 179 58 c 0,19,20
 208 58 208 58 228.5 79 c 128,-1,21
 249 100 249 100 249 131 c 0,22,23
 249 163 249 163 229 183.5 c 128,-1,24
 209 204 209 204 179 204 c 256,25,26
 149 204 149 204 128 183.5 c 128,-1,27
 107 163 107 163 107 131 c 0,28,17
 107 100 107 100 127.5 79 c 128,-1,18
EndSplineSet
Validated: 1
EndChar

StartChar: seven.dnom
Encoding: 65904 -1 851
Width: 324
GlyphClass: 1
Flags: W
LayerCount: 2
Fore
SplineSet
226 356 m 1,0,-1
 28 356 l 1,1,-1
 28 418 l 1,2,-1
 302 418 l 1,3,-1
 302 356 l 1,4,-1
 130 0 l 1,5,-1
 51 0 l 1,6,-1
 226 356 l 1,0,-1
EndSplineSet
Validated: 1
EndChar

StartChar: eight.dnom
Encoding: 65905 -1 852
Width: 388
GlyphClass: 1
Flags: W
LayerCount: 2
Fore
SplineSet
116.5 10 m 128,-1,1
 83 27 83 27 64.5 56.5 c 128,-1,2
 46 86 46 86 46 121 c 0,3,4
 46 190 46 190 109 223 c 1,5,6
 87 236 87 236 75 260 c 128,-1,7
 63 284 63 284 63 311 c 0,8,9
 63 359 63 359 100 391.5 c 128,-1,10
 137 424 137 424 193 424 c 256,11,12
 249 424 249 424 286 392 c 128,-1,13
 323 360 323 360 323 311 c 0,14,15
 323 284 323 284 310.5 260.5 c 128,-1,16
 298 237 298 237 277 223 c 1,17,18
 341 189 341 189 341 120 c 0,19,20
 341 85 341 85 322.5 56 c 128,-1,21
 304 27 304 27 270 10 c 128,-1,22
 236 -7 236 -7 193 -7 c 256,23,0
 150 -7 150 -7 116.5 10 c 128,-1,1
139.5 73 m 128,-1,25
 160 54 160 54 193 54 c 256,26,27
 226 54 226 54 247 73 c 128,-1,28
 268 92 268 92 268 122 c 256,29,30
 268 152 268 152 247.5 171 c 128,-1,31
 227 190 227 190 193 190 c 0,32,33
 160 190 160 190 139.5 171 c 128,-1,34
 119 152 119 152 119 122 c 256,35,24
 119 92 119 92 139.5 73 c 128,-1,25
152 267 m 128,-1,37
 168 251 168 251 193 251 c 256,38,39
 218 251 218 251 234 267 c 128,-1,40
 250 283 250 283 250 306 c 0,41,42
 250 331 250 331 234 346.5 c 128,-1,43
 218 362 218 362 193 362 c 256,44,45
 168 362 168 362 152 346.5 c 128,-1,46
 136 331 136 331 136 306 c 0,47,36
 136 283 136 283 152 267 c 128,-1,37
EndSplineSet
Validated: 1
EndChar

StartChar: nine.dnom
Encoding: 65906 -1 853
Width: 357
GlyphClass: 1
Flags: W
LayerCount: 2
Fore
SplineSet
186 155 m 1,0,1
 174 153 174 153 166 153 c 0,2,3
 110 153 110 153 72.5 191 c 128,-1,4
 35 229 35 229 35 285 c 0,5,6
 35 345 35 345 75.5 384.5 c 128,-1,7
 116 424 116 424 179 424 c 0,8,9
 241 424 241 424 281.5 384.5 c 128,-1,10
 322 345 322 345 322 286 c 0,11,12
 322 251 322 251 310 219.5 c 128,-1,13
 298 188 298 188 270 152 c 2,14,-1
 153 0 l 1,15,-1
 66 0 l 1,16,-1
 186 155 l 1,0,1
128 233.5 m 128,-1,18
 149 213 149 213 179 213 c 0,19,20
 208 213 208 213 228.5 234 c 128,-1,21
 249 255 249 255 249 286 c 256,22,23
 249 317 249 317 228.5 338 c 128,-1,24
 208 359 208 359 179 359 c 0,25,26
 148 359 148 359 127.5 338 c 128,-1,27
 107 317 107 317 107 286 c 0,28,17
 107 254 107 254 128 233.5 c 128,-1,18
EndSplineSet
Validated: 1
EndChar

StartChar: uni2080
Encoding: 8320 8320 854
Width: 513
GlyphClass: 1
Flags: W
LayerCount: 2
Fore
SplineSet
148.5 26 m 128,-1,1
 101 60 101 60 75 121 c 128,-1,2
 49 182 49 182 49 261 c 256,3,4
 49 340 49 340 75 401 c 128,-1,5
 101 462 101 462 148 496 c 128,-1,6
 195 530 195 530 256 530 c 0,7,8
 318 530 318 530 365 496 c 128,-1,9
 412 462 412 462 438 401 c 128,-1,10
 464 340 464 340 464 261 c 0,11,12
 464 181 464 181 438 120 c 128,-1,13
 412 59 412 59 365 25.5 c 128,-1,14
 318 -8 318 -8 257 -8 c 256,15,0
 196 -8 196 -8 148.5 26 c 128,-1,1
161.5 116.5 m 128,-1,17
 197 62 197 62 257 62 c 256,18,19
 317 62 317 62 352 116.5 c 128,-1,20
 387 171 387 171 387 261 c 256,21,22
 387 351 387 351 351.5 405 c 128,-1,23
 316 459 316 459 256 459 c 0,24,25
 197 459 197 459 161.5 405.5 c 128,-1,26
 126 352 126 352 126 261 c 0,27,16
 126 171 126 171 161.5 116.5 c 128,-1,17
EndSplineSet
Validated: 1
EndChar

StartChar: uni2081
Encoding: 8321 8321 855
Width: 302
GlyphClass: 1
Flags: W
LayerCount: 2
Fore
SplineSet
120 455 m 1,0,-1
 21 455 l 1,1,-1
 21 522 l 1,2,-1
 197 522 l 1,3,-1
 197 0 l 1,4,-1
 120 0 l 1,5,-1
 120 455 l 1,0,-1
EndSplineSet
Validated: 1
EndChar

StartChar: uni2082
Encoding: 8322 8322 856
Width: 427
GlyphClass: 1
Flags: W
LayerCount: 2
Fore
SplineSet
40 55 m 1,0,-1
 183 209 l 1,1,-1
 199 226 l 2,2,3
 259 291 259 291 278 318.5 c 128,-1,4
 297 346 297 346 297 378 c 0,5,6
 297 417 297 417 273.5 439 c 128,-1,7
 250 461 250 461 211 461 c 0,8,9
 171 461 171 461 143 438.5 c 128,-1,10
 115 416 115 416 104 374 c 1,11,-1
 36 393 l 1,12,13
 49 456 49 456 97.5 493 c 128,-1,14
 146 530 146 530 211 530 c 0,15,16
 283 530 283 530 328.5 489 c 128,-1,17
 374 448 374 448 374 384 c 0,18,19
 374 339 374 339 349.5 300.5 c 128,-1,20
 325 262 325 262 271 203 c 2,21,-1
 143 66 l 1,22,-1
 385 66 l 1,23,-1
 385 0 l 1,24,-1
 40 0 l 1,25,-1
 40 55 l 1,0,-1
EndSplineSet
Validated: 1
EndChar

